<svg xmlns="http://www.w3.org/2000/svg" width="14.549" height="15.068" viewBox="0 0 14.549 15.068">
  <g id="Businessman-2" transform="translate(-40 -24)">
    <path id="Path_8631" data-name="Path 8631" d="M168,256v.779l.779.52h.52l.779-.52V256Z" transform="translate(-123.843 -224.466)" fill="#ffc477"/>
    <path id="Path_8632" data-name="Path 8632" d="M168,256v.561a2.583,2.583,0,0,0,2.078,0V256Z" transform="translate(-123.843 -224.466)" fill="#ffb655"/>
    <path id="Path_8633" data-name="Path 8633" d="M212.936,294.711v3.034H208l.52-.779-.494-4.443.234-.234.779.52.725-1.45,1.148.431c.065.023.127.049.19.078.1.047.2.1.291.151a3.113,3.113,0,0,1,1.4,1.761,2.949,2.949,0,0,1,.135.774q.008.078.008.156Z" transform="translate(-162.544 -258.677)" fill="#3d9ae2"/>
    <path id="Path_8634" data-name="Path 8634" d="M338.6,232l-.52,1.3H336.52L336,232Z" transform="translate(-286.387 -201.245)" fill="#ff9811"/>
    <path id="Path_8635" data-name="Path 8635" d="M346.078,272.26v.26a.26.26,0,0,1-.26.26H344.26a.26.26,0,0,1-.26-.26v-.26a.26.26,0,0,1,.26-.26h1.559A.26.26,0,0,1,346.078,272.26Z" transform="translate(-294.128 -239.946)" fill="#ee8700"/>
    <path id="Path_8636" data-name="Path 8636" d="M251.637,309.882v3.034H248.52a.52.52,0,0,1,0-1.039v-2.6a2.593,2.593,0,0,1,1.055-2.089,2.313,2.313,0,0,1,.229-.151c.1.047.2.1.291.151a3.113,3.113,0,0,1,1.4,1.761,2.949,2.949,0,0,1,.135.774q.008.078.008.156Z" transform="translate(-201.245 -273.848)" fill="#1e81ce"/>
    <path id="Path_8637" data-name="Path 8637" d="M280.52,136a.779.779,0,1,1,0,1.559.77.77,0,0,1-.52-.2V136.2A.77.77,0,0,1,280.52,136Z" transform="translate(-232.206 -108.363)" fill="#ffb655"/>
    <path id="Path_8638" data-name="Path 8638" d="M79.274,25.559v1.3l-.52.52h-.4a1.044,1.044,0,0,1-.93-.574l-.231-.465-.587.47a2.6,2.6,0,0,1-1.624.569H73.559l-1.3-.779.779-1.039L72,24h5.716A1.559,1.559,0,0,1,79.274,25.559Z" transform="translate(-30.961)" fill="#57565c"/>
    <path id="Path_8639" data-name="Path 8639" d="M209.764,280.369l-.725,1.45-.779-.52-.26-.779.779-.52Z" transform="translate(-162.544 -247.686)" fill="#1e81ce"/>
    <path id="Path_8640" data-name="Path 8640" d="M177.065,327.2l.494,4.443-.52.779h-.52l-.52-.779.494-4.443.286.286Z" transform="translate(-131.583 -293.354)" fill="#ff5023"/>
    <path id="Path_8641" data-name="Path 8641" d="M184.779,296l.26.779-.234.234-.286.286-.286-.286-.234-.234.26-.779Z" transform="translate(-139.324 -263.167)" fill="#f24218"/>
    <path id="Path_8642" data-name="Path 8642" d="M139.444,280.52l-.26.779-.779.52-.725-1.45.985-.369Z" transform="translate(-94.508 -247.686)" fill="#1e81ce"/>
    <path id="Path_8643" data-name="Path 8643" d="M42.078,297.746H40v-3.034a3.118,3.118,0,0,1,2.024-2.92l1.148-.431.725,1.45.779-.52.234.234-.494,4.443.52.779Z" transform="translate(0 -258.677)" fill="#3d9ae2"/>
    <path id="Path_8644" data-name="Path 8644" d="M81.3,136.2v1.159a.77.77,0,0,1-.52.2.779.779,0,0,1,0-1.559A.77.77,0,0,1,81.3,136.2Z" transform="translate(-38.701 -108.363)" fill="#ffb655"/>
    <path id="Path_8645" data-name="Path 8645" d="M125.2,98.658v.2a2.6,2.6,0,0,1-5.2,0V97.039h1.426a2.6,2.6,0,0,0,1.624-.569l.587-.47.231.465a1.044,1.044,0,0,0,.93.574h.4Z" transform="translate(-77.402 -69.662)" fill="#ffc477"/>
    <path id="Path_8646" data-name="Path 8646" d="M271.121,301.349a.508.508,0,0,0-.366-.153v-2.6a2.6,2.6,0,0,0-2.6-2.6h-1.039a2.6,2.6,0,0,0-2.6,2.6v2.6a.52.52,0,1,0,0,1.039h6.235a.521.521,0,0,0,.52-.52A.508.508,0,0,0,271.121,301.349Z" transform="translate(-216.726 -263.167)" fill="#ff9811"/>
    <path id="Path_8647" data-name="Path 8647" d="M160,152h.52v.52H160Z" transform="translate(-116.103 -123.843)" fill="#ee8700"/>
    <path id="Path_8648" data-name="Path 8648" d="M224,152h.52v.52H224Z" transform="translate(-178.025 -123.843)" fill="#ee8700"/>
    <path id="Path_8649" data-name="Path 8649" d="M96,360h.52v4.157H96Z" transform="translate(-54.181 -325.088)" fill="#1e81ce"/>
    <path id="Path_8650" data-name="Path 8650" d="M161.3,193.3A1.3,1.3,0,0,1,160,192h.52a.779.779,0,0,0,1.559,0h.52A1.3,1.3,0,0,1,161.3,193.3Z" transform="translate(-116.103 -162.544)" fill="#ee8700"/>
    <g id="Group_8099" data-name="Group 8099" transform="translate(48.833 34.392)">
      <path id="Path_8651" data-name="Path 8651" d="M345.3,345.3h-.52a.26.26,0,0,1,0-.52h.52a.26.26,0,0,1,.26.26h.52a.779.779,0,0,0-.779-.779V344h-.52v.26a.779.779,0,0,0,0,1.559h.52a.26.26,0,0,1,0,.52h-.52a.26.26,0,0,1-.26-.26H344a.779.779,0,0,0,.779.779v.26h.52v-.26a.779.779,0,0,0,0-1.559Z" transform="translate(-342.961 -344)" fill="#ed1c24"/>
      <path id="Path_8652" data-name="Path 8652" d="M424,384h.52v.52H424Z" transform="translate(-420.363 -382.701)" fill="#ed1c24"/>
      <path id="Path_8653" data-name="Path 8653" d="M312,384h.52v.52H312Z" transform="translate(-312 -382.701)" fill="#ed1c24"/>
    </g>
  </g>
</svg>
