<svg id="Group_2006" data-name="Group 2006" xmlns="http://www.w3.org/2000/svg" width="49.261" height="39.612" viewBox="0 0 49.261 39.612">
  <path id="Path_1588" data-name="Path 1588" d="M588.21,301.027,600.037,320.7l-2.192-.013c.07.116,2.526,4.234,2.526,4.234l7.686-.018-19.542-32.567c-.385.616-26.615,39.569-26.615,39.569l42.666.044L587.1,302.681C587.577,301.949,588.262,300.9,588.21,301.027Zm-17.454,25.981s8.414-12.481,13.546-20.163L596.338,326.9Z" transform="translate(-558.796 -292.339)" fill="#fff"/>
  <path id="Path_1590" data-name="Path 1590" d="M590.237,320.747l-25.46.056,13.473-20.033,1.057,1.755,2.724-4.049L578.5,292.4l-22.092,32.65,36.365-.087Z" transform="translate(-556.406 -292.367)" fill="#fff"/>
</svg>
