<svg xmlns="http://www.w3.org/2000/svg" width="116.168" height="38" viewBox="0 0 116.168 38">
  <g id="Group_7727" data-name="Group 7727" transform="translate(-96.641 -534.069)">
    <path id="Path_7795" data-name="Path 7795" d="M212.809,566.933a5.135,5.135,0,0,1-5.134,5.135h-105.9a5.136,5.136,0,0,1-5.135-5.135V539.2a5.136,5.136,0,0,1,5.135-5.135h105.9a5.135,5.135,0,0,1,5.134,5.135Z"/>
    <path id="Path_7796" data-name="Path 7796" d="M145.789,562.682h-9.462a2.054,2.054,0,0,0-2.054,2.053V585.7a2.054,2.054,0,0,0,2.054,2.054h9.462a2.054,2.054,0,0,0,2.055-2.054V564.735A2.054,2.054,0,0,0,145.789,562.682Zm-4.731,23.564a1.368,1.368,0,1,1,1.368-1.368A1.367,1.367,0,0,1,141.058,586.246Zm5.172-3.4H135.886V567.38H146.23Z" transform="translate(-29.085 -22.114)" fill="#fff"/>
    <g id="Group_7725" data-name="Group 7725" transform="translate(125.194 540.212)">
      <path id="Path_7797" data-name="Path 7797" d="M223.672,566.214l-.575,1.742h-.74l1.881-5.539h.863l1.89,5.539h-.764l-.592-1.742Zm1.816-.558-.551-1.594c-.115-.362-.2-.69-.28-1.01h-.024c-.074.32-.164.666-.271,1l-.542,1.6Z" transform="translate(-222.357 -562.122)" fill="#fff"/>
      <path id="Path_7798" data-name="Path 7798" d="M243.392,569.292l.781,2.227c.132.369.238.7.321,1.027h.025c.09-.328.2-.657.337-1.027l.773-2.227h.756l-1.562,3.977h-.69l-1.511-3.977Z" transform="translate(-238.018 -567.435)" fill="#fff"/>
      <path id="Path_7799" data-name="Path 7799" d="M263.244,572.01a6.667,6.667,0,0,0,.058.953h-.649l-.066-.5h-.025a1.468,1.468,0,0,1-1.216.591,1.132,1.132,0,0,1-1.216-1.142c0-.962.855-1.488,2.391-1.479v-.082a.816.816,0,0,0-.9-.92,1.915,1.915,0,0,0-1.044.3l-.165-.485a2.582,2.582,0,0,1,1.315-.345c1.225,0,1.52.83,1.52,1.627Zm-.707-1.077c-.789-.016-1.684.123-1.684.9a.633.633,0,0,0,.673.69,1,1,0,0,0,.978-.665.748.748,0,0,0,.032-.231Z" transform="translate(-251.551 -567.128)" fill="#fff"/>
      <path id="Path_7800" data-name="Path 7800" d="M278.74,562.914a.464.464,0,0,1,.017-.928.444.444,0,0,1,.461.46.453.453,0,0,1-.468.468Zm-.344,4.708v-3.977h.723v3.977Z" transform="translate(-265.585 -561.789)" fill="#fff"/>
      <path id="Path_7801" data-name="Path 7801" d="M287.043,561.117h.723v5.834h-.723Z" transform="translate(-272.351 -561.117)" fill="#fff"/>
      <path id="Path_7802" data-name="Path 7802" d="M297.066,572.01a6.707,6.707,0,0,0,.057.953h-.65l-.065-.5h-.024a1.469,1.469,0,0,1-1.217.591,1.133,1.133,0,0,1-1.216-1.142c0-.962.855-1.488,2.392-1.479v-.082a.817.817,0,0,0-.9-.92,1.91,1.91,0,0,0-1.042.3l-.165-.485a2.581,2.581,0,0,1,1.315-.345c1.224,0,1.52.83,1.52,1.627Zm-.707-1.077c-.789-.016-1.685.123-1.685.9a.634.634,0,0,0,.674.69,1,1,0,0,0,.978-.665.735.735,0,0,0,.033-.231Z" transform="translate(-277.691 -567.128)" fill="#fff"/>
      <path id="Path_7803" data-name="Path 7803" d="M312.472,561.117h.723v2.49h.017a1.475,1.475,0,0,1,1.355-.723c.987,0,1.677.822,1.677,2.021a1.9,1.9,0,0,1-1.791,2.136,1.424,1.424,0,0,1-1.331-.748H313.1l-.041.658h-.623c.025-.272.032-.674.032-1.027Zm.723,4.24a1.3,1.3,0,0,0,.025.262,1.122,1.122,0,0,0,1.084.846c.765,0,1.208-.616,1.208-1.529,0-.805-.411-1.487-1.183-1.487a1.2,1.2,0,0,0-1.134,1.191Z" transform="translate(-291.98 -561.117)" fill="#fff"/>
      <path id="Path_7804" data-name="Path 7804" d="M332.986,561.117h.723v5.834h-.723Z" transform="translate(-307.86 -561.117)" fill="#fff"/>
      <path id="Path_7805" data-name="Path 7805" d="M340.7,571.068a1.268,1.268,0,0,0,1.356,1.38,2.737,2.737,0,0,0,1.1-.2l.131.509a3.235,3.235,0,0,1-1.331.255,1.855,1.855,0,0,1-1.956-2,1.94,1.94,0,0,1,1.874-2.153,1.679,1.679,0,0,1,1.635,1.873,1.868,1.868,0,0,1-.025.346Zm2.112-.517a1.033,1.033,0,0,0-.995-1.176,1.193,1.193,0,0,0-1.109,1.176Z" transform="translate(-313.282 -567.1)" fill="#fff"/>
      <path id="Path_7806" data-name="Path 7806" d="M367.34,573.053a1.9,1.9,0,0,1-1.906-2.046,1.947,1.947,0,0,1,1.972-2.112,1.881,1.881,0,0,1,1.914,2.038,1.949,1.949,0,0,1-1.972,2.12Zm.024-.542c.69,0,1.208-.649,1.208-1.554,0-.674-.336-1.52-1.191-1.52s-1.216.789-1.216,1.545c0,.871.493,1.529,1.191,1.529Z" transform="translate(-332.938 -567.128)" fill="#fff"/>
      <path id="Path_7807" data-name="Path 7807" d="M386.266,570.062c0-.42-.009-.748-.034-1.077h.642l.041.649h.017a1.474,1.474,0,0,1,1.314-.739c.55,0,1.407.329,1.407,1.693v2.374h-.724v-2.293c0-.64-.238-1.183-.921-1.183a1.044,1.044,0,0,0-.969.74,1.084,1.084,0,0,0-.049.337v2.4h-.722Z" transform="translate(-349.013 -567.128)" fill="#fff"/>
      <path id="Path_7808" data-name="Path 7808" d="M413.1,565.1v.953h1.034v.551H413.1v2.145c0,.493.14.772.542.772a1.348,1.348,0,0,0,.42-.049l.032.55a1.964,1.964,0,0,1-.64.1,1.034,1.034,0,0,1-.782-.3,1.56,1.56,0,0,1-.279-1.044V566.6h-.616v-.551h.616v-.731Z" transform="translate(-368.754 -564.194)" fill="#fff"/>
      <path id="Path_7809" data-name="Path 7809" d="M425.557,561.117h.723V563.6h.016a1.284,1.284,0,0,1,.518-.509,1.405,1.405,0,0,1,.74-.206c.534,0,1.387.329,1.387,1.7v2.366h-.722v-2.284c0-.649-.239-1.184-.921-1.184a1.046,1.046,0,0,0-.969.723.872.872,0,0,0-.05.345v2.4h-.723Z" transform="translate(-379.406 -561.117)" fill="#fff"/>
      <path id="Path_7810" data-name="Path 7810" d="M444.884,571.068a1.268,1.268,0,0,0,1.355,1.38,2.745,2.745,0,0,0,1.1-.2l.131.509a3.24,3.24,0,0,1-1.332.255,1.855,1.855,0,0,1-1.956-2,1.94,1.94,0,0,1,1.874-2.153,1.679,1.679,0,0,1,1.636,1.873,1.844,1.844,0,0,1-.025.346Zm2.112-.517a1.033,1.033,0,0,0-.994-1.176,1.192,1.192,0,0,0-1.109,1.176Z" transform="translate(-393.803 -567.1)" fill="#fff"/>
      <path id="Path_7811" data-name="Path 7811" d="M470.865,562.914a.464.464,0,0,1,.016-.928.444.444,0,0,1,.46.46.453.453,0,0,1-.469.468Zm-.346,4.708v-3.977h.723v3.977Z" transform="translate(-414.073 -561.789)" fill="#fff"/>
      <path id="Path_7812" data-name="Path 7812" d="M479.275,562.352a7.43,7.43,0,0,1,1.372-.115,2.268,2.268,0,0,1,1.552.461,1.492,1.492,0,0,1,.494,1.158,1.6,1.6,0,0,1-.436,1.183,2.291,2.291,0,0,1-1.692.608,2.516,2.516,0,0,1-.575-.049v2.218h-.715Zm.715,2.662a2.441,2.441,0,0,0,.592.058c.871,0,1.389-.427,1.389-1.175s-.518-1.093-1.306-1.093a3.536,3.536,0,0,0-.674.058Z" transform="translate(-420.923 -561.983)" fill="#fff"/>
      <path id="Path_7813" data-name="Path 7813" d="M498.053,561.117h.723V563.6h.016a1.287,1.287,0,0,1,.517-.509,1.41,1.41,0,0,1,.74-.206c.534,0,1.388.329,1.388,1.7v2.366h-.723v-2.284c0-.649-.238-1.184-.921-1.184a1.048,1.048,0,0,0-.969.723.872.872,0,0,0-.049.345v2.4h-.723Z" transform="translate(-435.437 -561.117)" fill="#fff"/>
      <path id="Path_7814" data-name="Path 7814" d="M518.59,573.053a1.9,1.9,0,0,1-1.906-2.046,1.947,1.947,0,0,1,1.973-2.112,1.88,1.88,0,0,1,1.914,2.038,1.949,1.949,0,0,1-1.971,2.12Zm.025-.542c.689,0,1.208-.649,1.208-1.554,0-.674-.337-1.52-1.192-1.52s-1.216.789-1.216,1.545c0,.871.493,1.529,1.191,1.529Z" transform="translate(-449.836 -567.128)" fill="#fff"/>
      <path id="Path_7815" data-name="Path 7815" d="M537.519,570.062c0-.42-.008-.748-.033-1.077h.641l.041.649h.017a1.474,1.474,0,0,1,1.315-.739c.55,0,1.4.329,1.4,1.693v2.374h-.722v-2.293c0-.64-.238-1.183-.921-1.183a1.043,1.043,0,0,0-.969.74,1.069,1.069,0,0,0-.051.337v2.4h-.722Z" transform="translate(-465.914 -567.128)" fill="#fff"/>
      <path id="Path_7816" data-name="Path 7816" d="M556.959,571.068a1.268,1.268,0,0,0,1.356,1.38,2.735,2.735,0,0,0,1.1-.2l.132.509a3.241,3.241,0,0,1-1.331.255,1.855,1.855,0,0,1-1.956-2,1.94,1.94,0,0,1,1.873-2.153,1.679,1.679,0,0,1,1.635,1.873,1.876,1.876,0,0,1-.024.346Zm2.112-.517a1.033,1.033,0,0,0-.995-1.176,1.192,1.192,0,0,0-1.109,1.176Z" transform="translate(-480.424 -567.1)" fill="#fff"/>
    </g>
    <g id="Group_7726" data-name="Group 7726" transform="translate(125.041 549.569)">
      <path id="Path_7817" data-name="Path 7817" d="M226.555,603.32l-4.872,14.341h2.231l1.455-4.4h4.717l1.5,4.4h2.293l-4.893-14.341Zm1.156,2.358c.164.64.342,1.3.57,2.023l1.313,3.8h-3.737l1.3-3.827C227.349,607.056,227.536,606.385,227.711,605.678Z" transform="translate(-221.683 -603.092)" fill="#fff"/>
      <path id="Path_7818" data-name="Path 7818" d="M284.334,619.69a4.059,4.059,0,0,0-3.449,1.655l-.087-1.427h-1.985l.012.183c.058.888.083,1.867.083,3.271v11.054h2.169v-5.158a3.811,3.811,0,0,0,2.966,1.274,4.475,4.475,0,0,0,3.288-1.4,5.93,5.93,0,0,0,1.452-4.174,5.771,5.771,0,0,0-1.261-3.811A4.127,4.127,0,0,0,284.334,619.69Zm-.541,1.8c1.934,0,2.8,1.792,2.8,3.567,0,2.291-1.1,3.713-2.882,3.713a2.63,2.63,0,0,1-2.556-2.013,2.775,2.775,0,0,1-.077-.7v-1.745a3.242,3.242,0,0,1,.069-.536c.011-.059.022-.119.031-.176A2.747,2.747,0,0,1,283.793,621.486Z" transform="translate(-265.838 -615.744)" fill="#fff"/>
      <path id="Path_7819" data-name="Path 7819" d="M333.529,619.69a4.061,4.061,0,0,0-3.45,1.655l-.086-1.427h-1.984l.011.183c.058.889.083,1.867.083,3.271v11.054h2.17v-5.158a3.808,3.808,0,0,0,2.965,1.274,4.479,4.479,0,0,0,3.289-1.4,5.935,5.935,0,0,0,1.451-4.174,5.772,5.772,0,0,0-1.261-3.811A4.126,4.126,0,0,0,333.529,619.69Zm-.54,1.8c1.933,0,2.8,1.792,2.8,3.567,0,2.291-1.105,3.713-2.882,3.713a2.63,2.63,0,0,1-2.556-2.013,2.781,2.781,0,0,1-.076-.7v-1.745a3.136,3.136,0,0,1,.069-.537c.01-.058.021-.117.031-.174A2.746,2.746,0,0,1,332.99,621.486Z" transform="translate(-303.86 -615.744)" fill="#fff"/>
      <path id="Path_7820" data-name="Path 7820" d="M396.368,608.619c-2.025-.784-2.674-1.4-2.674-2.541,0-.959.762-1.927,2.466-1.927a4.93,4.93,0,0,1,2.547.639l.184.114.612-1.811-.121-.071a6.289,6.289,0,0,0-3.16-.709c-2.767,0-4.7,1.634-4.7,3.972,0,1.886,1.21,3.2,3.809,4.148,1.841.688,2.526,1.393,2.526,2.6,0,1.368-1.057,2.217-2.758,2.217a5.94,5.94,0,0,1-3.127-.887l-.188-.121L391.2,616.1l.107.071a7.427,7.427,0,0,0,3.667.943c3.729,0,5.052-2.274,5.052-4.221C400.028,610.883,398.968,609.645,396.368,608.619Z" transform="translate(-352.701 -602.314)" fill="#fff"/>
      <path id="Path_7821" data-name="Path 7821" d="M434.715,609.816l-2.128.668v1.8h-1.558v1.735h1.558v5.312a4.059,4.059,0,0,0,.751,2.753,2.782,2.782,0,0,0,2.1.825,5.1,5.1,0,0,0,1.677-.259l.121-.043-.1-1.737-.208.064a3.268,3.268,0,0,1-1.009.117c-.841,0-1.2-.532-1.2-1.781v-5.249h2.617v-1.735h-2.617Z" transform="translate(-383.482 -608.112)" fill="#fff"/>
      <path id="Path_7822" data-name="Path 7822" d="M464.912,619.69c-3.036,0-5.156,2.266-5.156,5.509,0,3.146,2.052,5.343,4.99,5.343h.02c2.484,0,5.156-1.73,5.156-5.529a5.483,5.483,0,0,0-1.383-3.838A4.828,4.828,0,0,0,464.912,619.69Zm-.062,1.713c1.952,0,2.84,1.9,2.84,3.672,0,2.175-1.212,3.754-2.882,3.754h-.021c-1.646,0-2.84-1.552-2.84-3.691C461.947,623.279,462.844,621.4,464.849,621.4Z" transform="translate(-405.685 -615.744)" fill="#fff"/>
      <path id="Path_7823" data-name="Path 7823" d="M515.4,619.79l-.13-.033a2.087,2.087,0,0,0-.54-.067,3.1,3.1,0,0,0-2.721,1.746l-.064-1.519H510l.012.183c.058.859.082,1.823.082,3.125l-.02,7.088h2.17v-5.53a5.671,5.671,0,0,1,.059-.841,2.4,2.4,0,0,1,2.283-2.187,5.634,5.634,0,0,1,.583.036l.232.024Z" transform="translate(-444.514 -615.744)" fill="#fff"/>
      <path id="Path_7824" data-name="Path 7824" d="M538.561,619.6c-2.889,0-4.907,2.308-4.907,5.612a4.852,4.852,0,0,0,5.114,5.239,8.329,8.329,0,0,0,3.436-.659l.13-.059-.417-1.616-.182.073a6.719,6.719,0,0,1-2.719.486,3.017,3.017,0,0,1-3.25-3.146l7,.021.028-.138a4.8,4.8,0,0,0,.066-.906C542.865,622.242,541.738,619.6,538.561,619.6Zm-.145,1.651a2.141,2.141,0,0,1,1.593.608,3.085,3.085,0,0,1,.747,2.02h-4.948A2.768,2.768,0,0,1,538.416,621.25Z" transform="translate(-462.799 -615.673)" fill="#fff"/>
    </g>
  </g>
</svg>
