<svg xmlns="http://www.w3.org/2000/svg" width="42.906" height="39.618" viewBox="0 0 42.906 39.618">
  <g id="Group_8048" data-name="Group 8048" transform="translate(-373.867 -197.679)">
    <path id="Path_8497" data-name="Path 8497" d="M374.68,214.92a6.557,6.557,0,0,1,1.248-.6,18.935,18.935,0,0,1,2.687-.745,50.293,50.293,0,0,1,5.526-.838c2.45-.248,4.91-.4,7.373-.47v5.7c1.192.031,2.394.052,3.618.052h.456c1.432,0,2.84-.028,4.232-.072v-5.659c2.231.08,4.459.223,6.681.448a50,50,0,0,1,5.526.838,19.1,19.1,0,0,1,2.687.744,6.593,6.593,0,0,1,1.248.6,1.5,1.5,0,0,1,.813,1.059,1.543,1.543,0,0,0-.754-1.144,6.545,6.545,0,0,0-1.238-.687,19.168,19.168,0,0,0-2.677-.9,49.411,49.411,0,0,0-5.543-1.038c-2.238-.295-4.489-.462-6.742-.563v-5.66h12.11v-8.3H379.4v8.3h12.11v5.632c-2.485.1-4.966.267-7.435.593a49.059,49.059,0,0,0-5.542,1.038,19.059,19.059,0,0,0-2.677.9,6.512,6.512,0,0,0-1.239.686,1.546,1.546,0,0,0-.754,1.144A1.5,1.5,0,0,1,374.68,214.92Z" transform="translate(0 0)" fill="#fff"/>
    <path id="Path_8498" data-name="Path 8498" d="M415.929,213.476a6.481,6.481,0,0,1-1.257.553,19.891,19.891,0,0,1-2.688.672c-1.82.35-3.67.557-5.518.732-3.7.322-7.426.456-11.148.449s-7.443-.13-11.146-.451c-1.848-.176-3.7-.383-5.518-.732a19.888,19.888,0,0,1-2.688-.672,6.438,6.438,0,0,1-1.257-.553,1.476,1.476,0,0,1-.843-1.015,1.571,1.571,0,0,0,.724,1.187,6.57,6.57,0,0,0,1.231.737,18.543,18.543,0,0,0,2.674.978,43.53,43.53,0,0,0,5.55,1.143,72.265,72.265,0,0,0,7.467.665v16.609h8.3V217.136c2.264-.113,4.526-.3,6.775-.634a43.042,43.042,0,0,0,5.549-1.143,18.266,18.266,0,0,0,2.675-.977,6.672,6.672,0,0,0,1.231-.735,1.571,1.571,0,0,0,.724-1.187A1.476,1.476,0,0,1,415.929,213.476Z" transform="translate(0 3.519)" fill="#fff"/>
  </g>
</svg>
