<svg xmlns="http://www.w3.org/2000/svg" width="16.386" height="14.969" viewBox="0 0 16.386 14.969">
  <g id="Group_8108" data-name="Group 8108" transform="translate(-108.087 -57.923)">
    <path id="Path_8658" data-name="Path 8658" d="M753.388,57.923h1.64a1.019,1.019,0,0,1,.936.615l.1.242h.495a1.52,1.52,0,0,1,1.52,1.52v5.59A1.08,1.08,0,0,1,757,66.97H751.55a1.08,1.08,0,0,1-1.08-1.08V60.841A2.918,2.918,0,0,1,753.388,57.923Z" transform="translate(-633.612 0)" fill="#475d6d"/>
    <path id="Path_8659" data-name="Path 8659" d="M1024.483,58.78h-.495l-.1-.242a1.019,1.019,0,0,0-.936-.615h-.849a1.019,1.019,0,0,1,.936.615l.1.242h.495a1.52,1.52,0,0,1,1.52,1.52v5.59a1.08,1.08,0,0,1-1.08,1.08h.849a1.08,1.08,0,0,0,1.08-1.08V60.3A1.52,1.52,0,0,0,1024.483,58.78Z" transform="translate(-901.531 0)" fill="#2c3f4f"/>
    <path id="Path_8660" data-name="Path 8660" d="M135.827,66.034l-3.11-.74a.982.982,0,0,0-.921.261l-.884.884h-.375a.982.982,0,0,0-.982.982s-.05,1.2,0,1.6c.059.472.467,1.845.467,1.845h6.634l1.243-4.92a.272.272,0,0,0-.433-.279h0A1.918,1.918,0,0,1,135.827,66.034Z" transform="translate(-21.153 -7.244)" fill="#f9dc6a"/>
    <path id="Path_8661" data-name="Path 8661" d="M590.145,90.3h0a1.916,1.916,0,0,1-.418.253c0,.009,0,.018,0,.027l-1.243,4.92h.856l1.243-4.92A.272.272,0,0,0,590.145,90.3Z" transform="translate(-473.832 -31.878)" fill="#e5ac51"/>
    <path id="Path_8662" data-name="Path 8662" d="M214.464,784.063v3.309h-6v-3.091h-8.922V782.3H212.7A1.768,1.768,0,0,1,214.464,784.063Z" transform="translate(-90.203 -714.481)" fill="#2bb4f3"/>
    <g id="Group_8104" data-name="Group 8104" transform="translate(109.563 67.814)">
      <path id="Path_8663" data-name="Path 8663" d="M1108.444,782.291h-.757a1.768,1.768,0,0,1,1.768,1.768v3.31h.757v-3.31A1.768,1.768,0,0,0,1108.444,782.291Z" transform="translate(-1095.514 -782.291)" fill="#1687c4"/>
      <path id="Path_8664" data-name="Path 8664" d="M223.364,784.278v-.218a1.768,1.768,0,0,0-1.768-1.768h-3.655a1.768,1.768,0,0,0-1.768,1.768v.218Z" transform="translate(-216.173 -782.291)" fill="#1687c4"/>
    </g>
    <path id="Path_8665" data-name="Path 8665" d="M951.258,652.18v2.147c0,.588,1.065,1.182,1.065,1.182s1.065-.594,1.065-1.182V652.18Z" transform="translate(-831.658 -586.143)" fill="#f2a077"/>
    <path id="Path_8666" data-name="Path 8666" d="M764.088,208.658v.314a.663.663,0,0,1-.663.663H763.2a2.84,2.84,0,0,1-3.268,2.657h0a2.84,2.84,0,0,1-2.4-2.657h-.225a.663.663,0,0,1-.663-.663v-.314a.663.663,0,0,1,.663-.663h.221v-1.439c0-.039,0-.077,0-.114a6.359,6.359,0,0,0,4.605-.875,6.264,6.264,0,0,0,.619-.449,2.513,2.513,0,0,1,.45,1.438V208h.221A.663.663,0,0,1,764.088,208.658Z" transform="translate(-639.7 -145.185)" fill="#fca"/>
    <path id="Path_8667" data-name="Path 8667" d="M1001.012,208h-.221v-.587h0c0-.975,0-.9,0-.913a2.511,2.511,0,0,0-.449-1.377,6.272,6.272,0,0,1-.62.449,2.516,2.516,0,0,1,.2.99V208l0,1.64a2.84,2.84,0,0,1-2.4,2.657,2.84,2.84,0,0,0,3.211-2.216h0q.022-.106.037-.215v-.007q.006-.046.01-.093c0-.008,0-.016,0-.024,0-.034.006-.068.007-.1h.225a.663.663,0,0,0,.663-.663v-.314A.663.663,0,0,0,1001.012,208Z" transform="translate(-877.287 -145.185)" fill="#f2a077"/>
    <g id="Group_8105" data-name="Group 8105" transform="translate(119.004 62.617)">
      <path id="Path_8668" data-name="Path 8668" d="M934.982,525.624a1.389,1.389,0,0,1-1.288-.867.24.24,0,1,1,.445-.18.9.9,0,0,0,.2.3.91.91,0,0,0,1.486-.3.24.24,0,0,1,.445.18A1.384,1.384,0,0,1,934.982,525.624Z" transform="translate(-933.321 -522.752)" fill="#475d6d"/>
      <path id="Path_8669" data-name="Path 8669" d="M907.865,402.309a.24.24,0,0,1-.24-.24v-.137a.24.24,0,0,1,.48,0v.137A.24.24,0,0,1,907.865,402.309Z" transform="translate(-907.625 -401.692)" fill="#475d6d"/>
      <path id="Path_8670" data-name="Path 8670" d="M1116.013,402.309a.24.24,0,0,1-.24-.24v-.137a.24.24,0,0,1,.48,0v.137A.24.24,0,0,1,1116.013,402.309Z" transform="translate(-1112.931 -401.692)" fill="#475d6d"/>
    </g>
    <path id="Path_8671" data-name="Path 8671" d="M152.121,784.063v3.309H144.93v-3.309A1.768,1.768,0,0,1,146.7,782.3h3.655A1.768,1.768,0,0,1,152.121,784.063Z" transform="translate(-36.34 -714.481)" fill="#ff5a59"/>
    <path id="Path_8672" data-name="Path 8672" d="M487.426,782.291h-.757a1.768,1.768,0,0,1,1.768,1.768v3.31h.757v-3.31A1.768,1.768,0,0,0,487.426,782.291Z" transform="translate(-373.413 -714.477)" fill="#ce3a4c"/>
    <path id="Path_8673" data-name="Path 8673" d="M330.241,652.18v2.147a1.065,1.065,0,0,0,1.065,1.065h0a1.065,1.065,0,0,0,1.065-1.065V652.18Z" transform="translate(-219.121 -586.143)" fill="#f2a077"/>
    <path id="Path_8674" data-name="Path 8674" d="M143.1,266.308v.314a.663.663,0,0,1-.663.663h-.225a2.829,2.829,0,0,1-.486,1.446h0a2.864,2.864,0,0,1-2.782,1.211h0a2.84,2.84,0,0,1-2.4-2.657h-.225a.663.663,0,0,1-.663-.663v-.314a.663.663,0,0,1,.663-.663h.221V264.6c.762-.051,1.008-.285,1.008-1.035,0,0,.969,1.726,3.8,1.211a7.61,7.61,0,0,0,.869-.214v1.081h.221A.663.663,0,0,1,143.1,266.308Z" transform="translate(-27.188 -202.835)" fill="#fca"/>
    <path id="Path_8675" data-name="Path 8675" d="M379.99,337.723h-.221v-1.081a7.624,7.624,0,0,1-.869.214v.868l0,1.64a2.84,2.84,0,0,1-2.4,2.657,2.869,2.869,0,0,0,2.782-1.211h0a2.7,2.7,0,0,0,.44-1.079h0c.015-.082.027-.166.035-.25v-.01c0-.035.006-.071.008-.107h.225a.663.663,0,0,0,.663-.663v-.314A.663.663,0,0,0,379.99,337.723Z" transform="translate(-264.745 -274.913)" fill="#f2a077"/>
    <g id="Group_8106" data-name="Group 8106" transform="translate(110.525 62.617)">
      <path id="Path_8676" data-name="Path 8676" d="M313.961,525.621a1.389,1.389,0,0,1-1.288-.867.24.24,0,1,1,.445-.18.91.91,0,0,0,1.686,0,.24.24,0,1,1,.445.18A1.384,1.384,0,0,1,313.961,525.621Z" transform="translate(-312.3 -522.749)" fill="#475d6d"/>
      <path id="Path_8677" data-name="Path 8677" d="M286.847,402.309a.24.24,0,0,1-.24-.24v-.137a.24.24,0,0,1,.48,0v.137A.24.24,0,0,1,286.847,402.309Z" transform="translate(-286.607 -401.692)" fill="#475d6d"/>
      <path id="Path_8678" data-name="Path 8678" d="M495,402.309a.24.24,0,0,1-.24-.24v-.137a.24.24,0,0,1,.48,0v.137A.24.24,0,0,1,495,402.309Z" transform="translate(-491.913 -401.692)" fill="#475d6d"/>
    </g>
    <path id="Path_8679" data-name="Path 8679" d="M109.306,762.584h-.6a.616.616,0,0,1-.616-.616v-1.345a.616.616,0,0,1,.616-.616h.6a.453.453,0,0,1,.453.453v1.672A.453.453,0,0,1,109.306,762.584Z" transform="translate(0 -692.496)" fill="#fca"/>
    <g id="Group_8107" data-name="Group 8107" transform="translate(109.538 70.748)">
      <path id="Path_8680" data-name="Path 8680" d="M567.519,997.384v1.9h-.48v-1.9a.24.24,0,1,1,.48,0Z" transform="translate(-562.223 -997.144)" fill="#ce3a4c"/>
      <path id="Path_8681" data-name="Path 8681" d="M214.808,997.384v1.9h-.48v-1.9a.24.24,0,1,1,.48,0Z" transform="translate(-214.328 -997.144)" fill="#ce3a4c"/>
    </g>
    <path id="Path_8682" data-name="Path 8682" d="M1188.541,997.384v1.9h-.48v-1.9a.24.24,0,1,1,.48,0Z" transform="translate(-1065.228 -926.396)" fill="#1687c4"/>
  </g>
</svg>
