<svg xmlns="http://www.w3.org/2000/svg" xmlns:xlink="http://www.w3.org/1999/xlink" width="375" height="427" viewBox="0 0 375 427">
  <defs>
    <linearGradient id="linear-gradient" x1="0.5" x2="0.5" y2="1" gradientUnits="objectBoundingBox">
      <stop offset="0" stop-color="#f94f4f"/>
      <stop offset="1" stop-color="#8e3ddf"/>
    </linearGradient>
    <linearGradient id="linear-gradient-2" y1="0.5" x2="1" y2="0.5" gradientUnits="objectBoundingBox">
      <stop offset="0" stop-color="#5fe0e0"/>
      <stop offset="1" stop-color="#a4e0e0"/>
    </linearGradient>
    <linearGradient id="linear-gradient-3" x1="0.5" y1="1" x2="0.5" gradientUnits="objectBoundingBox">
      <stop offset="0" stop-color="#fff" stop-opacity="0"/>
      <stop offset="1" stop-color="#fff"/>
    </linearGradient>
    <linearGradient id="linear-gradient-4" x1="0" y1="0.5" x2="1" y2="0.5" xlink:href="#linear-gradient-3"/>
    <linearGradient id="linear-gradient-5" y1="0.5" x2="1" y2="0.5" gradientUnits="objectBoundingBox">
      <stop offset="0.014" stop-color="#b3aae1"/>
      <stop offset="1" stop-color="#27aae1"/>
    </linearGradient>
    <clipPath id="clip-path">
      <path id="Path_8003" data-name="Path 8003" d="M124.966,156.146c7.347,1.23,14.125,3.909,19.554,9.338a70.3,70.3,0,0,1,13.594,20.166c3.541,7.572,9.493,13.458,13.273,20.8,2.508,4.872,2.589,11,3.462,16.327,1.282,7.817,1.452,15.643,2.384,23.466.883,7.417,2.839,14.275,2.52,21.971-.485,11.675-5.843,22.928-10.588,33.385-6.876,15.155-2.766,34.559.775,49.929l-82.3-.388L49.766,155.214c14.165.068,22.876.766,37.041.834C98.669,156.1,112.621,154.079,124.966,156.146Z" transform="translate(-49.766 -155.214)" fill="none"/>
    </clipPath>
    <filter id="EMPOW.IO_" x="29" y="36" width="317" height="96" filterUnits="userSpaceOnUse">
      <feOffset dy="3" input="SourceAlpha"/>
      <feGaussianBlur stdDeviation="3" result="blur"/>
      <feFlood/>
      <feComposite operator="in" in2="blur"/>
      <feComposite in="SourceGraphic"/>
    </filter>
    <filter id="HOTTEST_TRENDS_ARE_ALL_HERE" x="29" y="92" width="302" height="41" filterUnits="userSpaceOnUse">
      <feOffset dy="3" input="SourceAlpha"/>
      <feGaussianBlur stdDeviation="3" result="blur-2"/>
      <feFlood/>
      <feComposite operator="in" in2="blur-2"/>
      <feComposite in="SourceGraphic"/>
    </filter>
  </defs>
  <g id="Group_7791" data-name="Group 7791" transform="translate(0 -217)">
    <rect id="Rectangle_3702" data-name="Rectangle 3702" width="375" height="427" transform="translate(0 217)" fill="url(#linear-gradient)"/>
    <g id="Group_7777" data-name="Group 7777" transform="translate(-33.03 244.695)" opacity="0.61">
      <path id="Path_7855" data-name="Path 7855" d="M351.631,389.579c0-1.96,21.728-3.55,48.529-3.55s48.529,1.59,48.529,3.55-21.727,3.551-48.529,3.551S351.631,391.54,351.631,389.579Z" transform="translate(-53.643 -49.231)" fill="#162a3d" fill-rule="evenodd" opacity="0.24" style="mix-blend-mode: multiply;isolation: isolate"/>
      <g id="Group_7734" data-name="Group 7734" transform="translate(37.03 118.976)">
        <path id="Path_7856" data-name="Path 7856" d="M393.544,319c10.73-24.988,12.145-53.729,11.141-81.112-1.2-32.631-10-57.8-29.134-82.8-26.226-34.27-75.364-39.677-110.334-21.238-15.32,8.077-25,22.035-38.838,32.026-15.688,11.325-36.906,19.1-55.6,21.246-19.8,2.275-41.4-3.98-60.641,2.7a96.008,96.008,0,0,0-22.567,11.206,62.577,62.577,0,0,0-8.108,6.623C53.918,232.193,42.187,280.973,52.282,319Z" transform="translate(-39.016 -123.431)" fill="url(#linear-gradient-2)"/>
        <path id="Path_7857" data-name="Path 7857" d="M70.29,332.338c-6.341-.312-8.924-17.621-4.457-21.577,6.427-5.694,15.036,1.637,18.76,6.506-2.652-12.821,8.179-29.974,19.406-35.946,21.366-11.366,26.594,13.317,32.567,27.915.317-14.283,5.782-29.614,20.726-34.269,15.637-4.87,17.846,11.166,17.463,23.115,1.648-6.823,11.124-8.042,15.764-3.427,4.32,4.3,4.482,14.554,4.156,20.337.922-10.878,14.956-15.534,22.044-8.082.446-5.079-.868-10.082,0-15.21,1.763-10.367,9.018-21.214,18.213-26.463,10.067-5.747,21.482-2.069,25.974,8.6,3.824-13.911,10.8-34.348,27.952-36.156,9.523-1,17.265,4.229,22.786,11.391,3.5,4.543,4.752,11.347,8.475,15.314,3.16-10.916,17.837-17.509,28.675-14.316,12.8,3.77,15.872,25.362,18.573,36.187,5.464-2.919,9.511-6.7,16.275-3.654,7.372,3.32,8.311,11.95,5.9,18.891,7.636-2.73,10.484,11.247,10.417,16.248-.053,3.9-3.377,7.963-2.307,11.279Z" transform="translate(-41.559 -142.89)" fill-rule="evenodd" fill="url(#linear-gradient-3)"/>
        <path id="Path_7858" data-name="Path 7858" d="M408.03,349.787a11.306,11.306,0,0,0-.15-1.534c-1.634.311-3.683-.525-5.388-.05a9.087,9.087,0,0,0,1.216-9.936c-2.349.726-4.534.859-6.4,2.964,1.095-2.586.518-5.173.635-7.907-3.57.552-6.488,4.186-8.762,7.373.761-3.648,1.037-7.4-.217-10.71-6.343,1.4-10.544,6.266-12.571,12.2.957-4.93,1.983-11.116.028-15.7-5.607-.43-9.012,4.516-11.414,9.046-.208-4.28-.034-8.749-.218-13.044a24.4,24.4,0,0,0-5.139,8.894c1.843-5.716,2-12.963-.507-18.249-8.744-.257-13.546,14.569-14.252,21.447.283-9.309,1.782-20.755-.794-29.615-12.023-.323-19.505,13.649-22.52,25.764a15.424,15.424,0,0,0-1.61.753c-.174-8.954-1.267-19.8-8.284-19.538-5.709.211-9.41,7.161-11.761,14.132-.012-1.2-.033-2.4-.085-3.588a20.432,20.432,0,0,0-3.776,5.628q-.081-1.034-.206-2.056a24.135,24.135,0,0,0-1.664-12.927c-7.68-.226-12.319,11.186-13.812,18.625-.09-.246-.183-.489-.289-.724.44-8.556,1.311-18.305-.945-26.069-12.694-.341-20.332,15.254-22.988,27.773q-.567-.943-1.155-1.86c-.213-8.829-1.412-19.189-8.272-18.934-9.519.353-13.459,19.442-14.864,26.122-1.019-6.495.051-13.775-3.225-19.748-8.26,2.352-11.046,17.676-11.021,24.889-1.5-4.185-.455-12.107-4.816-15.125a24.157,24.157,0,0,0-4.953,13.881,48.39,48.39,0,0,0-4.215-15.339c-5.671,2.745-2.961,15.123-3.421,20.673a40.667,40.667,0,0,1-3.985-5.778,8.474,8.474,0,0,0-.941-3.262c-.269.083-.535.157-.8.228-3.827-6.813-7.752-14.27-13.99-16.944a59.2,59.2,0,0,0,3.686,14.931,34.536,34.536,0,0,0-3.427,4.215c.761-3.648,1.037-7.4-.216-10.71-6.343,1.4-10.544,6.266-12.571,12.2.957-4.93,1.982-11.116.028-15.7-5.607-.43-9.012,4.516-11.414,9.046-.208-4.28-.034-8.749-.218-13.044a24.39,24.39,0,0,0-5.139,8.894c1.843-5.716,2-12.963-.507-18.249-8.744-.257-13.546,14.569-14.252,21.447.283-9.309,1.781-20.755-.794-29.615-15.632-.419-23.6,23.328-24.032,35.736-.379-7.3,1.537-29.124-8.382-28.757C93.741,312.307,89.8,331.4,88.4,338.076c-1.019-6.495.051-13.775-3.224-19.748C76.912,320.68,74.126,336,74.15,343.217c-1.5-4.185-.455-12.107-4.816-15.125a24.152,24.152,0,0,0-4.954,13.881,48.367,48.367,0,0,0-4.215-15.339c-5.671,2.745-2.961,15.123-3.422,20.673C50.445,340,46.28,325.517,37.03,321.551a63.838,63.838,0,0,0,10.61,28.236Z" transform="translate(-37.03 -154.385)" fill="#3d999e"/>
      </g>
      <path id="Path_7859" data-name="Path 7859" d="M90.045,102.582c15.052-3.495,30.657-.862,45.9-3.612,13.877-2.505,26.4-2.588,39.8,2.586A135.625,135.625,0,0,1,223.5,132.325c9.009,8.983,15.454,15.158,28.553,14.053,6.663-.562,12.118-.261,17.918,3.155,8.607,5.071,9.607,9.816,11.96,18.639,1.455,5.457,4.784,13.243,10.41,15.644,6.587,2.812,12.536-1.188,17.238,6.138.193,5.333-2.068,7.771-4.565,12.081-14.487-8.031-19.384,9.581-31.88,12.857-9.657,2.532-19.075.36-27.065-5.363-10.14-7.264-17.683-14.192-30.957-10.734-21.958,5.721-33.729,39.131-59.457,31.36-7.282-2.2-13.541-7.264-20.99-9.318a73.583,73.583,0,0,0-22.485-2.137c-14.382.64-23.822,9.875-36.517,15.492Z" transform="translate(-6.588)" fill="url(#linear-gradient-4)"/>
      <g id="Group_7740" data-name="Group 7740" transform="translate(212.206 186.682)">
        <path id="Path_7860" data-name="Path 7860" d="M322.773,376.7c0,.724-16.45,1.311-36.741,1.311s-36.742-.586-36.742-1.311,16.45-1.311,36.742-1.311S322.773,375.973,322.773,376.7Z" transform="translate(-248.399 -234.098)" fill="#162a3d" fill-rule="evenodd" opacity="0.24" style="mix-blend-mode: multiply;isolation: isolate"/>
        <g id="Group_7735" data-name="Group 7735" transform="translate(9.612 59.505)">
          <path id="Path_7861" data-name="Path 7861" d="M268.878,367.956a26.087,26.087,0,0,1-4.021-2.615,4.466,4.466,0,0,0-1.9-1.222c-2.756-.437-2.767,4.395-3.084,6.074a1.137,1.137,0,0,0,.907,1.583,46.251,46.251,0,0,0,10.832,2.592c.951.129,3.372.9,4.229.025C278.107,372.074,270,368.554,268.878,367.956Z" transform="translate(-259.804 -291.677)" fill="#1390b3" fill-rule="evenodd"/>
          <path id="Path_7862" data-name="Path 7862" d="M266.011,357.124a3.14,3.14,0,0,1-3.262-2.2,8.337,8.337,0,0,1-.069-4.233,76.039,76.039,0,0,1,5.785-18.039c1.282-2.892,2.664-5.739,4.055-8.58,1.379-2.816,1.769-5.494,2.6-8.519a11.016,11.016,0,0,1,3.034-5.441,5.6,5.6,0,0,1,5.856-1.167c2.3,1.055,3.258,3.963,2.855,6.461-.406,2.517-1.9,4.313-3.067,6.481-1.079,2.012-1.815,4.186-2.981,6.183q-5.252,8.988-9.836,18.347Q268.386,351.719,266.011,357.124Z" transform="translate(-260.253 -282.206)" fill="#fba58c" fill-rule="evenodd"/>
          <path id="Path_7863" data-name="Path 7863" d="M275.1,303.3c-.169.426-.324.859-.459,1.3a5.432,5.432,0,0,0,.162,4.409c1,1.617,3.226,2.174,4.885,2.85a38.479,38.479,0,0,0,6.19,2.091,5.57,5.57,0,0,0,3.626-.068c1.477-.717,2.08-2.469,2.541-4.045q2.758-9.436,5.519-18.873c.589-2.012,1.656-4.5.513-6.5-.99-1.727-3.248-2.439-4.591-3.837-2.321-2.415-4.4-5.362-7.76-2.927-1.48,1.073-3.529,2.084-4.622,3.546a11.726,11.726,0,0,0-1.968,5.8c-.3,2.856-.07,5.782-.783,8.564C277.658,298.316,276.121,300.715,275.1,303.3Z" transform="translate(-262.268 -276.792)" fill="#0b69e3" fill-rule="evenodd"/>
          <path id="Path_7864" data-name="Path 7864" d="M279.419,316.146a5.8,5.8,0,0,1,.885,5.65,18.553,18.553,0,0,1-3.035,5.138,143.187,143.187,0,0,0-15.078,25.732,4.686,4.686,0,0,0-.594,3.157c.372,1.272,1.7,1.976,2.895,2.541l8.516,4.009c.888.418,1.992.822,2.79.248,1.043-.751.546-2.471-.414-3.325-1.379-1.226-3.3-1.555-5.048-2.16s-3.565-1.793-3.79-3.624a5.978,5.978,0,0,1,1-3.4q8.815-16.637,17.86-33.15a2.47,2.47,0,0,0,3.135-.805,6.662,6.662,0,0,0,1.053-3.355c.654-5.688.382-11.761-2.569-16.666-1.3-2.168-3.862-3.526-5.327-.854a7.21,7.21,0,0,0-.249,5.6A19.855,19.855,0,0,1,279.419,316.146Z" transform="translate(-260.092 -279.691)" fill="#8a7f76" fill-rule="evenodd" opacity="0.45" style="mix-blend-mode: multiply;isolation: isolate"/>
        </g>
        <g id="Group_7736" data-name="Group 7736" transform="translate(28.244 62.087)">
          <path id="Path_7865" data-name="Path 7865" d="M321.291,367.072a26.1,26.1,0,0,1-4.79.259,4.484,4.484,0,0,0-2.259.135c-2.483,1.272.356,5.182,1.09,6.725a1.139,1.139,0,0,0,1.666.743,46.2,46.2,0,0,0,10.277-4.293c.844-.456,3.255-1.261,3.431-2.473C331.172,364.956,322.545,366.895,321.291,367.072Z" transform="translate(-287.548 -294.641)" fill="#1390b3" fill-rule="evenodd"/>
          <path id="Path_7866" data-name="Path 7866" d="M307.418,317.4a3.245,3.245,0,0,1,.213,1.589c-.284,1.385-2.479,1.772-3.641,2.013a5.974,5.974,0,0,1-4.785-1.3,15.937,15.937,0,0,1-3.848-5.47c-1.321-2.59-2.49-5-4-7.46a29.277,29.277,0,0,1-3.473-9.9c-.618-3.394-.671-7.1,1.085-10.069,1.14-1.927,5.082-5.073,7.494-3.457,1.966,1.316,2.6,7.163,3.262,9.294Q303.57,305.02,307.418,317.4Z" transform="translate(-283.157 -280.415)" fill="#fba58c" fill-rule="evenodd"/>
          <path id="Path_7867" data-name="Path 7867" d="M315.37,360.505a3.139,3.139,0,0,1-3.932.148,8.348,8.348,0,0,1-2.551-3.378,74.307,74.307,0,0,1-5.76-16.425c-.64-2.752-.789-5.771-1.6-8.458-.775-2.572-1.987-4.956-2.531-7.664a1.477,1.477,0,0,1,0-.857c.446-1.061,3.286-.967,4.221-1.042a8.484,8.484,0,0,1,3.147.343c3.036.852,3.5,2.172,3.826,5.138q1.058,10.357,2.874,20.618Q314.1,354.739,315.37,360.505Z" transform="translate(-285.109 -287.218)" fill="#fba58c" fill-rule="evenodd"/>
          <path id="Path_7868" data-name="Path 7868" d="M307.43,323.562A19.875,19.875,0,0,1,309,330.3c.553,4.517,2.234,11.784-4.064,13.165.7,4.546,2.75,8.759,4.771,12.893l3.752,7.675a2.625,2.625,0,0,0,4.222,1.363l9.278-3.81a5.132,5.132,0,0,0,1.759-1.014,1.751,1.751,0,0,0,.476-1.863c-.414-.932-1.675-1.03-2.693-.986l-10.423.441c-1.128.048-1.778-10.067-2.074-11.279-1.1-4.508-1.4-9.37-2.069-13.963-.438-2.984-.425-6.656-1.6-9.43-1.159-2.731-1.894-5.658-2.852-8.482.538,1.586-3.23,4.111-4.045,4.975A8.3,8.3,0,0,1,307.43,323.562Z" transform="translate(-285.876 -285.89)" fill="#8a7f76" fill-rule="evenodd" opacity="0.45" style="mix-blend-mode: multiply;isolation: isolate"/>
          <path id="Path_7869" data-name="Path 7869" d="M291.039,309.4l.053.16c.157.478,1.183,5.48,1.184,5.48,1.945.342,3.867-.434,5.763-.769a30,30,0,0,0,6.643-2.033,5.56,5.56,0,0,0,2.888-2.192c.771-1.451.225-3.219-.333-4.765q-3.335-9.248-6.67-18.5c-.711-1.972-1.318-4.614-3.417-5.552-1.817-.811-4.061-.054-5.971-.392-3.459-.611-6.307-1.417-8.024,2.271-1.627,3.5-.771,6.594.574,10.147,1.412,3.733,3.391,7.212,5.1,10.811A47.961,47.961,0,0,1,291.039,309.4Z" transform="translate(-282.266 -279.974)" fill="#0b69e3" fill-rule="evenodd"/>
          <path id="Path_7870" data-name="Path 7870" d="M299.362,311.226c-1.252-3.98-2.554-7.947-3.808-11.911-2.025-6.4-3.81-12.979-6.118-19.29-.245-.054-.486-.089-.727-.12,2.8,10.662,6.852,20.958,10.166,31.468C299.038,311.326,299.2,311.274,299.362,311.226Z" transform="translate(-283.365 -279.904)" fill="#bdd653" fill-rule="evenodd"/>
          <path id="Path_7871" data-name="Path 7871" d="M298.67,291.278c2.475,1.1,4.108,3.506,5.3,5.938a33.123,33.123,0,0,1,2.793,8.355c.449,2.34,1.437,5.676-.718,7.408.863-.694,1.985-.644,2.634-1.781,1.08-1.893-.179-4.761-.722-6.691a211.957,211.957,0,0,0-7.159-20.143c.152.387-4.614,2.51-5.1,2.7-1.04.417-5.428.945-5.957,1.657-1,1.34,2.282,1.533,3.014,1.583A17.146,17.146,0,0,1,298.67,291.278Z" transform="translate(-283.51 -280.664)" fill="#8a7f76" fill-rule="evenodd" opacity="0.45" style="mix-blend-mode: multiply;isolation: isolate"/>
        </g>
        <g id="Group_7737" data-name="Group 7737" transform="translate(40.533 23.624)">
          <path id="Path_7872" data-name="Path 7872" d="M325.615,254.57a3.862,3.862,0,0,1,1.6.306,1.318,1.318,0,0,1,.771,1.326c-.124.648-.835.976-1.457,1.194a77.829,77.829,0,0,1-15.725,3.737c-1.588.206-3.34.324-4.647-.6-4.152-2.938.912-6.605,4.086-6.7C315.317,253.694,320.544,254.337,325.615,254.57Z" transform="translate(-298.362 -236.993)" fill="#ffa78c" fill-rule="evenodd"/>
          <path id="Path_7873" data-name="Path 7873" d="M309.947,247.471a4.2,4.2,0,0,1,.159,2.451A3.88,3.88,0,0,1,307.8,251.9c-3.382,1.49-7.531,2.1-10.632.085-.611-.4,2.214-8.1,2.521-8.973.95-2.7,1.571-6.641,3.748-8.674.808-.754,2.171-1.217,3.032-.288,1,1.074.756,3.354,1.118,4.7C308.365,241.663,309.16,244.566,309.947,247.471Z" transform="translate(-297.081 -233.534)" fill="#e34529" fill-rule="evenodd"/>
          <path id="Path_7874" data-name="Path 7874" d="M310.366,253.274c-.026.511-.118,1.023-.179,1.532a3.786,3.786,0,0,0,.3,2.363c.664,1.146,2.319,1.1,3.468,1.124a19.226,19.226,0,0,0-3.735.539,9.914,9.914,0,0,1-4.178-.257c-1.931-.44-2.566-1.419-2.806-3.286a35.749,35.749,0,0,1-.426-7.86,12.009,12.009,0,0,1,2.926-7.168c2.469-2.619,3.291.956,3.223,2.926-.05,1.447-.09,2.921-.007,4.366a15.678,15.678,0,0,0,1.1,3.823,6.514,6.514,0,0,1,.279,1.018A4.17,4.17,0,0,1,310.366,253.274Z" transform="translate(-298.043 -234.524)" fill="#8a7f76" fill-rule="evenodd" opacity="0.45" style="mix-blend-mode: multiply;isolation: isolate"/>
          <path id="Path_7875" data-name="Path 7875" d="M332.83,249.308c.175.67-1.608,3.693-1.873,4.25a3.415,3.415,0,0,1-.81,1.214,1.047,1.047,0,0,1-1.637-.179c-.328-.664.377-1.364.737-1.886.715-1.041,1.642-1.866,2.337-2.913a1.87,1.87,0,0,1,.486-.554.635.635,0,0,1,.7-.035A.176.176,0,0,1,332.83,249.308Z" transform="translate(-302.426 -236.191)" fill="#ffa78c" fill-rule="evenodd"/>
          <path id="Path_7876" data-name="Path 7876" d="M336.591,250.19a.714.714,0,0,1,.615.053.512.512,0,0,1-.066.745,1.479,1.479,0,0,1-.8.266.763.763,0,0,1,.206.888c-.1.311-.309.581-.415.892-.167.49-.071,1.04-.231,1.533-.319.985-1.475,1.378-2.479,1.634l-2.629.67a1.9,1.9,0,0,1-.744.088c-2.232-.33.065-3.242.932-3.811A18.81,18.81,0,0,1,336.591,250.19Z" transform="translate(-302.542 -236.367)" fill="#ffa78c" fill-rule="evenodd"/>
        </g>
        <path id="Path_7877" data-name="Path 7877" d="M300.951,274.677c.11-1.355-.368-3.142-.254-4.225.21-2,.924-3.918,1.209-5.909q.7-4.9,1.1-9.846.6-7.51.489-15.054c-.043-2.9.313-6.871-1.686-9.3-1.907-2.312-5.457-2.464-8.177-2.148-3.261.381-7.195.614-9.983,2.538-2.4,1.654-2.378,6.223-2.361,8.8.019,2.857.258,5.78.082,8.632a108.979,108.979,0,0,1-5,26.585,10.915,10.915,0,0,0,6.446,4.417,18.576,18.576,0,0,0,7.329.566c2.328-.355,3.974-2.267,6.317-2.623.732-.112,1.48-.089,2.209-.212a2.884,2.884,0,0,0,1.906-1.025A2.378,2.378,0,0,0,300.951,274.677Z" transform="translate(-253.016 -208.98)" fill="#ff4d2e" fill-rule="evenodd"/>
        <path id="Path_7878" data-name="Path 7878" d="M305.821,245.229a25.547,25.547,0,0,1-16.593,4.448c-.269-.022-.265.344-.058.43,3.548,1.471,7.463-.09,10.836-1.422,1.809-.715,4.091-1.316,5.745-2.531C305.766,245.844,305.792,245.537,305.821,245.229Z" transform="translate(-255.174 -211.904)" fill="#bdd653" fill-rule="evenodd"/>
        <path id="Path_7879" data-name="Path 7879" d="M305.93,247.28a31.781,31.781,0,0,1-7.029,3.764c-2.932.97-5.849,1.024-8.892,1.212-.489.031-.648.774-.121.9,5.16,1.188,11.965-.7,16.013-4.436C305.914,248.237,305.92,247.759,305.93,247.28Z" transform="translate(-255.266 -212.254)" fill="#fff" fill-rule="evenodd" style="mix-blend-mode: overlay;isolation: isolate"/>
        <path id="Path_7880" data-name="Path 7880" d="M278.522,277.631c.109,3.36,1.558,6.871,4.458,8.571-2.772-.888-5.829-2.012-7.117-4.622,1.619-4.442,2.331-9.365,4.033-13.689.635,1.2-.474,3.2-.761,4.431A20.6,20.6,0,0,0,278.522,277.631Z" transform="translate(-252.93 -215.769)" fill="#fff" fill-rule="evenodd" opacity="0.3" style="mix-blend-mode: overlay;isolation: isolate"/>
        <path id="Path_7881" data-name="Path 7881" d="M296.766,262.685c-.146-.25-6.367.156-6.706.576-.845,1.045,2.013,2.884,2.829,3.486a5.445,5.445,0,0,0,3.848,1.065c1.5-.08,4.4-1,5.126,1.019a3.13,3.13,0,0,1,.115,1.109l-.09,5.608a4.98,4.98,0,0,1-.438,2.389,3.346,3.346,0,0,1-2.235,1.5,9.948,9.948,0,0,1-2.761.085c-.564-1.66.781-3.387.709-5.138a4.352,4.352,0,0,0-2.066-3.269c-2.581-1.73-5.965-1.9-8.4-3.906-2.653-2.181-3.7-5.853-3.527-9.283s1.408-6.706,2.625-9.917l1.194-3.146c.481-1.269,2.476-3.989,3.792-1.793.333.557.037,1.447.058,2.053a21.281,21.281,0,0,0,.552,3.52A46.824,46.824,0,0,0,296.766,262.685Z" transform="translate(-254.173 -211.395)" fill="#8a7f76" fill-rule="evenodd" opacity="0.45" style="mix-blend-mode: multiply;isolation: isolate"/>
        <path id="Path_7882" data-name="Path 7882" d="M248.342,240.8a3.789,3.789,0,0,0-.126-.652" transform="translate(-248.216 -211.038)" fill="#ffa78c" fill-rule="evenodd"/>
        <path id="Path_7883" data-name="Path 7883" d="M284.051,234.629c-3.933.912-3.333,8.81-3.69,11.6-.3,2.33-.513,4.639-.684,6.982-.126,1.755-.6,4.011.111,5.677,1.273,2.982,4.368,2.967,5.9.1,1.666-3.121,2.1-7.022,2.579-10.5.37-2.686,1.344-5.335,1.228-8.075-.094-2.216-1.664-5.568-4.175-5.849A3.735,3.735,0,0,0,284.051,234.629Z" transform="translate(-253.534 -210.082)" fill="#ffa78c" fill-rule="evenodd"/>
        <g id="Group_7738" data-name="Group 7738" transform="translate(27.622 44.423)">
          <path id="Path_7884" data-name="Path 7884" d="M301.639,270.57c-.581-.388-1.135-.75-1.554-1.087a52.794,52.794,0,0,1-4.669-4.163c-1.83-1.869-2.921-4.118-5.141-5.7-5.382-3.829-12.725,4.24-6.175,6.754a38.8,38.8,0,0,1,3.919,2.16c3.054,1.6,6.149,3.129,9.229,4.682,1.612.812,3.032,2.206,4.848,2.565,1.534.3,3.243-.528,2.555-2.329C304.227,272.347,302.874,271.4,301.639,270.57Z" transform="translate(-281.517 -258.609)" fill="#ffa78c" fill-rule="evenodd"/>
          <path id="Path_7885" data-name="Path 7885" d="M308.791,275.739a11.318,11.318,0,0,1,2.575.753c1.209.341,2.55.505,3.769.789,1,.233,1.616,1.078.322,1.36-2.057.45-3.967-.318-5.784-1.111-.413-.178-1.355-1.234-1.676-1.244" transform="translate(-286.032 -261.53)" fill="#fba58c" fill-rule="evenodd"/>
          <path id="Path_7886" data-name="Path 7886" d="M314.693,280.564a3.865,3.865,0,0,0-2.706-2.14c-1.219-.361-1.922-1.429-3.116-1.848-.756-.265-2.966-.007-3.349.861-.287.65.532,1.728.786,2.3a12.674,12.674,0,0,0,2.334,4.049c.285.314,1.342,1.977,2,1.683.868-.385,2.466-.516,3.315-1.291a3.8,3.8,0,0,0,.577-1.931C314.383,281.887,314.864,280.949,314.693,280.564Z" transform="translate(-285.6 -261.655)" fill="#fba58c" fill-rule="evenodd"/>
          <path id="Path_7887" data-name="Path 7887" d="M310.558,282.825a.5.5,0,0,0-.242.269,1.433,1.433,0,0,0-.041.6l.119,1.571a1.325,1.325,0,0,1-.722-.908c-.114-.384-.143-.791-.274-1.17-.178-.518-1.768-2.6-2.454-2.031-.338.28-.076.823.2,1.165l2.518,3.126a1.352,1.352,0,0,0,1.934.577l2.1-.808a2.08,2.08,0,0,0,.767-.429,2.1,2.1,0,0,0,.413-1.442c.038-1.143.072-2.141-1.268-1.461a8.854,8.854,0,0,1-1.751.729A5.7,5.7,0,0,0,310.558,282.825Z" transform="translate(-285.825 -262.436)" fill="#8a7f76" fill-rule="evenodd" opacity="0.45" style="mix-blend-mode: multiply;isolation: isolate"/>
        </g>
        <path id="Path_7888" data-name="Path 7888" d="M307.175,208.1a.02.02,0,0,0,0-.041" transform="translate(-258.269 -205.566)" fill="none" stroke="#4c3129" stroke-linecap="round" stroke-linejoin="round" stroke-width="1"/>
        <g id="Group_7739" data-name="Group 7739" transform="translate(34.678 1.646)">
          <path id="Path_7889" data-name="Path 7889" d="M294.989,229.965l.073.024a2.619,2.619,0,0,0,1.62.129c.8-.275.767-1.3,1-1.967.3-.857.623-1.683.844-2.568a3.39,3.39,0,0,0,.078-1.628c-.241-.966-1.523-1.6-2.425-1.817a3.385,3.385,0,0,0-1.973.2c-1.611.612-2.023,2.732-2.659,4.173a1.947,1.947,0,0,0-.236,1.344,1.827,1.827,0,0,0,.947.918A15.442,15.442,0,0,0,294.989,229.965Z" transform="translate(-290.234 -209.601)" fill="#ffa78c" fill-rule="evenodd"/>
          <path id="Path_7890" data-name="Path 7890" d="M295.282,224.41a1.5,1.5,0,0,0,.357,1.45c.332.4.771.706,1.124,1.091.275.3,1.471,2.626,1.166,2.951.262-.28,1.453-4.192,1.742-4.057C298.306,225.2,296.685,225.2,295.282,224.41Z" transform="translate(-290.907 -210)" fill="#8a7f76" fill-rule="evenodd" style="mix-blend-mode: multiply;isolation: isolate"/>
          <path id="Path_7891" data-name="Path 7891" d="M303.16,220.9a17.836,17.836,0,0,1,.585-1.7c.412-.991-.027-1.974-.175-2.96a8.51,8.51,0,0,1,.227-2.269c.187-2.26-1.787-5.135-3.714-6.218-2.332-1.309-4.808-.625-7.075.45-1,.477-1.706.725-2.159,1.744a8.987,8.987,0,0,0-.821,3.456,22.718,22.718,0,0,0,.394,4.194,6.762,6.762,0,0,0,.446,1.777c.656,1.438,2.277,1.943,3.442,2.838a17.109,17.109,0,0,0,2.882,1.815c1.574.77,4.146,1.607,5.077-.5A22.516,22.516,0,0,0,303.16,220.9Z" transform="translate(-290.023 -207.038)" fill="#ffa78c" fill-rule="evenodd"/>
          <path id="Path_7892" data-name="Path 7892" d="M302.55,217.168a6.955,6.955,0,0,1,1.219.2,1.555,1.555,0,0,1,.706,1.852,4.539,4.539,0,0,1-1.2,1.777c.57-.113,1.061.505,1.079,1.086a4.3,4.3,0,0,1-.484,1.659,2,2,0,0,0-.165,1.265,21.185,21.185,0,0,0,1.47-3.028,9.844,9.844,0,0,0,.657-3.607,11.6,11.6,0,0,1,.044-3.385,4.832,4.832,0,0,0-.7-3.231c-.314.621-.244,1.272-.659,1.825a5.914,5.914,0,0,1-1.667,1.4c-.654.393-1.808,1.4-.627,2.067A1.212,1.212,0,0,0,302.55,217.168Z" transform="translate(-292.016 -207.843)" fill="#8a7f76" fill-rule="evenodd" opacity="0.45" style="mix-blend-mode: multiply;isolation: isolate"/>
        </g>
        <path id="Path_7893" data-name="Path 7893" d="M299.377,213.144a7.608,7.608,0,0,0,3.579-1.542,3.863,3.863,0,0,0,1.409-3.493,3.988,3.988,0,0,0-3.177-2.924,9.049,9.049,0,0,0-4.507.444,26.141,26.141,0,0,0-5.555,2.44c-.841.493-2.38,1.525-2.361,2.666.017,1.034,1.569,1.372,2.387,1.681A15.251,15.251,0,0,0,299.377,213.144Z" transform="translate(-255.13 -205.054)" fill="#ffcb2e" fill-rule="evenodd"/>
        <path id="Path_7894" data-name="Path 7894" d="M306.586,205.664a.1.1,0,0,0-.148.114,3.414,3.414,0,0,1-.506,4.4c-.947.953-4.292,3.607-5.83,2.566,2.23,1.509,5.984-.151,7.154-2.332A4.068,4.068,0,0,0,306.586,205.664Z" transform="translate(-257.063 -205.154)" fill="#ffcb2e" fill-rule="evenodd"/>
        <path id="Path_7895" data-name="Path 7895" d="M293.822,216.152a5.914,5.914,0,0,1-.146,1.053.747.747,0,0,1-.8.554c-.26-.065-.43-.324-.684-.41-.513-.175-.976.5-.848,1.029a2.8,2.8,0,0,0,.985,1.262,1.727,1.727,0,0,1,.714,1.39c-.112.8-1.242,1.089-1.934.673a3.329,3.329,0,0,1-1.25-2.01A40.446,40.446,0,0,1,288.736,214c-.158-1.064-.258-2.31.518-3.055a2.952,2.952,0,0,1,2.814-.358,9.736,9.736,0,0,1,2.548,1.107c.567.349,2.031,1.2,2.227,1.878.212.744-.888.594-1.428.784A2.368,2.368,0,0,0,293.822,216.152Z" transform="translate(-255.106 -205.967)" fill="#ffcb2e" fill-rule="evenodd"/>
        <path id="Path_7896" data-name="Path 7896" d="M289.815,209.285a3.811,3.811,0,0,0-1.46,3.578,28.665,28.665,0,0,0,1.18,5.845,5.34,5.34,0,0,0,1.369,2.33.755.755,0,0,0,1.023-.057c.258-.345.037-.828-.164-1.209-2.194-4.148-1.691-12.083,3.866-13.241a13.9,13.9,0,0,0-5.145,2.239C290.242,208.94,290.019,209.111,289.815,209.285Z" transform="translate(-255.056 -205.306)" fill="#ffe28a" fill-rule="evenodd" opacity="0.3" style="mix-blend-mode: color-dodge;isolation: isolate"/>
        <path id="Path_7897" data-name="Path 7897" d="M285.358,254.76c.151-.019.3-.039.452-.061a6.137,6.137,0,0,0,2.367-.7c2.2-1.341,1.77-6.284,1.821-8.511.069-3.077-.07-6.507-1.7-9.221-.99-1.719-4.109-2.255-4.219-4.366-.012-.213-.015-.472-.2-.577-.212-.121-.463.066-.635.239-1.185,1.2-2.775,2.408-3.312,4.03a35.1,35.1,0,0,0-.936,4.518,43.093,43.093,0,0,0-.529,5.023c0,2.271-1.291,5.011-1.815,7.24a2.49,2.49,0,0,0-.059,1.374c.3.87,1.4,1.113,2.319,1.181A32.495,32.495,0,0,0,285.358,254.76Z" transform="translate(-253.042 -209.527)" fill="#ff4d2e" fill-rule="evenodd"/>
        <path id="Path_7898" data-name="Path 7898" d="M283.911,230.286c-5.29,3.251-6.122,10.073-6.482,15.733-.139,2.178-.995,3.651-1.538,5.664a3.552,3.552,0,0,0-.024,2.555c1.059,2.463,3.631,1.1,5.533.6-.626-.28-2.433-.638-2.859-1.1s-.125-1.417-.019-1.957c.246-1.251.815-2.464,1-3.721.235-1.632.138-3.308.315-4.949.5-4.593,2.33-8.282,4.814-12.091A.542.542,0,0,0,283.911,230.286Z" transform="translate(-252.891 -209.344)" fill="#fff" fill-rule="evenodd" opacity="0.3" style="mix-blend-mode: overlay;isolation: isolate"/>
      </g>
      <g id="Group_7752" data-name="Group 7752" transform="translate(294.764 180.237)">
        <g id="Group_7741" data-name="Group 7741" transform="translate(30.425 44.997)">
          <path id="Path_7899" data-name="Path 7899" d="M390.557,288.145c-.26.111-.67,1.293-.948,1.575-1.22,1.247-2.524,2.5-4.37,2.8-1.16.185-.947-.714-.2-1.233.9-.63,1.948-1.2,2.824-1.875a9.715,9.715,0,0,1,1.856-1.46c.524-.224.878-.822,1.262-1.242a.7.7,0,0,1,.2.647,1.956,1.956,0,0,1-.274.639l-.548.948" transform="translate(-384.424 -257.53)" fill="#fba58c" fill-rule="evenodd"/>
          <path id="Path_7900" data-name="Path 7900" d="M387.152,295.9c.007-.406-.825-1.126-.815-1.56.027-1.324,1.117-2.48,2.275-3.562.8-.742,1.254-1.861,2.072-2.578,1.382-1.213,3.1-.148,4.478-1.3-.843,2.694-.837,5.61-1.788,8.267-.146.41-.488,2.4-1.235,2.368-.979-.044-2.552.43-3.669,0A4.07,4.07,0,0,1,387.152,295.9Z" transform="translate(-384.75 -257.564)" fill="#fba58c" fill-rule="evenodd"/>
          <path id="Path_7901" data-name="Path 7901" d="M392.851,285.273a.7.7,0,0,0,1.058-.287c4.406-8.056,10.23-16.085,13.269-24.788.854-2.444,1.8-6.876-1.162-8.277-5.118-2.416-7.3,7.094-8.314,10.091-2.328,6.891-4.556,14.081-6.263,21.162-.058.241.144.338.337.315A3.2,3.2,0,0,0,392.851,285.273Z" transform="translate(-385.618 -251.532)" fill="#fba58c" fill-rule="evenodd"/>
        </g>
        <g id="Group_7743" data-name="Group 7743" transform="translate(38.5 73.411)">
          <path id="Path_7902" data-name="Path 7902" d="M441.243,379.289a5.086,5.086,0,0,1-2.494,2.259l-10.667,6a2.494,2.494,0,0,1-2.273.412c-1-.525-.668-1.919-.2-2.885a60.229,60.229,0,0,1,4.9-8.827c1.3-1.836,3.574-4.689,6.231-3.544C438.8,373.6,442.1,377.046,441.243,379.289Z" transform="translate(-399.444 -300.562)" fill="#b853a1" fill-rule="evenodd"/>
          <path id="Path_7903" data-name="Path 7903" d="M404.439,288.017c-2.307-.334-4.08,1.117-5.6,2.231-6.12,4.485-5.009,8.733-3.481,14.819A144.794,144.794,0,0,0,404,329.7c2.59,5.673,6.4,11.071,9.163,16.711,1.778,3.632,2.95,7.429,4.867,11.03.781,1.466,1.54,3.35,3.067,4.451,2.211,1.6,5.242.96,7.417-.244,1.66-.919,4.536-2.573,4.452-4.722a7.955,7.955,0,0,0-1.01-3.091l-5.4-11.085a100.05,100.05,0,0,0-8.585-15.288c-1.516-4.083-3.082-7.878-3.043-12.238.045-5.175,2.848-9.528,3.2-14.577C418.506,295.033,408.522,288.609,404.439,288.017Z" transform="translate(-394.159 -286.158)" fill="#d149b2" fill-rule="evenodd"/>
          <path id="Path_7904" data-name="Path 7904" d="M407.357,297.964c1.577,3.431-.41,6.333-1.649,9.532-1.549,4-3.4,8.145-3.125,12.538.208,3.328,1.384,5.8,2.508,8.89.706,1.943,1.089,5.763,3.207,6.508-1.453-3.43.033-9.046.839-12.584.744-3.267,3.258-5.778,4.886-8.605a64.668,64.668,0,0,0,3.3-7.533c3.461-8.35-5.889-13.776-11.258-17.757a12.193,12.193,0,0,0-2.95-1.832c-.246-.088-2.6-1.006-2.31-1.335q-1.93,2.18-3.86,4.359c2.225-.038,4.1,1.444,5.775,2.773C405,294.728,406.539,296.185,407.357,297.964Z" transform="translate(-394.634 -285.786)" fill="#8a7f76" fill-rule="evenodd" opacity="0.45" style="mix-blend-mode: multiply;isolation: isolate"/>
          <g id="Group_7742" data-name="Group 7742" transform="translate(4.022 9.539)">
            <path id="Path_7905" data-name="Path 7905" d="M399.614,297.472c3.57,11.517,6.566,23.24,12.349,34.294.091.173-.227.31-.321.134-5.939-11.081-9.661-22.615-12.628-34.322C398.937,297.269,399.518,297.162,399.614,297.472Z" transform="translate(-399.007 -297.286)" fill="#8a7f76" fill-rule="evenodd" opacity="0.45" style="mix-blend-mode: multiply;isolation: isolate"/>
            <path id="Path_7906" data-name="Path 7906" d="M417.79,342.793c5.1,6.228,9.562,14.166,11.04,21.439.028.139-.2.179-.265.047-1.79-3.857-2.883-7.794-5.028-11.577-1.875-3.31-4.286-6.437-6.088-9.766C417.348,342.752,417.648,342.62,417.79,342.793Z" transform="translate(-402.148 -305.032)" fill="#8a7f76" fill-rule="evenodd" opacity="0.45" style="mix-blend-mode: multiply;isolation: isolate"/>
          </g>
        </g>
        <g id="Group_7745" data-name="Group 7745" transform="translate(25.326 80.026)">
          <path id="Path_7907" data-name="Path 7907" d="M396.092,391.691a5.1,5.1,0,0,1-3.325.52l-12.211-.834c-.794-.054-1.738-.2-2.128-.9-.547-.988.5-1.97,1.416-2.522a60.287,60.287,0,0,1,8.936-4.692c2.1-.82,5.562-1.959,7.154.456C397.17,385.592,398.039,390.286,396.092,391.691Z" transform="translate(-378.276 -308.851)" fill="#b853a1" fill-rule="evenodd"/>
          <path id="Path_7908" data-name="Path 7908" d="M413.284,295.043c-1.744-1.545-4.024-1.3-5.905-1.207-7.577.392-8.979,4.553-11.041,10.479a144.716,144.716,0,0,0-6.291,25.331c-.947,6.164-.72,12.77-1.508,19-.508,4.013-1.61,7.83-1.983,11.892-.152,1.653-.551,3.646.122,5.4.973,2.547,3.856,3.679,6.335,3.865,1.892.143,5.205.338,6.313-1.5a7.977,7.977,0,0,0,.851-3.139q.785-6.114,1.569-12.229a100.117,100.117,0,0,0,1.209-17.491c1.529-6.671,3.376-13.12,5.524-19.617.581-1.758,7.338-19.254,6.537-19.7C414.446,295.806,413.855,295.36,413.284,295.043Z" transform="translate(-379.644 -293.761)" fill="#e367c7" fill-rule="evenodd"/>
          <g id="Group_7744" data-name="Group 7744" transform="translate(13.769 4.376)">
            <path id="Path_7909" data-name="Path 7909" d="M406.116,299.418c-3.335,11.587-7.261,23.032-8.491,35.447-.019.195-.36.134-.343-.064,1.115-12.523,4.332-24.208,8.275-35.622C405.661,298.877,406.206,299.106,406.116,299.418Z" transform="translate(-395.286 -299.037)" fill="#8a7f76" fill-rule="evenodd" opacity="0.45" style="mix-blend-mode: multiply;isolation: isolate"/>
            <path id="Path_7910" data-name="Path 7910" d="M397.659,347.272c.845,8,.221,17.09-2.534,23.981-.053.132-.269.038-.248-.106.62-4.206,1.866-8.1,2.148-12.437.248-3.8-.051-7.733.269-11.505C397.312,346.995,397.635,347.049,397.659,347.272Z" transform="translate(-394.875 -307.228)" fill="#8a7f76" fill-rule="evenodd" opacity="0.45" style="mix-blend-mode: multiply;isolation: isolate"/>
          </g>
        </g>
        <g id="Group_7746" data-name="Group 7746" transform="translate(34.166 29.873)">
          <path id="Path_7911" data-name="Path 7911" d="M397.929,257.785c-3.645-1.031-6.979-2.813-8.995-5.983q3.754-8.456,7.479-16.925a3.11,3.11,0,0,1,.8-1.236c.859-.679,2.11-.235,3.014.372a11.2,11.2,0,0,1,4.669,10.539c-.443,3.313-2.328,6.215-4.162,8.987Q399.335,255.661,397.929,257.785Z" transform="translate(-388.934 -233.299)" fill="#ffaf03" fill-rule="evenodd"/>
        </g>
        <g id="Group_7747" data-name="Group 7747" transform="translate(36.261 24.826)">
          <path id="Path_7912" data-name="Path 7912" d="M393.889,282.252a11.215,11.215,0,0,0,.872-3.511c.143-3.032.166-6.143.136-9.186-.04-4.031,1.063-7.938-.724-11.823-1.567-3.4-3.345-5.744-1.979-9.563,1.381-3.864,2.884-7.627,4.118-11.56.82-2.613,1.313-7.034,3.728-8.692,4.45-3.056,11.486,4.668,13.667,7.737,5.117,7.2,4.39,14.889,4.142,23.13-.178,5.952.233,10.969.227,16.709.1,4.858,1.841,8.931,3.294,13.553a.89.89,0,0,1,0,.767.822.822,0,0,1-.607.263,19.99,19.99,0,0,1-10.975-1.807c-1.8-.859-3.461-1.985-5.259-2.844-2.951-1.409-4.32-1.02-7.116-.118-.917.3-5.076.512-5.426,1.591C392.475,285.377,393.273,283.822,393.889,282.252Z" transform="translate(-391.501 -227.214)" fill="#ffaf03" fill-rule="evenodd"/>
          <path id="Path_7913" data-name="Path 7913" d="M400.108,273.033a4.841,4.841,0,0,1,1.982,2.127,3.3,3.3,0,0,1-.91,3.062c-.736.828-1.68,1.434-2.451,2.228a7.679,7.679,0,0,0,.047,10.306,21.059,21.059,0,0,0-7.318,2.174c2.941-2.815,3.4-7.362,3.481-11.478.046-2.322.666-17.918-1.42-18.288C394.186,267.024,397.084,270.776,400.108,273.033Z" transform="translate(-391.459 -233.344)" fill="#8a7f76" fill-rule="evenodd" opacity="0.45" style="mix-blend-mode: multiply;isolation: isolate"/>
          <path id="Path_7914" data-name="Path 7914" d="M415.58,278.948c-.07-1.643-.983-3.294-.469-4.855s2.062-1.992,2.959-3.189.81-1.851.878-3.369c.092-2.073.169-4.132.185-6.191,1.418-7.869,1.37-15.947-1.223-23.349a33.851,33.851,0,0,1,3.033,5.016c2.664,5.543,1.761,11.223,1.663,17.148a60.835,60.835,0,0,1-.46,7.843,24.229,24.229,0,0,0-.182,3.937c.041,1.914.194,3.838.124,5.779-.156,4.347,1.481,8.319,2.714,12.481a1.794,1.794,0,0,1-.01,1.5c-.329.479-1.006.492-1.576.455-3.418-.222-5.464-.785-6.8,3.143.938-2.762-.848-3.772-2.24-5.489-1.43-1.764-1.3-3.356-.263-5.642C414.679,282.49,415.659,280.795,415.58,278.948Z" transform="translate(-395.152 -229.053)" fill="#ffebda" fill-rule="evenodd" opacity="0.3" style="mix-blend-mode: color-dodge;isolation: isolate"/>
        </g>
        <g id="Group_7748" data-name="Group 7748" transform="translate(33.691)">
          <path id="Path_7915" data-name="Path 7915" d="M402,229.7l-.086.021a2.947,2.947,0,0,1-1.876.008c-.9-.394-.766-1.6-.975-2.409-.27-1.039-.564-2.042-.738-3.106a4.1,4.1,0,0,1,.058-1.929c.364-1.119,1.9-1.754,2.956-1.929a3.817,3.817,0,0,1,2.254.415c1.8.865,2.08,3.4,2.682,5.161a2.348,2.348,0,0,1,.149,1.606,2.135,2.135,0,0,1-1.173,1A17.645,17.645,0,0,1,402,229.7Z" transform="translate(-390.046 -201.213)" fill="#ffa78c" fill-rule="evenodd"/>
          <path id="Path_7916" data-name="Path 7916" d="M402.888,223.2a1.813,1.813,0,0,1-.543,1.68c-.419.446-.951.765-1.393,1.187-.344.329-1.932,2.97-1.61,3.379-.276-.352-1.294-5.076-1.638-4.941C399.335,223.868,401.2,224,402.888,223.2Z" transform="translate(-389.954 -201.704)" fill="#8a7f76" fill-rule="evenodd" style="mix-blend-mode: multiply;isolation: isolate"/>
          <path id="Path_7917" data-name="Path 7917" d="M391.708,218.379c-.147-.691-.3-1.379-.52-2.055-.384-1.207.211-2.328.47-3.478a10.349,10.349,0,0,0-.057-2.7c-.01-2.684,2.522-5.9,4.839-7.008,3.593-1.717,6.686.255,9.706,2.139,2.866,1.788,4,5.979,2.979,9.166a8.359,8.359,0,0,1-3.909,4.682c-1.189.659-2.287.817-3.44,1.588a19.686,19.686,0,0,1-3.482,1.887c-1.881.769-4.918,1.529-5.8-1.039A27.025,27.025,0,0,1,391.708,218.379Z" transform="translate(-388.822 -198.171)" fill="#ffa78c" fill-rule="evenodd"/>
          <path id="Path_7918" data-name="Path 7918" d="M392.046,204.017c-.314,4.094,3.588,7.732,8.716,8.126s9.54-2.6,9.854-6.7-3.588-7.732-8.716-8.126S392.361,199.924,392.046,204.017Z" transform="translate(-388.986 -197.285)" fill="#313242" fill-rule="evenodd"/>
          <path id="Path_7919" data-name="Path 7919" d="M395.441,204.269c.278-3.62,3.761-6.379,8.108-6.7a11.526,11.526,0,0,0-1.649-.252c-5.128-.395-9.54,2.6-9.854,6.7s3.588,7.732,8.716,8.126a11.672,11.672,0,0,0,1.745,0C398.221,211.185,395.162,207.91,395.441,204.269Z" transform="translate(-388.986 -197.285)" fill="#fff" fill-rule="evenodd" opacity="0.3" style="mix-blend-mode: overlay;isolation: isolate"/>
          <path id="Path_7920" data-name="Path 7920" d="M404.737,217.307a5.8,5.8,0,0,0,1.84,2.847c2.106-3.334,4.263-4.782,5.552-8.757.569-1.756,1.126-3.735.322-5.388-.881-1.807-1.4-5.391-3.247-6.362-1.916-1.009-4.5.316-5.8,1.8-2.411,2.759-3.934,7.4-.635,10.133C404.768,213.238,404.148,215.213,404.737,217.307Z" transform="translate(-390.494 -197.627)" fill="#313242" fill-rule="evenodd"/>
          <path id="Path_7921" data-name="Path 7921" d="M392.542,202.446a.025.025,0,0,1,0-.049" transform="translate(-389.07 -198.157)" fill="none" stroke="#4c3129" stroke-linecap="round" stroke-linejoin="round" stroke-width="1"/>
          <path id="Path_7922" data-name="Path 7922" d="M393.626,201.328a.228.228,0,0,1,.331.306,9.24,9.24,0,0,0-2.157,6.224c.163,2.37,1.607,3.393,3.178,4.854.151.141-.046.4-.222.329-2.22-.935-3.742-2.513-3.854-5.052A8.225,8.225,0,0,1,393.626,201.328Z" transform="translate(-388.793 -197.966)" fill="#313242" fill-rule="evenodd"/>
          <path id="Path_7923" data-name="Path 7923" d="M392.642,202.214a.183.183,0,0,1,.111.343,7.591,7.591,0,0,0-2.536,1.822,12.254,12.254,0,0,0-1.488,2.782.172.172,0,0,1-.33-.026C388.023,204.775,390.505,202.415,392.642,202.214Z" transform="translate(-388.361 -198.125)" fill="#313242" fill-rule="evenodd"/>
        </g>
        <path id="Path_7924" data-name="Path 7924" d="M381.532,257.35A5.566,5.566,0,0,0,379.5,260.1c-.609,3.108,4.3,4.073,6.43,3.667a14.264,14.264,0,0,0,3.457-1.312,80.339,80.339,0,0,0,9.554-5.636c2.731-1.829,6.107-3.9,7.631-6.973.75-1.51.84-3.769-.911-4.6-2.322-1.1-6.545,2.154-8.5,3.13-4.1,2.046-8.17,4.145-12.117,6.484a.449.449,0,0,0-.17.184C384.46,255.829,382.271,256.707,381.532,257.35Z" transform="translate(-353.151 -205.426)" fill="#fba58c" fill-rule="evenodd"/>
        <path id="Path_7925" data-name="Path 7925" d="M381.532,257.35A5.566,5.566,0,0,0,379.5,260.1c-.609,3.108,4.3,4.073,6.43,3.667a14.264,14.264,0,0,0,3.457-1.312,80.339,80.339,0,0,0,9.554-5.636c2.731-1.829,6.107-3.9,7.631-6.973.75-1.51.84-3.769-.911-4.6-2.322-1.1-6.545,2.154-8.5,3.13-4.1,2.046-8.17,4.145-12.117,6.484a.449.449,0,0,0-.17.184C384.46,255.829,382.271,256.707,381.532,257.35Z" transform="translate(-353.151 -205.426)" fill="#8a7f76" fill-rule="evenodd" opacity="0.45" style="mix-blend-mode: multiply;isolation: isolate"/>
        <g id="Group_7749" data-name="Group 7749" transform="translate(35.406 33.872)">
          <path id="Path_7926" data-name="Path 7926" d="M397.6,260.155a20.849,20.849,0,0,1-2.242-2.282,44.209,44.209,0,0,1-4.926-7.706c3.145-2.8,6.171-5.787,9.275-8.473,2.347-2.031,5.258-4.207,8.19-3.4a6.13,6.13,0,0,1,3.792,3.717c1.512,3.654,1.5,6.75-1.712,9.368A114.81,114.81,0,0,1,397.6,260.155Z" transform="translate(-390.429 -238.12)" fill="#ffaf03" fill-rule="evenodd"/>
        </g>
        <path id="Path_7927" data-name="Path 7927" d="M399.507,229.53a5.015,5.015,0,0,0,4.436.441c1.664-.525,2.237-1.647,3.305-2.888a.55.55,0,0,1,.994.36c.008,4.226-9.609,5.875-9.2,2.313A.3.3,0,0,1,399.507,229.53Z" transform="translate(-356.49 -202.328)" fill="#ffebda" fill-rule="evenodd"/>
        <g id="Group_7751" data-name="Group 7751" transform="translate(0 4.486)">
          <g id="Group_7750" data-name="Group 7750">
            <path id="Path_7928" data-name="Path 7928" d="M350.591,216.655l1.527.348,1.62-7.129-1.528-.347a3.656,3.656,0,0,0-4.374,2.754h0A3.655,3.655,0,0,0,350.591,216.655Z" transform="translate(-347.745 -203.843)" fill="#e87a56"/>
            <path id="Rectangle_3703" data-name="Rectangle 3703" d="M1.842,0H3.115a0,0,0,0,1,0,0V6.513a0,0,0,0,1,0,0H1.842A1.842,1.842,0,0,1,0,4.67V1.842A1.842,1.842,0,0,1,1.842,0Z" transform="matrix(-0.975, -0.222, 0.222, -0.975, 29.215, 18.396)" fill="#1b2a4d"/>
            <rect id="Rectangle_3704" data-name="Rectangle 3704" width="16.922" height="10.002" rx="2.93" transform="translate(26.609 19.593) rotate(-167.196)" fill="#486387"/>
            <path id="Path_7929" data-name="Path 7929" d="M351.614,221.713l6.606-1.694a2.432,2.432,0,0,0,1.766-1.816l1.853-8.156a2.428,2.428,0,0,0-.808-2.4l-5.224-4.383a2.43,2.43,0,0,0-3.932,1.323l-3.235,14.234A2.43,2.43,0,0,0,351.614,221.713Z" transform="translate(-347.887 -202.693)" fill="#768ba6"/>
            <path id="Path_7930" data-name="Path 7930" d="M363.75,236.678l5.1,1,2.819-12.4-6.719-1.527Z" transform="translate(-350.474 -206.283)" fill="#1b2a4d"/>
          </g>
          <path id="Path_7931" data-name="Path 7931" d="M368.22,226.229c-.156-1.165.737-.93,1.238-.173.608.919,1.152,1.977,1.806,2.87,1.058,1.447,3.354,3.6,3.087,5.579-.089.66-.538.913-1.078.572a6.114,6.114,0,0,1-1.568-2.256c-.224-.472-.344-1.013-.6-1.464C370.137,229.66,368.5,228.29,368.22,226.229Z" transform="translate(-351.233 -206.569)" fill="#fba58c" fill-rule="evenodd"/>
          <path id="Path_7932" data-name="Path 7932" d="M363.748,228.048c.4.017,1.145-.8,1.579-.777,1.323.06,2.452,1.177,3.5,2.362.722.814,1.829,1.3,2.526,2.135,1.18,1.412.073,3.1,1.189,4.51-2.673-.909-5.587-.975-8.22-1.991-.406-.157-2.389-.547-2.337-1.293.068-.977-.367-2.561.087-3.668A4.061,4.061,0,0,1,363.748,228.048Z" transform="translate(-350.153 -206.884)" fill="#fba58c" fill-rule="evenodd"/>
          <path id="Path_7933" data-name="Path 7933" d="M369.326,229.35a.7.7,0,0,0-.535.956c2.674,8.784,4.337,18.563,8.43,26.822,1.149,2.318,3.651,6.1,6.727,4.96,5.307-1.967.04-10.18-1.394-13-3.3-6.484-6.875-13.106-10.74-19.279-.132-.211-.343-.134-.461.02A3.2,3.2,0,0,0,369.326,229.35Z" transform="translate(-351.327 -207.237)" fill="#fba58c" fill-rule="evenodd"/>
        </g>
        <path id="Path_7934" data-name="Path 7934" d="M363.75,222.661l.737,2.29,8.381,1.533.96-1.533Z" transform="translate(-350.474 -201.612)" fill="#1b2a4d"/>
      </g>
      <g id="Group_7754" data-name="Group 7754" transform="translate(244.72 162.014)">
        <circle id="Ellipse_3560" data-name="Ellipse 3560" cx="9.251" cy="9.251" r="9.251" transform="translate(0 0)" fill="url(#linear-gradient-5)"/>
        <g id="Group_7753" data-name="Group 7753" transform="translate(5.041 4.779)">
          <path id="Path_7935" data-name="Path 7935" d="M299.034,184.283h2.877v2.439h-2.877v3.3h-2.659v-3.3H293.49v-2.439h2.886v-3.206h2.659Z" transform="translate(-293.49 -181.077)" fill="#fff"/>
        </g>
      </g>
      <g id="Group_7769" data-name="Group 7769" transform="translate(40.287 134.865)">
        <g id="Group_7755" data-name="Group 7755" transform="translate(0 4.638)">
          <path id="Path_7936" data-name="Path 7936" d="M97.72,399.133c-.089-.017-.178-.033-.267-.056.088.022.176.039.264.055Z" transform="translate(-50.59 -190.959)" fill="none"/>
          <path id="Path_7937" data-name="Path 7937" d="M98.4,399.211a3.435,3.435,0,0,1-.45-.033h0A3.423,3.423,0,0,0,98.4,399.211Z" transform="translate(-50.675 -190.976)" fill="none"/>
          <path id="Path_7938" data-name="Path 7938" d="M48.467,148.925c.03-.024.06-.049.09-.071-.013.009-.029.015-.041.025A.431.431,0,0,0,48.467,148.925Z" transform="translate(-42.237 -148.293)" fill="none"/>
          <path id="Path_7939" data-name="Path 7939" d="M132.226,154.342,50,153.946l82.223.4Z" transform="translate(-42.499 -149.161)" fill="none"/>
          <path id="Path_7940" data-name="Path 7940" d="M193.826,399.6c.051-.009.1-.021.15-.033C193.926,399.582,193.877,399.594,193.826,399.6Z" transform="translate(-67.023 -191.043)" fill="none"/>
          <path id="Path_7941" data-name="Path 7941" d="M49.526,153.944h0Z" transform="translate(-42.418 -149.161)" fill="none"/>
          <path id="Path_7942" data-name="Path 7942" d="M96.049,398.5h0c-.083-.046-.167-.095-.249-.146h0C95.882,398.4,95.966,398.45,96.049,398.5Z" transform="translate(-50.308 -190.835)" fill="none"/>
          <path id="Path_7943" data-name="Path 7943" d="M96.586,398.769h0c-.086-.037-.173-.076-.259-.119h0C96.414,398.693,96.5,398.731,96.586,398.769Z" transform="translate(-50.398 -190.886)" fill="none"/>
          <path id="Path_7944" data-name="Path 7944" d="M97.137,398.981h0c-.091-.028-.182-.056-.274-.091h0C96.957,398.925,97.047,398.953,97.137,398.981Z" transform="translate(-50.49 -190.927)" fill="none"/>
          <path id="Path_7945" data-name="Path 7945" d="M95.522,398.164h0c-.081-.055-.162-.112-.241-.173h0C95.362,398.052,95.441,398.109,95.522,398.164Z" transform="translate(-50.22 -190.774)" fill="none"/>
          <path id="Path_7946" data-name="Path 7946" d="M47.032,151.146c-.006.019-.008.041-.014.06.014-.047.027-.095.043-.14l0,0C47.051,151.1,47.04,151.12,47.032,151.146Z" transform="translate(-41.99 -148.67)" fill="none"/>
          <path id="Path_7947" data-name="Path 7947" d="M46.718,153.289c0-.048,0-.095,0-.142,0,.024,0,.046-.006.07S46.717,153.265,46.718,153.289Z" transform="translate(-41.939 -149.025)" fill="none"/>
          <path id="Path_7948" data-name="Path 7948" d="M93.036,395.563h0c-.033-.05-.066-.1-.1-.149h0C92.969,395.465,93,395.514,93.036,395.563Z" transform="translate(-49.82 -190.334)" fill="none"/>
          <path id="Path_7949" data-name="Path 7949" d="M47.4,150.264c.017-.033.036-.065.054-.1-.008.016-.02.029-.029.045S47.4,150.246,47.4,150.264Z" transform="translate(-42.055 -148.517)" fill="none"/>
          <path id="Path_7950" data-name="Path 7950" d="M77.708,156.1l-26.517-.127,26.517.128Z" transform="translate(-42.702 -149.507)" fill="none"/>
          <path id="Path_7951" data-name="Path 7951" d="M165.588,393.769,94.7,393.428h0l70.893.341Z" transform="translate(-50.12 -189.996)" fill="none"/>
          <path id="Path_7952" data-name="Path 7952" d="M94.339,391.883h0l.043.187.252,1.094Z" transform="translate(-50.059 -189.732)" fill="none"/>
          <path id="Path_7953" data-name="Path 7953" d="M50,156.018l-.478-2.074h0L50,156.018Z" transform="translate(-42.418 -149.161)" fill="none"/>
          <path id="Path_7954" data-name="Path 7954" d="M94.391,392.109l.252,1.094h0Z" transform="translate(-50.068 -189.771)" fill="#e7490b"/>
          <path id="Path_7955" data-name="Path 7955" d="M167.76,356.786a3.076,3.076,0,0,1-.553.052l-76.864-.377a3.423,3.423,0,0,1-.45-.033h0c-.049-.007-.1-.02-.147-.028h0c-.088-.016-.176-.033-.264-.055-.071-.018-.142-.041-.213-.063h0c-.09-.028-.18-.056-.27-.09h0c-.062-.025-.124-.053-.187-.08h0c-.085-.037-.172-.076-.256-.119h0c-.063-.032-.126-.067-.19-.1h0c-.083-.046-.167-.095-.249-.146h0c-.063-.04-.126-.081-.188-.124h0c-.08-.055-.16-.112-.24-.172h0a8.206,8.206,0,0,1-1.846-1.989h0c-.033-.05-.066-.1-.1-.149h0a10.011,10.011,0,0,1-1.337-3.157L47.619,154.495a8.539,8.539,0,0,1-.224-2c0-.024,0-.048,0-.071s0-.046.006-.07a6.168,6.168,0,0,1,.245-1.586c.006-.019.008-.041.014-.06s.019-.051.027-.077l0,0a4.506,4.506,0,0,1,.27-.649c.008-.017.016-.036.025-.053s.021-.029.029-.045a3.383,3.383,0,0,1,.835-1.017.434.434,0,0,1,.049-.046c.012-.01.028-.016.041-.025a2.79,2.79,0,0,1,.52-.309c.011,0,.02-.013.031-.018l-6.435,4.231a2.824,2.824,0,0,0-.589.347l0,0c-.05.038-.09.091-.139.134a3.179,3.179,0,0,0-.362.355c-.057.07-.1.154-.156.231a3.845,3.845,0,0,0-.238.353c-.007.012-.011.025-.017.036s-.021.046-.032.068a4.576,4.576,0,0,0-.264.637c-.008.027-.019.051-.027.077a5.548,5.548,0,0,0-.172.738c-.008.049-.017.1-.023.147s-.018.1-.025.15c-.027.22-.04.447-.045.681,0,.038,0,.079,0,.117,0,.252.012.512.037.777.007.08.016.161.026.242a9,9,0,0,0,.16.941L77.96,354.38a9.857,9.857,0,0,0,.28.966c.012.034.019.07.031.1s.018.04.026.061a10.175,10.175,0,0,0,.413.98c.025.051.05.1.075.153a9.707,9.707,0,0,0,.512.9c.013.02.023.044.037.065s.041.055.061.084c.166.246.338.486.52.708l.022.024a7.994,7.994,0,0,0,.558.606c.023.024.045.052.069.075s.055.048.081.074c.059.055.118.107.178.159.077.068.155.134.234.2.061.05.123.1.185.144.08.059.159.116.24.171.063.043.127.085.191.125.082.051.164.1.248.146.063.035.127.071.191.1.085.043.171.081.256.119.063.028.126.056.189.081.09.035.18.063.27.091.06.018.119.04.179.056.1.026.2.044.3.062.051.009.1.022.151.029a3.428,3.428,0,0,0,.45.033l75.2.377a2.91,2.91,0,0,0,1.181-.234l8.095-4.231c-.027.012-.058.016-.085.027a2.8,2.8,0,0,1-.392.122C167.861,356.765,167.812,356.777,167.76,356.786Z" transform="translate(-40.957 -148.226)" fill="#22273d"/>
          <path id="Path_7956" data-name="Path 7956" d="M50,156.018h0l-.478-2.074h0L86.7,351.312h0Z" transform="translate(-42.418 -149.161)" fill="#e7490b"/>
          <path id="Path_7957" data-name="Path 7957" d="M188.037,393.877l5.192.025-5.192-.025Z" transform="translate(-66.036 -190.072)" fill="#eaa4b0"/>
          <path id="Path_7958" data-name="Path 7958" d="M149.128,154.423l37.467,198.649L149.128,154.423h0Z" transform="translate(-59.401 -149.243)" fill="#eaa4b0"/>
          <path id="Path_7959" data-name="Path 7959" d="M143.676,156.417h0l-23.008-.111h0Z" transform="translate(-54.549 -149.564)" fill="#555a78"/>
          <path id="Path_7960" data-name="Path 7960" d="M90.044,156.159l18.485.089-25.37-.122h0Z" transform="translate(-48.153 -149.533)" fill="#555a78"/>
          <path id="Path_7961" data-name="Path 7961" d="M180.16,393.839h0l6.533.031h0Z" transform="translate(-64.693 -190.066)" fill="#555a78"/>
          <path id="Path_7962" data-name="Path 7962" d="M148.406,156.44l10.364,44.989L148.406,156.44h0Z" transform="translate(-59.278 -149.587)" fill="#555a78"/>
          <path id="Path_7963" data-name="Path 7963" d="M86.7,351.312l.3,1.282,70.892.341,6.534.032,5.193.025L132.145,154.341h0l-82.223-.4-.395,0L50,156.018ZM77.424,155.754l25.37.122,5.743.027h0l23.008.111L141.91,201l26.33,150.306L87.6,350.92,50.907,155.626Z" transform="translate(-42.418 -149.161)" fill="#555a78"/>
          <path id="Path_7964" data-name="Path 7964" d="M113.442,162.537c.762,0,1.18-.856.935-1.923s-1.062-1.932-1.824-1.936-1.18.856-.935,1.923S112.678,162.533,113.442,162.537Z" transform="translate(-52.993 -149.968)" fill="#7bcdf7"/>
          <path id="Path_7965" data-name="Path 7965" d="M87.49,160.485c.246,1.067,1.07,1.932,1.824,1.936l16.329.078c.668,0,1.078-.654,1.005-1.533a2.778,2.778,0,0,0-.061-.389,3.035,3.035,0,0,0-.487-1.081,1.81,1.81,0,0,0-1.345-.855l-16.33-.079a.872.872,0,0,0-.692.326,1.3,1.3,0,0,0-.254.518A2.3,2.3,0,0,0,87.49,160.485Z" transform="translate(-48.879 -149.949)" fill="#7bcdf7"/>
          <path id="Path_7966" data-name="Path 7966" d="M168.042,351.653l-37.294-.182-23.325-.108-20.016-.1L48.38,155.96l26.519.124,9.216.05-10.468-.05,3.592,5.052c.373,1.642,2.754,2.829,3.923,2.829l24,.116c1.178,0,3.185-7.83,3.185-7.83l23.01.108L142.6,216.214l6.943,36.954Z" transform="translate(-42.223 -149.505)" fill="#7bcdf7"/>
          <path id="Path_7967" data-name="Path 7967" d="M67.175,260.421l44.242-109.355,16.518,4.372L82.794,331.947Z" transform="translate(-45.427 -148.67)" fill-rule="evenodd" fill="url(#linear-gradient-4)"/>
          <path id="Path_7968" data-name="Path 7968" d="M161.681,265.554l-18.8,98.3-23.325-.108L154.739,228.6Z" transform="translate(-54.36 -161.891)" fill-rule="evenodd" fill="url(#linear-gradient-4)"/>
          <path id="Path_7969" data-name="Path 7969" d="M171.238,350.521,134.461,154.868c-.8-3.475-3.462-6.3-5.947-6.312l-78.523-.377a2.889,2.889,0,0,0-1.212.252,2.791,2.791,0,0,0-.52.309c-.031.022-.061.047-.09.071a3.383,3.383,0,0,0-.835,1.017c-.017.033-.037.065-.054.1a4.507,4.507,0,0,0-.27.649c-.016.046-.029.093-.043.14a6.169,6.169,0,0,0-.245,1.586c0,.047,0,.094,0,.142a8.539,8.539,0,0,0,.224,2L83.719,350.1a10.012,10.012,0,0,0,1.337,3.157c.032.051.066.1.1.149A8.206,8.206,0,0,0,87,355.4c.08.061.16.118.241.173.062.043.125.085.188.124.082.051.166.1.249.146.064.036.127.07.19.1.086.043.173.082.259.119.062.027.124.056.187.08.091.035.182.063.274.091.071.022.142.045.213.063.089.022.178.039.267.056.049.008.1.022.147.028a3.435,3.435,0,0,0,.45.033l78.523.377a3.076,3.076,0,0,0,.553-.052c.051-.009.1-.022.15-.033a2.8,2.8,0,0,0,.392-.122C171.051,355.883,171.911,353.442,171.238,350.521ZM86.514,351.61h0l-.252-1.094-.043-.187L49.047,152.961h0l.395,0,82.223.4,37.467,198.649-5.193-.025-6.534-.032Z" transform="translate(-41.939 -148.178)" fill="#3f4359"/>
          <path id="Path_7970" data-name="Path 7970" d="M78.835,156.1l3.593,5.054c.378,1.642,2.755,2.829,3.928,2.834l24,.115c1.174.006,3.18-7.836,3.18-7.837h0l-5.743-.027-18.485-.089Zm27.2,4.057c-.246-1.067.173-1.926.935-1.923s1.579.869,1.824,1.936-.173,1.926-.935,1.923S106.285,161.229,106.04,160.162Zm-20.025-1.175a1.3,1.3,0,0,1,.254-.518.872.872,0,0,1,.692-.326l16.33.079a1.81,1.81,0,0,1,1.345.855,3.035,3.035,0,0,1,.487,1.081,2.777,2.777,0,0,1,.061.389c.072.878-.338,1.536-1.005,1.533L87.85,162c-.754,0-1.579-.869-1.824-1.936A2.3,2.3,0,0,1,86.015,158.987Z" transform="translate(-47.415 -149.53)" fill="#555a78"/>
        </g>
        <g id="Group_7766" data-name="Group 7766" transform="translate(7.307 10.474)">
          <g id="Group_7765" data-name="Group 7765" clip-path="url(#clip-path)">
            <g id="Group_7764" data-name="Group 7764" transform="translate(18.423 31.246)">
              <g id="Group_7763" data-name="Group 7763">
                <ellipse id="Ellipse_3561" data-name="Ellipse 3561" cx="43.768" cy="1.562" rx="43.768" ry="1.562" transform="translate(6.977 155.139)" fill="#162a3d" opacity="0.24" style="mix-blend-mode: multiply;isolation: isolate"/>
                <g id="Group_7756" data-name="Group 7756" transform="translate(0 79.134)">
                  <path id="Path_7971" data-name="Path 7971" d="M83.085,366.163a33.239,33.239,0,0,1-3.923-4.037,5.661,5.661,0,0,0-1.861-1.9c-3.035-1.353-4.288,3.683-5.081,5.331a1.492,1.492,0,0,0-.212,1.03,1.9,1.9,0,0,0,.842.916,61.19,61.19,0,0,0,11.708,6.231c1.053.444,3.621,2.038,4.824,1.4C92.57,373.462,84.208,367.15,83.085,366.163Z" transform="translate(-71.976 -300.513)" fill="#313242" fill-rule="evenodd"/>
                  <path id="Path_7972" data-name="Path 7972" d="M134.606,299.381c-.737-2.112-3.164-3.543-4.383-5.417-2.949-4.534-4.56-5.863-9.933-5.66-7.658.289-10.225,7.047-11.174,13.235-.628,4.1-.674,8.477-1.274,12.676a23.041,23.041,0,0,1-3.857,10.644c-2.153,2.945-5.271,5.113-8.337,7.232a90.335,90.335,0,0,0-7.085,5.751c-2.6,2.241-6.476,3.379-9.667,4.806a5.018,5.018,0,0,0-2.625,1.956c-.781,1.547.305,3.449,1.353,5,1.574,2.33,3.416,4.857,6.2,5.652,3.306.945,6.455-.942,9.075-2.741l14.748-10.126c4.025-2.763,9.223-5.363,12.232-9.155,2.968-3.743,4.031-9.287,5.438-13.739,1.531-4.847,4.645-9.1,7.207-13.445C133.657,304.115,135.457,301.821,134.606,299.381Z" transform="translate(-72.663 -288.284)" fill="#ff4d2e" fill-rule="evenodd"/>
                  <path id="Path_7973" data-name="Path 7973" d="M126.932,319.563c1.531-4.847,4.645-9.1,7.206-13.446,1.141-1.934,2.941-4.227,2.09-6.667-.737-2.112-3.165-3.543-4.384-5.417-2.046-3.146-3.474-4.726-5.936-5.344a26.39,26.39,0,0,0-9.594,10.106c-2.382,4.7-2.658,10.03-2.746,15.083a41.069,41.069,0,0,0,.192,6.674c.236,1.593.907,3.212.866,4.878-.079,3.277-2.687,4.642-4.3,7.19-2.139,3.377-2.855,7.163-6.04,9.768-2.834,2.318-6.307,3.317-9.618,4.318-1.413.426-2.833.81-4.246,1.231a22.713,22.713,0,0,0-2.635.886,9.2,9.2,0,0,0-2.273,1.248l.408,5.344c3.128.642,6.1-1.119,8.593-2.829l14.748-10.126c4.025-2.763,9.223-5.363,12.232-9.155C124.462,329.559,125.525,324.015,126.932,319.563Z" transform="translate(-74.285 -288.353)" fill="#8a7f76" fill-rule="evenodd" opacity="0.45" style="mix-blend-mode: multiply;isolation: isolate"/>
                </g>
                <g id="Group_7758" data-name="Group 7758" transform="translate(36.491 74.154)">
                  <path id="Path_7974" data-name="Path 7974" d="M164.027,369.089a31.155,31.155,0,0,1-5.706.309,5.324,5.324,0,0,0-2.691.161c-2.958,1.516.425,6.172,1.3,8.011a1.356,1.356,0,0,0,1.985.886,55.085,55.085,0,0,0,12.242-5.115c1.005-.544,3.878-1.5,4.087-2.946C175.8,366.568,165.522,368.879,164.027,369.089Z" transform="translate(-122.528 -296.932)" fill="#313242" fill-rule="evenodd"/>
                  <g id="Group_7757" data-name="Group 7757">
                    <path id="Path_7975" data-name="Path 7975" d="M130.759,314.456a35.246,35.246,0,0,1,6.026,10.526,157.7,157.7,0,0,1,4.74,15.295c.4,1.591,3.83,17.992,4.4,17.984a22.052,22.052,0,0,0,11.26-3.316,3.314,3.314,0,0,0,1.84-2.276,3.519,3.519,0,0,0-.351-1.528,69.7,69.7,0,0,1-4.331-16.679,90.552,90.552,0,0,0-2.765-13.385c-2.133-7.526-5.259-14.537-7.494-22.056-.963-3.24-1.295-7.339-2.375-10.342-2.9-8.066-21.724-8.641-24.963-.961a9.992,9.992,0,0,0-.5,4.18c.111,3.987-1.318,6.265,1.438,9.856,3.055,3.981,7.371,6.78,10.919,10.329Q129.732,313.219,130.759,314.456Z" transform="translate(-115.968 -282.28)" fill="#ff4d2e" fill-rule="evenodd"/>
                  </g>
                  <path id="Path_7976" data-name="Path 7976" d="M131.1,302.513c-4.323-5.739-8.506-11.7-13-17.331-.246.044-.489.11-.737.137a.689.689,0,0,1-.217.149c7.05,10.076,15.076,19.447,22.464,29.274.165-.118.327-.239.49-.358C137.117,310.409,134.082,306.469,131.1,302.513Z" transform="translate(-116.169 -282.775)" fill="#8a7f76" fill-rule="evenodd" opacity="0.45" style="mix-blend-mode: multiply;isolation: isolate"/>
                  <path id="Path_7977" data-name="Path 7977" d="M140.721,295.586a9.792,9.792,0,0,1,3.612-.515c-2.279-1.924-2.313-5.17-4.755-7.159-6.352-5.169-8.864,2-15.008,2.858a11.658,11.658,0,0,1-3.78.058,11.281,11.281,0,0,1-1.536-.475,15.019,15.019,0,0,0,5.738,4.788,25.66,25.66,0,0,0,9.023,2.308C136.353,297.392,138.492,296.274,140.721,295.586Z" transform="translate(-116.528 -282.924)" fill="#8a7f76" fill-rule="evenodd" opacity="0.45" style="mix-blend-mode: multiply;isolation: isolate"/>
                </g>
                <path id="Path_7978" data-name="Path 7978" d="M181.8,239a4.6,4.6,0,0,1,1.887-.47,1.57,1.57,0,0,1,1.5,1.048c.189.762-.416,1.473-.98,2.02a92.645,92.645,0,0,1-15.132,11.9c-4.865,3.066-9.2.922-14.037-1.2a6.739,6.739,0,0,1,3.37-4.477,15.351,15.351,0,0,1,5.222-1.783,26.49,26.49,0,0,0,5.445-2.084C173.268,242.193,177.581,240.722,181.8,239Z" transform="translate(-86.139 -200.666)" fill="#d48b74" fill-rule="evenodd"/>
                <path id="Path_7979" data-name="Path 7979" d="M163.272,239.745a5,5,0,0,1,1.4,2.568,4.626,4.626,0,0,1-1.5,3.294c-2.911,3.3-7.094,6.031-11.452,5.409-.859-.122-1.659-9.865-1.763-10.963-.424-4.439-1.109-8.885-1.641-13.316-.136-1.131.154-2.536,1.233-2.9.983-.333,1.987.4,2.711,1.148,2.127,2.184,3.509,4.772,5.135,7.27A80.528,80.528,0,0,0,163.272,239.745Z" transform="translate(-84.986 -198.147)" fill="#5176a6" fill-rule="evenodd"/>
                <path id="Path_7980" data-name="Path 7980" d="M162.5,254.015a5.885,5.885,0,0,1-.153-3.595c0,.168-1.034.792-1.2.916-.095.073-.171.142-.248.21a.865.865,0,0,1-1.419.634c-1.987-1.742-2.762-4.458-4.094-6.69a30.229,30.229,0,0,1-1.528-2.864c.016,1.861.168,5.36.162,5.812-.014,1.177-.06,2.355-.158,3.529a6.929,6.929,0,0,1-.362,2.459,4.312,4.312,0,0,0,2.329-.257,2.774,2.774,0,0,1,.854-.242c.609-.019,1.092.44,1.613.684.576.269,1.2.469,1.8.684a7.718,7.718,0,0,0,4.381.624C163.655,256.118,162.725,254.62,162.5,254.015Z" transform="translate(-85.878 -201.365)" fill="#8a7f76" fill-rule="evenodd" opacity="0.45" style="mix-blend-mode: multiply;isolation: isolate"/>
                <path id="Path_7981" data-name="Path 7981" d="M188.222,231.368c.525.637.109,4.8.1,5.532a4.058,4.058,0,0,1-.27,1.718,1.247,1.247,0,0,1-1.861.625c-.686-.554-.273-1.663-.146-2.407.252-1.484.842-2.839,1.069-4.318a2.234,2.234,0,0,1,.248-.843.755.755,0,0,1,.737-.386A.209.209,0,0,1,188.222,231.368Z" transform="translate(-91.386 -199.43)" fill="#d48b74" fill-rule="evenodd"/>
                <path id="Path_7982" data-name="Path 7982" d="M192.8,230.054a.851.851,0,0,1,.693-.251.609.609,0,0,1,.3.839,1.762,1.762,0,0,1-.727.686.912.912,0,0,1,.668.858c.043.388-.044.782,0,1.171.066.614.443,1.16.518,1.773.148,1.224-.906,2.227-1.862,3.005l-2.507,2.041a2.27,2.27,0,0,1-.761.467c-2.578.759-1.552-3.539-.9-4.588C189.514,233.969,190.841,231.591,192.8,230.054Z" transform="translate(-91.666 -199.176)" fill="#d48b74" fill-rule="evenodd"/>
                <path id="Path_7983" data-name="Path 7983" d="M143.911,277.389c.131-1.613-.438-3.743-.3-5.033.251-2.386,1.1-4.668,1.442-7.039q.837-5.843,1.307-11.729.714-8.947.581-17.934c-.049-3.3-.021-6.648-1.147-9.8a4.072,4.072,0,0,0-2.289-2.535,17.054,17.054,0,0,0-8.313-1.3c-3.885.453-8.571.731-11.892,3.023-2.853,1.97-2.832,7.412-2.811,10.487.012,1.956.372,4.114-.008,6.014-.406,2.029-1.354,4.059-1.868,6.084-1.037,4.087-1.739,8.248-2.441,12.4q-.485,2.872-.971,5.743a20.9,20.9,0,0,1-1.382,5.3,7.041,7.041,0,0,1-3.765,3.8c5.277,5.83,12.995,9.77,20.987,8.552,2.774-.422,4.735-2.7,7.526-3.124.872-.133,1.763-.106,2.632-.253a3.432,3.432,0,0,0,2.269-1.221A2.835,2.835,0,0,0,143.911,277.389Z" transform="translate(-78.468 -197.834)" fill="#5176a6" fill-rule="evenodd"/>
                <g id="Group_7759" data-name="Group 7759" transform="translate(51.043 42.718)">
                  <path id="Path_7984" data-name="Path 7984" d="M146.606,246.767c-.188.331-.366.662-.547.991q-.27-.845-.567-1.683a.426.426,0,0,0-.767-.1c-.569.851-1.13,1.706-1.7,2.557-.353-.871-.666-1.736-.953-2.639a.372.372,0,0,0-.67-.088,14.629,14.629,0,0,0-1.979,4.163c-.552-.9-.762-1.934-1.355-2.828a.561.561,0,0,0-.482-.276c-1.116.082-1.719,1.311-2.191,2.457-.387-.875-.777-1.749-1.147-2.628a.379.379,0,0,0-.73.2,17.408,17.408,0,0,0,1.3,4.46.678.678,0,0,0,1.166,0c.371-.772.708-1.675,1.155-2.406.575-.938.086-.792.518.022a7.864,7.864,0,0,0,1.591,2.445.518.518,0,0,0,.857-.226,29.171,29.171,0,0,1,1.6-4.252c.326.809.628,1.611.893,2.455a.362.362,0,0,0,.6.158,21.573,21.573,0,0,0,1.687-2.279c.146.721.275,1.443.395,2.175.1.617,1.025.542,1.175,0,.228-.822.54-1.592.816-2.4C147.41,246.652,146.809,246.41,146.606,246.767Z" transform="translate(-133.512 -244.595)" fill="#ffaf03"/>
                  <path id="Path_7985" data-name="Path 7985" d="M150.989,244.41a1.153,1.153,0,0,0-.539.485c-.273.369.358.747.62.363a.906.906,0,0,0,.24-.6A.222.222,0,0,0,150.989,244.41Z" transform="translate(-136.388 -244.382)" fill="#ffaf03"/>
                </g>
                <path id="Path_7986" data-name="Path 7986" d="M117.639,275.406a7.45,7.45,0,0,0-.272,1.869c.018,2.575,2.542,7.389,5.165,8.229-1.177-.377-2.323-.942-3.5-1.286-1.26-.367-1.559-.149-2.021,1.2a8.87,8.87,0,0,0,.422,6.271,21.583,21.583,0,0,0,4.836,6.411,33.182,33.182,0,0,1,5.264,6.1c-2.276-2.824-5.447-4.76-8.148-7.182s-5.063-5.715-4.814-9.334c.116-1.693,1.555-4.081.617-5.595-.536-.865-2.012-1.67-2.8-2.327l-2.81-2.336a6.8,6.8,0,0,0,4.074-4.028,22.361,22.361,0,0,0,1.272-5.764,132.739,132.739,0,0,1,3.639-17.564c1.24-4.449,2.421-11.1,7.022-13.38a255.516,255.516,0,0,1-4.817,27.415q-.8,3.449-1.7,6.873C118.725,272.3,118.026,273.9,117.639,275.406Z" transform="translate(-78.387 -200.354)" fill="#fff" fill-rule="evenodd" opacity="0.3" style="mix-blend-mode: overlay;isolation: isolate"/>
                <path id="Path_7987" data-name="Path 7987" d="M146.757,267.311a23.875,23.875,0,0,1-2.984,5.913c-3.783,5.364-8.729,9.936-11.789,15.788.249,0,.5.019.742.013a12.618,12.618,0,0,1,3.793-.693c1.939-.828,3.612-2.269,5.783-2.6.872-.133,1.763-.106,2.632-.253a3.433,3.433,0,0,0,2.269-1.221,2.835,2.835,0,0,0,.447-1.435c.131-1.613-.438-3.743-.3-5.033a26.819,26.819,0,0,1,.7-3.591c.6-5.016,1.439-10.009,1.967-15.05.168-1.606-.124-3.844.375-5.352C148.877,258.375,148.288,262.977,146.757,267.311Z" transform="translate(-82.208 -203.27)" fill="#8a7f76" fill-rule="evenodd" opacity="0.45" style="mix-blend-mode: multiply;isolation: isolate"/>
                <path id="Path_7988" data-name="Path 7988" d="M152.276,198.014a.024.024,0,0,0,0-.048" transform="translate(-85.668 -193.75)" fill="none" stroke="#4c3129" stroke-linecap="round" stroke-linejoin="round" stroke-width="1"/>
                <g id="Group_7760" data-name="Group 7760" transform="translate(49.659 3.208)">
                  <path id="Path_7989" data-name="Path 7989" d="M137.76,224.062l.086.028a3.114,3.114,0,0,0,1.93.153c.954-.327.913-1.546,1.194-2.342.359-1.02.742-2,1-3.059a4.03,4.03,0,0,0,.093-1.939c-.287-1.15-1.813-1.906-2.889-2.164a4.028,4.028,0,0,0-2.351.242c-1.919.729-2.41,3.254-3.166,4.971a2.312,2.312,0,0,0-.28,1.6,2.178,2.178,0,0,0,1.127,1.094A18.454,18.454,0,0,0,137.76,224.062Z" transform="translate(-132.095 -199.803)" fill="#d48b74" fill-rule="evenodd"/>
                  <path id="Path_7990" data-name="Path 7990" d="M138.108,217.445a1.791,1.791,0,0,0,.426,1.727c.4.481.917.841,1.339,1.3.328.356,1.753,3.128,1.389,3.515.312-.332,1.731-4.994,2.075-4.832C141.711,218.391,139.78,218.381,138.108,217.445Z" transform="translate(-132.897 -200.279)" fill="#8a7f76" fill-rule="evenodd" style="mix-blend-mode: multiply;isolation: isolate"/>
                  <path id="Path_7991" data-name="Path 7991" d="M147.492,213.263a21.171,21.171,0,0,1,.7-2.022c.491-1.18-.032-2.352-.209-3.526a10.17,10.17,0,0,1,.272-2.7c.222-2.693-2.129-6.118-4.424-7.407-2.778-1.56-5.727-.747-8.428.536-1.2.568-2.032.863-2.572,2.078a10.719,10.719,0,0,0-.978,4.118,27,27,0,0,0,.469,5,8.043,8.043,0,0,0,.532,2.116c.781,1.715,2.712,2.316,4.1,3.381a20.357,20.357,0,0,0,3.433,2.162c1.875.917,4.938,1.914,6.048-.595A26.943,26.943,0,0,0,147.492,213.263Z" transform="translate(-131.843 -196.751)" fill="#d48b74" fill-rule="evenodd"/>
                  <path id="Path_7992" data-name="Path 7992" d="M146.767,208.819a8.4,8.4,0,0,1,1.452.236,1.854,1.854,0,0,1,.841,2.207,5.406,5.406,0,0,1-1.43,2.116c.679-.134,1.263.6,1.286,1.293a5.119,5.119,0,0,1-.576,1.977,2.379,2.379,0,0,0-.2,1.507,25.411,25.411,0,0,0,1.751-3.607,11.746,11.746,0,0,0,.782-4.3,13.8,13.8,0,0,1,.052-4.032,5.758,5.758,0,0,0-.831-3.849c-.373.74-.29,1.515-.785,2.173a7.03,7.03,0,0,1-1.987,1.667c-.779.469-2.154,1.67-.746,2.463A1.468,1.468,0,0,0,146.767,208.819Z" transform="translate(-134.218 -197.709)" fill="#8a7f76" fill-rule="evenodd" opacity="0.45" style="mix-blend-mode: multiply;isolation: isolate"/>
                </g>
                <path id="Path_7993" data-name="Path 7993" d="M142.9,203.768c1.645-.315,5.813-1.478,5.107-3.909a1.988,1.988,0,0,0,1.89-1.794,3.244,3.244,0,0,0-1.037-2.57,9.582,9.582,0,0,0-2.373-1.588,6.617,6.617,0,0,0-3-1.023,2.274,2.274,0,0,0-2.342,1.754,3.809,3.809,0,0,0-6.491,1.153c-1.072-1.033-3-.43-3.834.8a5.94,5.94,0,0,0-.854,4.2c.416,1.334,1.994,1.677,3.139,2.111A18.158,18.158,0,0,0,142.9,203.768Z" transform="translate(-81.844 -192.883)" fill="#313242" fill-rule="evenodd"/>
                <path id="Path_7994" data-name="Path 7994" d="M135.942,207.523a7.089,7.089,0,0,1-.173,1.255.891.891,0,0,1-.95.659c-.309-.077-.513-.386-.815-.488-.611-.208-1.163.6-1.009,1.224a3.34,3.34,0,0,0,1.172,1.5,2.052,2.052,0,0,1,.851,1.656c-.287,2.057-4.36.781-3.376-1.476a2.5,2.5,0,0,1-1.789-4.11,2.228,2.228,0,0,1-2.007-3.092c.315-.747,1.016-1.28,1.328-2.029a12.8,12.8,0,0,0,.341-1.28,1.52,1.52,0,0,1,.776-1.02c.6-.248.81.337,1.259.44.7.162,1.537-.081,2.305.128a11.6,11.6,0,0,1,3.036,1.319c.674.416,2.42,1.423,2.653,2.238.253.885-1.057.706-1.7.932A2.824,2.824,0,0,0,135.942,207.523Z" transform="translate(-81.474 -194.142)" fill="#313242" fill-rule="evenodd"/>
                <path id="Path_7995" data-name="Path 7995" d="M133.4,199.692a2.151,2.151,0,0,1-.313,1.949,2.635,2.635,0,0,1-2.479.334,7.253,7.253,0,0,1,.911,2.766c.072,1.525-.786,3.2.04,4.488.324.5.857.837,1.2,1.323s.414,1.288-.1,1.585a1.064,1.064,0,0,1,1.042,1.2,2.2,2.2,0,0,1-2.652-2.058,3.693,3.693,0,0,1-2.069-4.724,1.164,1.164,0,0,1-1.545-.79,3.371,3.371,0,0,1,.179-1.953l1.6-5.366c.429-1.436,1.039-3.068,2.459-3.545,1.126-.379,2.136-.013,1.934,1.16-.092.535-.526.969-.592,1.531A6.354,6.354,0,0,0,133.4,199.692Z" transform="translate(-81.417 -193.202)" fill="#fff" fill-rule="evenodd" opacity="0.3" style="mix-blend-mode: overlay;isolation: isolate"/>
                <g id="Group_7762" data-name="Group 7762" transform="translate(15.671 24.478)">
                  <path id="Path_7996" data-name="Path 7996" d="M122.048,229.447c-4.611-1.367-8.633,7.168-10.642,9.847-1.679,2.238-3.259,4.5-4.813,6.831-1.163,1.744-2.98,3.8-3.223,5.947-.435,3.837,2.781,5.641,6.048,3.575,3.561-2.255,6.306-6.04,8.844-9.357,1.962-2.566,4.528-4.737,6.02-7.645,1.206-2.351,1.549-6.746-.886-8.514A4.459,4.459,0,0,0,122.048,229.447Z" transform="translate(-92.993 -223.57)" fill="#ffa78c" fill-rule="evenodd"/>
                  <g id="Group_7761" data-name="Group 7761" transform="translate(0 25.455)">
                    <path id="Path_7997" data-name="Path 7997" d="M105.761,278.766a98.753,98.753,0,0,1,4.383-15.787c.477-1.3,1.512-3.148,1.512-4.541.571-2.117-1.052-3.523-2.8-4.518-3.352-1.914-7.058-.506-6.882,3.671a46.023,46.023,0,0,1-.508,5.307c-.309,4.1-.513,8.2-.753,12.3-.126,2.147-.979,4.357-.512,6.513.394,1.821,2.11,3.3,3.754,1.691C105.076,282.319,105.444,280.453,105.761,278.766Z" transform="translate(-92.437 -253.08)" fill="#d48b74" fill-rule="evenodd"/>
                    <path id="Path_7998" data-name="Path 7998" d="M105.068,288.662a13.513,13.513,0,0,1,.394,3.171c.2,1.484.654,3.026.92,4.493.22,1.208-.414,2.276-1.334,1-1.465-2.036-1.529-4.487-1.521-6.849,0-.536.708-2.065.567-2.42" transform="translate(-93.027 -259.043)" fill="#d48b74" fill-rule="evenodd"/>
                    <path id="Path_7999" data-name="Path 7999" d="M100.321,296.429q.281-.123.555-.261c1.528-.771.932-1.73.927-3.1-.006-1.318.667-2.542.573-3.869-.067-.951-1.4-3.246-2.527-3.254-.811-.006-1.226.932-1.73,1.4a7.781,7.781,0,0,1-1.443.859c-3.2,1.995-.628,7.032-3.764,9.113a11.531,11.531,0,0,0-1.528.951,1.292,1.292,0,0,0-.353,1.611C94.086,298.579,97.344,297.74,100.321,296.429Z" transform="translate(-90.868 -258.683)" fill="#d48b74" fill-rule="evenodd"/>
                  </g>
                  <path id="Path_8000" data-name="Path 8000" d="M111.731,251.142q.251.1.5.2a7.321,7.321,0,0,0,2.864.665c3.072-.094,5.529-5.47,6.89-7.747,1.881-3.146,3.754-6.782,3.663-10.55-.011-1.745-1.366-3.035-1.829-4.633-.112-.385-.347-4.451-.392-4.437a14.577,14.577,0,0,0-5.675,2.947,58.279,58.279,0,0,0-4,4.635,51.376,51.376,0,0,0-3.5,4.892c-1.335,2.353-4.283,4.433-6.137,6.434a2.964,2.964,0,0,0-.868,1.389c-.2,1.079.8,1.977,1.708,2.587A38.653,38.653,0,0,0,111.731,251.142Z" transform="translate(-92.975 -222.776)" fill="#5176a6" fill-rule="evenodd"/>
                  <path id="Path_8001" data-name="Path 8001" d="M124.482,224.861a13.879,13.879,0,0,1,2.9-1.137c.43-.115.97-.346.936-.79-.037-.5-.725-.591-1.218-.52-8.244,1.194-14.294,8.331-18.6,14.9-1.425,2.176-3.179,3.2-4.924,4.964a4.225,4.225,0,0,0-1.527,2.633c-.351,3.174,3.113,3.276,5.379,3.875-.485-.658-2.146-2.092-2.318-2.817s.7-1.542,1.131-2.039c.99-1.151,2.294-2.073,3.221-3.269,1.2-1.552,2.088-3.346,3.236-4.942,1.9-2.644,4.454-4.437,6.645-6.748A20.1,20.1,0,0,1,124.482,224.861Z" transform="translate(-92.77 -222.393)" fill="#fff" fill-rule="evenodd" opacity="0.3" style="mix-blend-mode: overlay;isolation: isolate"/>
                </g>
                <path id="Path_8002" data-name="Path 8002" d="M154.233,329.091c-.786,1.339-2.039,2.5-2.2,4.046a7.457,7.457,0,0,0,.536,2.864c1.416,4.738.907,9.809.386,14.726-.333,3.138-.72,6.427-2.527,9.013q.464,2.63.929,5.26l2.576-.99c.983,2.465,2.327,5.254,4.914,5.844,1.671.381,3.385-.3,4.938-1.029a71.062,71.062,0,0,0,8.7-4.83c1.128-.734,2.386-1.993,1.8-3.207-.533-1.107-2.1-1.07-3.309-.863a70.336,70.336,0,0,1-7.266,1c-.168-.29.1-.646.4-.807s.653-.265.824-.553a1.28,1.28,0,0,0-.04-1.038,146.755,146.755,0,0,1-5.373-22.1c-.4-2.355-.43-5-1.276-7.239-.71-1.879-1.433-3.7-2.062-5.629-.363-1.113-1.49-2.9-1.49-4.032C154.69,322.422,155.784,326.45,154.233,329.091Z" transform="translate(-85.353 -214.476)" fill="#8a7f76" fill-rule="evenodd" opacity="0.45" style="mix-blend-mode: multiply;isolation: isolate"/>
              </g>
            </g>
          </g>
        </g>
        <g id="Group_7768" data-name="Group 7768" transform="translate(68.527)">
          <circle id="Ellipse_3562" data-name="Ellipse 3562" cx="11.495" cy="11.495" r="11.495" transform="translate(0)" fill="url(#linear-gradient-5)"/>
          <g id="Group_7767" data-name="Group 7767" transform="translate(6.264 5.938)">
            <path id="Path_8004" data-name="Path 8004" d="M138.009,153.729h3.575v3.03h-3.575v4.1h-3.3v-4.1h-3.585v-3.03h3.585v-3.984h3.3Z" transform="translate(-131.121 -149.745)" fill="#fff"/>
          </g>
        </g>
      </g>
      <g id="Group_7774" data-name="Group 7774" transform="translate(154.718 171.072)">
        <g id="Group_7773" data-name="Group 7773" transform="translate(0 0)">
          <path id="Path_8005" data-name="Path 8005" d="M178.91,386.848c0-1.961,21.728-3.55,48.53-3.55s48.529,1.589,48.529,3.55-21.728,3.55-48.529,3.55S178.91,388.809,178.91,386.848Z" transform="translate(-178.91 -219.837)" fill="#162a3d" fill-rule="evenodd" opacity="0.24" style="mix-blend-mode: multiply;isolation: isolate"/>
          <path id="Path_8006" data-name="Path 8006" d="M232.231,255.366l13.7,4a5.839,5.839,0,0,1,2.243,1.018,3.555,3.555,0,0,1,.583,4.3,5.517,5.517,0,0,1-3.778,2.54,12.933,12.933,0,0,1-4.67-.1,58.267,58.267,0,0,1-7.335-1.767c-2.187-.659-4.528-1.525-5.728-3.469a4.959,4.959,0,0,1,4.359-7.562c1.064.03,2.255.37,3.109-.265" transform="translate(-187.029 -197.8)" fill="#b853a1" fill-rule="evenodd"/>
          <path id="Path_8007" data-name="Path 8007" d="M232.886,222.258l.082.027a2.974,2.974,0,0,0,1.842.146c.91-.311.871-1.475,1.138-2.235.343-.974.708-1.914.959-2.919a3.854,3.854,0,0,0,.089-1.851c-.274-1.1-1.731-1.818-2.756-2.065a3.852,3.852,0,0,0-2.244.231c-1.831.7-2.3,3.1-3.022,4.744a2.209,2.209,0,0,0-.267,1.527,2.081,2.081,0,0,0,1.076,1.044A17.61,17.61,0,0,0,232.886,222.258Z" transform="translate(-187.391 -190.847)" fill="#ffa78c" fill-rule="evenodd"/>
          <path id="Path_8008" data-name="Path 8008" d="M233.218,215.944a1.709,1.709,0,0,0,.407,1.648c.377.459.875.8,1.277,1.239.314.341,1.672,2.985,1.326,3.354.3-.317,1.652-4.765,1.98-4.611C236.656,216.846,234.813,216.837,233.218,215.944Z" transform="translate(-188.156 -191.301)" fill="#8a7f76" fill-rule="evenodd" style="mix-blend-mode: multiply;isolation: isolate"/>
          <path id="Path_8009" data-name="Path 8009" d="M185.494,372.24a5.113,5.113,0,0,0,2.4,2.275l10.332,6.2a2.5,2.5,0,0,0,2.217.484c.987-.469.685-1.828.244-2.78a59.574,59.574,0,0,0-4.64-8.71c-1.244-1.822-3.418-4.664-6.035-3.657C187.981,366.834,184.693,370.04,185.494,372.24Z" transform="translate(-180.012 -216.86)" fill="#0078c2" fill-rule="evenodd"/>
          <path id="Path_8010" data-name="Path 8010" d="M185.494,372.24a5.113,5.113,0,0,0,2.4,2.275l10.332,6.2a2.5,2.5,0,0,0,2.217.484c.987-.469.685-1.828.244-2.78a59.574,59.574,0,0,0-4.64-8.71c-1.244-1.822-3.418-4.664-6.035-3.657C187.981,366.834,184.693,370.04,185.494,372.24Z" transform="translate(-180.012 -216.86)" fill="#8a7f76" fill-rule="evenodd" opacity="0.45" style="mix-blend-mode: multiply;isolation: isolate"/>
          <path id="Path_8011" data-name="Path 8011" d="M218.4,285.451c2.261-.236,3.972,1.233,5.438,2.366,5.911,4.563,4.753,8.624,3.155,14.446a135.872,135.872,0,0,1-8.864,23.464c-2.629,5.382-6.451,10.452-9.243,15.8-1.8,3.442-3.011,7.064-4.946,10.471-.788,1.386-1.563,3.178-3.075,4.183-2.189,1.458-5.144.73-7.251-.514-1.608-.951-4.394-2.657-4.275-4.729a7.513,7.513,0,0,1,1.04-2.948l5.467-10.5a93.7,93.7,0,0,1,8.655-14.443c2.438-6.107,4.5-12.219,6.337-18.537.5-1.71,4.671-19.271,5.563-19.172C217.038,285.4,217.761,285.38,218.4,285.451Z" transform="translate(-180.688 -203.132)" fill="#0078c2" fill-rule="evenodd"/>
          <path id="Path_8012" data-name="Path 8012" d="M208.172,332.587a6.228,6.228,0,0,0-4.892,1.2c-1.4,1.247-2.447,3.659-3.3,5.3l-7.132,13.682a16.755,16.755,0,0,0-1.731,4.22,5.652,5.652,0,0,0,.7,4.393,4.42,4.42,0,0,0-5.279,5.125c-1.452-.065-2.016-2.076-1.446-3.413s1.779-2.293,2.509-3.549a15.987,15.987,0,0,0,1.254-3.695,37.641,37.641,0,0,1,3.552-7.722l7.186-12.95c1.07-1.929,1.992-3.944,3.034-5.889.786-1.47,2.057-4.86,3.7-5.51-.049,1.276.828,3.138.109,4.3-.253.411-.7.7-.846,1.162-.241.756.472,1.511,1.227,1.759s1.583.2,2.336.45,1.452,1.029,1.188,1.778A6.841,6.841,0,0,0,208.172,332.587Z" transform="translate(-179.926 -209.689)" fill="#ffebda" fill-rule="evenodd" opacity="0.3" style="mix-blend-mode: color-dodge;isolation: isolate"/>
          <g id="Group_7770" data-name="Group 7770" transform="translate(16.501 89.961)">
            <path id="Path_8013" data-name="Path 8013" d="M228.143,294.857c-3.685,10.99-6.813,22.2-12.656,32.66-.092.164.216.308.312.142,6-10.479,9.829-21.48,12.928-32.675C228.81,294.688,228.243,294.561,228.143,294.857Z" transform="translate(-201.645 -294.689)" fill="#8a7f76" fill-rule="evenodd" opacity="0.45" style="mix-blend-mode: multiply;isolation: isolate"/>
            <path id="Path_8014" data-name="Path 8014" d="M209.964,337.95c-5.092,5.823-9.591,13.323-11.158,20.293-.03.133.2.181.259.056,1.815-3.658,2.951-7.42,5.113-10.993,1.89-3.126,4.3-6.056,6.118-9.2C210.4,337.927,210.1,337.788,209.964,337.95Z" transform="translate(-198.803 -302.053)" fill="#8a7f76" fill-rule="evenodd" opacity="0.45" style="mix-blend-mode: multiply;isolation: isolate"/>
          </g>
          <path id="Path_8015" data-name="Path 8015" d="M280.052,376.649a26.976,26.976,0,0,1-5.07,1.166,4.624,4.624,0,0,0-2.387.565,1.771,1.771,0,0,0-.251,2.758.3.3,0,0,0,.287.1,4.9,4.9,0,0,0,7.152,3.56,39.25,39.25,0,0,0,7.35-5.237c.814-.667,3.237-2.011,3.192-3.4C290.206,372.468,281.359,376.222,280.052,376.649Z" transform="translate(-194.749 -218.345)" fill="#1390b3" fill-rule="evenodd"/>
          <path id="Path_8016" data-name="Path 8016" d="M263.4,347.02c-2.744-5.763-6.126-11.24-8.571-17.155-2.843-6.875-5.2-13.94-8.073-20.8-1.236-2.951-2.324-5.892-3.457-8.837-.894-2.323-2.025-4.565-2.712-6.964-.623-2.177-.25-5.044-1.642-6.925-1.955-2.64-5.743-.562-8.431-.6-3.758-.053-8.481-.869-8.063,4.479.255,3.256,2.127,6.2,3.438,9.108a209.833,209.833,0,0,0,10.306,18.956c3.3,5.682,4.829,11.559,7.452,17.508,2.3,5.207,5.633,9.867,8.08,15.006A92.43,92.43,0,0,0,259.8,363.96c1.541,2.211,5.209,2.081,7.426,1.352a3.233,3.233,0,0,0,2.54-2.631C270.174,357.076,265.637,351.719,263.4,347.02Z" transform="translate(-186.33 -203.075)" fill="#0089de" fill-rule="evenodd"/>
          <path id="Path_8017" data-name="Path 8017" d="M257.139,347.818c-2.2-3.378-4.489-6.621-5.34-10.719a43.265,43.265,0,0,0-2.746-9.474c-3.328-7.292-7.066-14.426-10.634-21.591-3.393-6.814-6.564-13.872-10.243-20.533-.272-.016-.537-.011-.8,0,6.38,14.494,14.8,27.952,21.145,42.458,1.583,3.618,1.807,7.107,2.751,10.876.844,3.371,2.86,6.179,4.7,9,3.841,5.9,7.574,11.919,11.582,17.7.173-.046.353-.086.513-.139.129-.042.258-.092.387-.144C264.84,359.334,260.917,353.609,257.139,347.818Z" transform="translate(-187.174 -203.16)" fill="#dda4e5" fill-rule="evenodd"/>
          <path id="Path_8018" data-name="Path 8018" d="M226.469,293.261c-3.383,1.08-3.982,3.538-2.124,6.514,1.173,1.88,2.623,6.072,4.484,7.2-2.107-1.273-4.636-3.223-7.139-3.486-1.441-.151-6.015.268-6.525,2.141l4.308-15.807a2.839,2.839,0,0,1,3.468-2.545l9.664-.173a12.083,12.083,0,0,1,3.393.215c.247.068,2.658.669,2.6.246q.361,2.8.72,5.6c-1.778-1.281-4.109-1.166-6.19-1.061A26.187,26.187,0,0,0,226.469,293.261Z" transform="translate(-185.092 -203.431)" fill="#8a7f76" fill-rule="evenodd" opacity="0.45" style="mix-blend-mode: multiply;isolation: isolate"/>
          <path id="Path_8019" data-name="Path 8019" d="M238.34,287.767a3.283,3.283,0,0,0,1.487-.195,1.569,1.569,0,0,0,.883-1.191,1.407,1.407,0,0,0-.609-1.334,2.64,2.64,0,0,0-1.371-.289l-2.639-.07c-5.189-.137-10.379-.273-15.569-.306-.965-.006-1.912-.106-1.3.985.188.334.387,1.237.63,1.453.321.286,1.418.17,1.863.2q3.882.251,7.768.431Q233.912,287.657,238.34,287.767Z" transform="translate(-185.751 -202.97)" fill="#c258aa" fill-rule="evenodd"/>
          <path id="Path_8020" data-name="Path 8020" d="M241.027,275.353c.726-.906-.224-2.729-.586-3.6a37.623,37.623,0,0,1-1.624-4.133,31.442,31.442,0,0,1-1.037-11.555c.433-4.472,3.668-8.19,3.844-12.584.239-5.967-5.734-18.488-5.734-18.488-.7-2.119-3.168-2.622-4.972-1.93-3.562,1.365-5.706,4.342-7.441,7.722-3.374,6.578-2.114,13.814-2.207,20.922a98.65,98.65,0,0,1-1.832,15.083,28.054,28.054,0,0,0-.576,8.024c.007.049,9.622.2,10.507.243,1.806.09,3.612.192,5.417.289q1.318.07,2.634.136c.766.037,1.42.286,2.169.358a1.79,1.79,0,0,0,1.224-.283A1.116,1.116,0,0,0,241.027,275.353Z" transform="translate(-185.703 -192.465)" fill="#e367c7" fill-rule="evenodd"/>
          <path id="Path_8021" data-name="Path 8021" d="M221.071,266.288c-.136,3.2-.837,7.242,1.827,9.649.573.518,1.287.983,1.481,1.73-.687.825-2.347-.144-3,.709a1.106,1.106,0,0,0,.207,1.384c.471.474,1.319.43,1.468,1.15a25.381,25.381,0,0,1-3.967-.4,32.469,32.469,0,0,1-.036-9.118c.323-2.834,1.308-5.923,1.063-8.767a63.825,63.825,0,0,1,.079-7.122c.034-1.364.056-2.731.191-4.089.035-.352.762-3.412.684-3.485,1.63,1.507.529,5.956.445,7.95Z" transform="translate(-185.703 -196.756)" fill="#ffebda" fill-rule="evenodd" opacity="0.3" style="mix-blend-mode: color-dodge;isolation: isolate"/>
          <path id="Path_8022" data-name="Path 8022" d="M224.879,253.323a10.926,10.926,0,0,0,.585,13.289,19.492,19.492,0,0,0,7.581,4.826,17.363,17.363,0,0,1,4.805,2.387,4.7,4.7,0,0,1,1.825,4.743,5.571,5.571,0,0,0-.577,2.076c.073.722,1.126,1.294,1.509.678a6.947,6.947,0,0,0,.586-5.925,14.7,14.7,0,0,0-4.439-6.708c-1.9-1.614-4.234-2.774-5.717-4.843-1.825-2.547-1.933-6.014-1.036-9.016.37-1.241,4.2-7.287,3.379-7.981-1.18-.994-5.406,2.994-6.206,3.784A21.491,21.491,0,0,0,224.879,253.323Z" transform="translate(-186.412 -196.544)" fill="#8a7f76" fill-rule="evenodd" opacity="0.45" style="mix-blend-mode: multiply;isolation: isolate"/>
          <path id="Path_8023" data-name="Path 8023" d="M241.343,259.43a40.583,40.583,0,0,1,1.845-4.675,26.834,26.834,0,0,1,1.2-2.8c-1.314.377-2.36,1.9-3.739,2.41-1.216.45-2.781.8-3.1,2.058a3.415,3.415,0,0,0,.459,2.138,24.525,24.525,0,0,1,1.574,4.935,15.82,15.82,0,0,0,.319,2.328c.175.434.848.868.885.041C240.889,263.752,240.722,261.445,241.343,259.43Z" transform="translate(-188.901 -197.441)" fill="#8a7f76" fill-rule="evenodd" opacity="0.45" style="mix-blend-mode: multiply;isolation: isolate"/>
          <path id="Path_8024" data-name="Path 8024" d="M222.671,234.5c.9-1.338,3.747-5.726,5.753-4.035a4.383,4.383,0,0,0,.435.379.539.539,0,0,0,.546.057c.312-.18.2-.642.12-.992-.708-2.952,2.769-5.212,4.523-6.978-1.89.856-3.915,1.556-5.759,2.494-1.76.9-2.914,3.006-3.959,4.595C223.456,231.347,223.472,233.314,222.671,234.5Z" transform="translate(-186.372 -192.492)" fill="#8a7f76" fill-rule="evenodd" opacity="0.45" style="mix-blend-mode: multiply;isolation: isolate"/>
          <path id="Path_8025" data-name="Path 8025" d="M181.3,234.083a4.312,4.312,0,0,0-.143-.741" transform="translate(-179.293 -194.268)" fill="#ffa78c" fill-rule="evenodd"/>
          <path id="Path_8026" data-name="Path 8026" d="M229.91,231.281A12.2,12.2,0,0,0,226,234.873a47.814,47.814,0,0,0-3.463,7.134c-1.039,2.241-1.987,4.489-2.9,6.784-.684,1.721-1.874,3.833-1.691,5.729.33,3.4,3.439,4.362,5.881,1.977,2.661-2.6,4.336-6.375,5.918-9.708,1.256-2.648,2.907-5.023,3.923-7.793.765-2.084,1.693-8.173-1.754-8.263A4.186,4.186,0,0,0,229.91,231.281Z" transform="translate(-185.562 -193.823)" fill="#ffa78c" fill-rule="evenodd"/>
          <path id="Path_8027" data-name="Path 8027" d="M241.747,212.1c.2-.65.4-1.3.665-1.93.468-1.126-.031-2.245-.2-3.364a9.693,9.693,0,0,1,.259-2.578c.212-2.57-2.031-5.837-4.221-7.067-3.4-1.909-6.582-.248-9.688,1.333-2.948,1.5-4.376,5.431-3.616,8.558a8.04,8.04,0,0,0,3.484,4.77c1.118.719,2.184.951,3.257,1.775a19.464,19.464,0,0,0,3.276,2.063c1.789.874,4.711,1.827,5.771-.568A25.509,25.509,0,0,0,241.747,212.1Z" transform="translate(-186.726 -187.953)" fill="#ffa78c" fill-rule="evenodd"/>
          <g id="Group_7772" data-name="Group 7772" transform="translate(31.086 36.071)">
            <path id="Path_8028" data-name="Path 8028" d="M241.115,268.779c-3.211-2.619-6.331-5.356-9.678-7.8-2.564-1.875-7.126-5.707-10.5-5.463-4.017.29-2.655,4.632-.486,6.282s4.957,2.4,7.268,3.75c2.845,1.66,5.733,3.243,8.6,4.867,3.043,1.723,6.025,3.549,9.085,5.242.362.2,2.394,1.579,2.836,1.075.605-.69-.426-2.158-.819-2.668C245.774,271.912,243.194,270.473,241.115,268.779Z" transform="translate(-216.724 -234.117)" fill="#ffa78c" fill-rule="evenodd"/>
            <path id="Path_8029" data-name="Path 8029" d="M250.913,275.3a9.746,9.746,0,0,1,2.23.652c1.048.3,2.208.437,3.264.684.869.2,1.4.933.279,1.177a8.122,8.122,0,0,1-5.009-.961c-.358-.155-1.174-1.069-1.451-1.078" transform="translate(-222.156 -237.492)" fill="#fba58c" fill-rule="evenodd"/>
            <path id="Path_8030" data-name="Path 8030" d="M253.091,277.582c1.258.484,2.486,1.046,2.937,2.064.148.334-.269,1.146-.132,1.457a3.289,3.289,0,0,1-.5,1.672c-.736.671-2.12.785-2.871,1.118-.575.254-1.49-1.186-1.737-1.457a10.972,10.972,0,0,1-2.021-3.507c-.146-.33-1.244-2.274-.4-1.948a11.948,11.948,0,0,0,3.437.393c.4.018.742.343,1.159.158" transform="translate(-221.785 -237.773)" fill="#fba58c" fill-rule="evenodd"/>
            <g id="Group_7771" data-name="Group 7771">
              <path id="Path_8031" data-name="Path 8031" d="M249.868,274.554a.754.754,0,0,1,.017.217,1.369,1.369,0,0,1-.274.628l-1.868,2.847a1.5,1.5,0,0,1-.732.694c-.626.19-.916-.385-1.382-.632-.507-.27-.79-.564-.42-1.13.44-.676.827-1.384,1.257-2.067.374-.594.868-1.1,1.28-1.668.239-.328.375-.459.727-.206C248.9,273.547,249.733,273.961,249.868,274.554Z" transform="translate(-221.272 -237.118)" fill="#e367c7" fill-rule="evenodd"/>
              <path id="Path_8032" data-name="Path 8032" d="M234.237,239.732a34.274,34.274,0,0,1-5.748,10.486,3.276,3.276,0,0,0-1.064,2.547c.178.81.952,1.325,1.656,1.764a73.755,73.755,0,0,1,7.309,5.213c1.3,1.053,2.5,2.224,3.768,3.319.631.546,1.278,1.076,1.959,1.56.492.348,1.663.772,1.6,1.517a1.776,1.776,0,0,1-.234.648q-.755,1.458-1.509,2.916c-.387.747-.77,1.393-1.746,1.29-.709-.075-.885-.567-1.36-.945a19.859,19.859,0,0,0-1.884-.944l-17.608-11.022a6.545,6.545,0,0,1-2.42-2.154c-1-1.806-.111-4.035.782-5.9q2.472-5.15,4.944-10.3c1.33-2.77,2.441-6.319,4.648-8.544a4.145,4.145,0,0,1,6.068.044C235.759,233.455,235.162,236.993,234.237,239.732Z" transform="translate(-216.408 -229.749)" fill="#e367c7" fill-rule="evenodd"/>
              <path id="Path_8033" data-name="Path 8033" d="M221.65,244.609a7.494,7.494,0,0,0-1.039,1.481,18.109,18.109,0,0,0-.6,1.963,20.852,20.852,0,0,1-2.155,3.708,4.5,4.5,0,0,0-.591,4.086c-2.117-.783.2-5.772.785-7.041,1.535-3.317,3.173-6.586,4.854-9.831q1.242-2.4,2.511-4.789a16.889,16.889,0,0,1,1.681-3.259c.757-.884,2.367-.938,3.459-1.206-2.43,1.807-3.544,4.281-4.809,6.915-.844,1.756-1.643,3.541-2.559,5.261-.354.665-.624,1.391-1.028,2.026A7.682,7.682,0,0,1,221.65,244.609Z" transform="translate(-216.386 -229.721)" fill="#ffebda" fill-rule="evenodd" opacity="0.3" style="mix-blend-mode: color-dodge;isolation: isolate"/>
              <path id="Path_8034" data-name="Path 8034" d="M242.523,267.213c-2.833-2.812-6.353-4.875-9.518-7.29-2.05-1.564-4.039-3.2-5.985-4.892-1.857-1.613-2.62-1.652-1.609-4.8a16.143,16.143,0,0,1,1.622-2.965c2.282-3.889,4.746-7.694,6.88-11.668a4.64,4.64,0,0,0-.44-5.342,2.22,2.22,0,0,0,.28,1.15,2.041,2.041,0,0,1,.158.757,5.548,5.548,0,0,1-.379,1.992,25.574,25.574,0,0,1-2.514,4.966c-1.214,1.99-2.689,3.853-3.807,5.9-.942,1.725-4.045,5.788-3.344,7.951.721,2.228,5.38,4.88,7.177,6.295,3.632,2.863,7.457,5.435,10.937,8.49C242.348,268.081,242.879,267.565,242.523,267.213Z" transform="translate(-217.644 -229.813)" fill="#fff" fill-rule="evenodd" style="mix-blend-mode: overlay;isolation: isolate"/>
            </g>
          </g>
          <path id="Path_8035" data-name="Path 8035" d="M242.492,198.312c0,3.943-4.1,7.139-9.168,7.139s-9.168-3.2-9.168-7.139,4.1-7.139,9.168-7.139S242.492,194.37,242.492,198.312Z" transform="translate(-186.625 -187.077)" fill="#4c3129" fill-rule="evenodd"/>
          <path id="Path_8036" data-name="Path 8036" d="M220.857,186.748a3.683,3.683,0,0,0-2.759-.013,2.706,2.706,0,0,0-1.248,2.388,7.965,7.965,0,0,0,.64,2.738,10.028,10.028,0,0,0,2.71,4.627,5.132,5.132,0,0,0,6.3-.065c1.512-1.266,2.433-4.126,1.323-5.942C226.658,188.567,222.881,187.343,220.857,186.748Z" transform="translate(-185.379 -186.275)" fill="#4c3129" fill-rule="evenodd"/>
          <path id="Path_8037" data-name="Path 8037" d="M231.279,211.657c-.28.606-.182,1.375-.746,1.593-.659.255-1.463-.562-1.919-.92-.924-.726-2.241-.532-3.393-.765-2.395-.484-4.01-2.931-4.248-5.363a12.5,12.5,0,0,1,1.125-5.918c.513-1.241,1.7-2.88,3.152-3a4.277,4.277,0,0,1,2.334.71c1.718.937,3.646,1.88,4.7,3.582.719,1.166,1.414,3.773-.46,4.327-.95.28-2.3.455-1.767,1.9a2.89,2.89,0,0,0,1.6,1.461,1.353,1.353,0,0,1,.661.479c.289.513-.231,1.092-.69,1.462A1.214,1.214,0,0,0,231.279,211.657Z" transform="translate(-186.075 -188.118)" fill="#4c3129" fill-rule="evenodd"/>
          <path id="Path_8038" data-name="Path 8038" d="M227.78,218.21a14.562,14.562,0,0,0-5.91-2.4,5.73,5.73,0,0,0-5.575,2.429,7.964,7.964,0,0,0-.8,3.719,12.468,12.468,0,0,0,.292,3.8,5,5,0,0,0,2.165,3.044,5.458,5.458,0,0,0,5-.14,30.879,30.879,0,0,0,4.3-2.916,8.276,8.276,0,0,1,4.778-1.82,2.841,2.841,0,0,0,1.719-.226c1.428-1,.095-2.517-.992-2.863A23.471,23.471,0,0,1,227.78,218.21Z" transform="translate(-185.144 -191.273)" fill="#e367c7" fill-rule="evenodd"/>
          <path id="Path_8039" data-name="Path 8039" d="M246,196.913a.024.024,0,0,0,0-.047" transform="translate(-190.349 -188.048)" fill="none" stroke="#4c3129" stroke-linecap="round" stroke-linejoin="round" stroke-width="1"/>
          <path id="Path_8040" data-name="Path 8040" d="M244.007,195.721c-.177-.168-.488.049-.348.268a8.719,8.719,0,0,1,1.647,6.118c-.338,2.257-1.833,3.13-3.485,4.415-.159.123.013.389.192.331,2.25-.732,3.863-2.131,4.164-4.553A7.776,7.776,0,0,0,244.007,195.721Z" transform="translate(-189.626 -187.843)" fill="#4c3129" fill-rule="evenodd"/>
          <path id="Path_8041" data-name="Path 8041" d="M245.01,196.618c-.184-.031-.319.216-.134.32a7.444,7.444,0,0,1,2.352,1.931,11.631,11.631,0,0,1,1.251,2.774c.058.142.282.178.326,0C249.352,199.411,247.092,196.969,245.01,196.618Z" transform="translate(-190.143 -188.005)" fill="#4c3129" fill-rule="evenodd"/>
          <path id="Path_8042" data-name="Path 8042" d="M219.675,217.676a10.474,10.474,0,0,0-2.1,4.95c-.476,2.143-.851,4.544.317,6.4-2.132-1.311-2.8-4.111-2.778-6.614a7.837,7.837,0,0,1,1.077-4.328,5.756,5.756,0,0,1,4.055-2.369,7.6,7.6,0,0,1,4.142.663C222.6,216.3,221.014,216.213,219.675,217.676Z" transform="translate(-185.084 -191.253)" fill="#ffebda" fill-rule="evenodd" opacity="0.3" style="mix-blend-mode: color-dodge;isolation: isolate"/>
          <path id="Path_8043" data-name="Path 8043" d="M272.5,379.142a7.544,7.544,0,0,0,3.772,2.956c2.843.683,5.348-3,7.8-3.982,1.722-.693,6.739-3.6,5.595-6.066-.788-1.7-4.605-1-6.02-.729a10.76,10.76,0,0,0-5.771,3.007c-1.546-3.164-2.676-6.571-4.209-9.764-1.487-3.1-3.529-6.024-4.893-9.153,1.616,3.709,3.263,7.567,3.164,11.611-.051,2.121-.85,3.094-2.161,4.565-.169.19-3.524,3.483-3.707,2.612a3.737,3.737,0,0,0,3.39,2.879,3.367,3.367,0,0,1,1.745.248,2.633,2.633,0,0,1,.729.95A9.644,9.644,0,0,0,272.5,379.142Z" transform="translate(-193.772 -215.082)" fill="#8a7f76" fill-rule="evenodd" opacity="0.45" style="mix-blend-mode: multiply;isolation: isolate"/>
          <path id="Path_8044" data-name="Path 8044" d="M223.578,201.842c-.144-.6-.484-1.146-.654-1.744-.5-1.737,1.155-3.048.914-4.679-1.174.569-1.728,1.554-2.838.258a5.365,5.365,0,0,1-1.548-3.434c0-.059,0-.117.009-.175a9.146,9.146,0,0,1,1.72-3.8c.81-1.311.028-1.8-1.441-2a2.59,2.59,0,0,0-2.6,1.078,3.923,3.923,0,0,0-.03,2.887,19.5,19.5,0,0,0,1.927,5.154,3.433,3.433,0,0,0,1.586,1.668,10.921,10.921,0,0,0,1.3.294,13.343,13.343,0,0,0-1.681,3.788,8.072,8.072,0,0,0,.023,4.721,4.9,4.9,0,0,0,3.3,3.2c-.977-.8-.924-2.305-.583-3.52S223.87,203.069,223.578,201.842Z" transform="translate(-185.378 -186.235)" fill="#fff" fill-rule="evenodd" opacity="0.3" style="mix-blend-mode: overlay;isolation: isolate"/>
          <path id="Path_8045" data-name="Path 8045" d="M253.838,263.26a4.489,4.489,0,0,1,1.873-.719,13.091,13.091,0,0,0,2.3-.868.721.721,0,0,1,.432-.108.472.472,0,0,1,.315.56,1.242,1.242,0,0,1-.373.6c-.286.3-.768,1.029-.337,1.408.312.275,1-.046,1.383-.085,1.662-.168,3.345-.218,5.013-.328.169.307-.126.669-.431.84s-.68.314-.8.645c-.13.367.026.713-.28,1-.234.222-.723.1-.894.392a1.9,1.9,0,0,0-.085.353.8.8,0,0,1-.474.4c-.892.4-1.754.827-2.61,1.288a6.88,6.88,0,0,1-3.625.71c-.538-.075-2.656-1.1-2.7-1.616C252.413,266.361,252.777,264.138,253.838,263.26Z" transform="translate(-191.461 -199.079)" fill="#fba58c" fill-rule="evenodd"/>
          <path id="Path_8046" data-name="Path 8046" d="M253.109,261.726a1.125,1.125,0,0,0-.677-.162c-.68.1-1,2.468-1.123,3.071a9.791,9.791,0,0,1-.395,1.987c-.211.474-.613.674-.346,1.3a1.5,1.5,0,0,0,1.066.821c1.638.358,1.732-2.083,1.839-3.169a16.534,16.534,0,0,1,.086-1.654c.1-.5.619-1,.353-1.542a1.35,1.35,0,0,0-.555-.5C253.277,261.822,253.194,261.772,253.109,261.726Z" transform="translate(-191.113 -199.079)" fill="#b853a1" fill-rule="evenodd"/>
        </g>
      </g>
    </g>
    <g transform="matrix(1, 0, 0, 1, 0, 217)" filter="url(#EMPOW.IO_)">
      <text id="EMPOW.IO_2" data-name="EMPOW.IO
" transform="translate(38 42)" fill="#fff" font-size="50" font-family="Oxygen-Bold, Oxygen" font-weight="700" letter-spacing="0.1em" opacity="0.5"><tspan x="0" y="62">EMPOW.IO</tspan></text>
    </g>
    <g transform="matrix(1, 0, 0, 1, 0, 217)" filter="url(#HOTTEST_TRENDS_ARE_ALL_HERE)">
      <text id="HOTTEST_TRENDS_ARE_ALL_HERE-2" data-name="HOTTEST TRENDS ARE ALL HERE" transform="translate(38 116)" fill="#f7ff00" font-size="15" font-family="Oxygen-Bold, Oxygen" font-weight="700" letter-spacing="0.16em"><tspan x="0" y="0">HOTTEST TRENDS ARE ALL HERE</tspan></text>
    </g>
    <circle id="Ellipse_481" data-name="Ellipse 481" cx="1.001" cy="1.001" r="1.001" transform="translate(255.044 370.914)" fill="#fff"/>
    <circle id="Ellipse_3565" data-name="Ellipse 3565" cx="1.001" cy="1.001" r="1.001" transform="translate(171.044 238.914)" fill="#fff"/>
    <circle id="Ellipse_3566" data-name="Ellipse 3566" cx="1.001" cy="1.001" r="1.001" transform="translate(357.044 270.914)" fill="#fff"/>
    <circle id="Ellipse_3564" data-name="Ellipse 3564" cx="1.001" cy="1.001" r="1.001" transform="translate(173.044 284.914)" fill="#fff"/>
    <g id="Group_7780" data-name="Group 7780" transform="translate(259 90)">
      <path id="Path_7244" data-name="Path 7244" d="M3.488,2.326V0H2.326V2.326H0V3.488H2.326V5.814H3.488V3.488H5.814V2.326Z" transform="translate(57.896 183.099) rotate(28)" fill="#fff" fill-rule="evenodd"/>
    </g>
    <g id="Group_7779" data-name="Group 7779" transform="translate(-9 76)">
      <path id="Path_7244-2" data-name="Path 7244" d="M3.488,2.326V0H2.326V2.326H0V3.488H2.326V5.814H3.488V3.488H5.814V2.326Z" transform="translate(57.896 183.099) rotate(28)" fill="#fff" fill-rule="evenodd"/>
    </g>
    <g id="Group_7782" data-name="Group 7782" transform="translate(271 219)">
      <path id="Path_7244-3" data-name="Path 7244" d="M3.488,2.326V0H2.326V2.326H0V3.488H2.326V5.814H3.488V3.488H5.814V2.326Z" transform="translate(57.896 183.099) rotate(28)" fill="#fff" fill-rule="evenodd"/>
    </g>
    <g id="Group_7781" data-name="Group 7781" transform="translate(-1 180)">
      <path id="Path_7244-4" data-name="Path 7244" d="M3.488,2.326V0H2.326V2.326H0V3.488H2.326V5.814H3.488V3.488H5.814V2.326Z" transform="translate(57.896 183.099) rotate(28)" fill="#fff" fill-rule="evenodd"/>
    </g>
    <g id="Group_7783" data-name="Group 7783" transform="translate(147 166)">
      <path id="Path_7244-5" data-name="Path 7244" d="M2.2,1.463V0H1.463V1.463H0V2.2H1.463V3.658H2.2V2.2H3.658V1.463Z" transform="translate(56.885 183.099) rotate(28)" fill="#fff" fill-rule="evenodd"/>
    </g>
  </g>
</svg>
