<svg xmlns="http://www.w3.org/2000/svg" xmlns:xlink="http://www.w3.org/1999/xlink" width="116.168" height="38" viewBox="0 0 116.168 38">
  <defs>
    <clipPath id="clip-path">
      <path id="Path_7830" data-name="Path 7830" d="M151.468,137.066l-5.238-3.024-10.1-5.834c-.561-.324-1.12-.128-1.12.549v23.768c0,.508.4.727.887.445L146.229,147l5.238-3.024,5.035-2.907c.591-.341.534-.809.036-1.078S151.468,137.066,151.468,137.066Z" transform="translate(-135.006 -128.056)" fill="none"/>
    </clipPath>
    <linearGradient id="linear-gradient" x1="0.5" x2="0.5" y2="1" gradientUnits="objectBoundingBox">
      <stop offset="0" stop-color="#006aa2"/>
      <stop offset="0.345" stop-color="#2f8da6"/>
      <stop offset="0.786" stop-color="#66b6ac"/>
      <stop offset="1" stop-color="#7cc6af"/>
    </linearGradient>
    <linearGradient id="linear-gradient-2" y1="0.5" x2="1" y2="0.5" gradientUnits="objectBoundingBox">
      <stop offset="0" stop-color="#4ab59d"/>
      <stop offset="1" stop-color="#dfe385"/>
    </linearGradient>
    <linearGradient id="linear-gradient-3" x1="0.5" x2="0.5" y2="1" gradientUnits="objectBoundingBox">
      <stop offset="0" stop-color="#e4282d"/>
      <stop offset="0.316" stop-color="#ba2d4e"/>
      <stop offset="0.777" stop-color="#83357b"/>
      <stop offset="1" stop-color="#6e388d"/>
    </linearGradient>
    <linearGradient id="linear-gradient-4" x1="0.5" x2="0.5" y2="1" gradientUnits="objectBoundingBox">
      <stop offset="0" stop-color="#f07165"/>
      <stop offset="0.659" stop-color="#faa460"/>
      <stop offset="1" stop-color="#ffba5e"/>
    </linearGradient>
  </defs>
  <g id="Group_7733" data-name="Group 7733" transform="translate(-96.641 -94.522)">
    <path id="Path_7825" data-name="Path 7825" d="M212.809,127.386a5.135,5.135,0,0,1-5.134,5.136h-105.9a5.136,5.136,0,0,1-5.135-5.136V99.657a5.136,5.136,0,0,1,5.135-5.135h105.9a5.135,5.135,0,0,1,5.134,5.135Z" transform="translate(0 0)"/>
    <g id="PLAY" transform="translate(105.355 102.138)">
      <g id="Group_7728" data-name="Group 7728" transform="translate(0 0)" clip-path="url(#clip-path)">
        <path id="Path_7826" data-name="Path 7826" d="M135.006,126.293v25.734l12.976-12.867Z" transform="translate(-135.006 -126.693)" fill="url(#linear-gradient)"/>
        <path id="Path_7827" data-name="Path 7827" d="M151.468,135.385l-5.238-3.024-11.224-6.48v.094l12.976,12.867Z" transform="translate(-135.006 -126.374)" fill="url(#linear-gradient-2)"/>
        <path id="Path_7828" data-name="Path 7828" d="M135.006,195.812v.093l11.224-6.48,5.238-3.024-3.485-3.456Z" transform="translate(-135.006 -170.479)" fill="url(#linear-gradient-3)"/>
        <path id="Path_7829" data-name="Path 7829" d="M195.625,167.729l-3.485,3.456,3.485,3.456,5.986-3.456Z" transform="translate(-179.163 -158.718)" fill="url(#linear-gradient-4)"/>
      </g>
    </g>
    <g id="Group_7729" data-name="Group 7729" transform="translate(183.567 108.874)">
      <path id="Path_7831" data-name="Path 7831" d="M482.85,178.7a3.239,3.239,0,0,1-1.335-.27,2.517,2.517,0,0,1-1.014-.83h-.082a10.062,10.062,0,0,1,.082,1.243v3.08h-1.133V171.077h.922l.157,1.024h.055a2.639,2.639,0,0,1,1.018-.888,3.094,3.094,0,0,1,1.331-.273,2.766,2.766,0,0,1,2.3,1.017,5.419,5.419,0,0,1-.013,5.719A2.773,2.773,0,0,1,482.85,178.7Zm-.164-6.794a2.008,2.008,0,0,0-1.659.635,3.27,3.27,0,0,0-.526,2.021v.252a3.744,3.744,0,0,0,.526,2.257,2,2,0,0,0,1.686.679,1.755,1.755,0,0,0,1.52-.785,3.726,3.726,0,0,0,.549-2.165,3.586,3.586,0,0,0-.549-2.147A1.809,1.809,0,0,0,482.686,171.9Z" transform="translate(-479.368 -167.935)" fill="#f9f9f9"/>
      <path id="Path_7832" data-name="Path 7832" d="M516.078,168.336h-1.134V157.711h1.134Z" transform="translate(-506.864 -157.711)" fill="#f9f9f9"/>
      <path id="Path_7833" data-name="Path 7833" d="M531.06,178.607l-.226-1.065h-.055a3.139,3.139,0,0,1-1.117.953,3.4,3.4,0,0,1-1.389.249,2.5,2.5,0,0,1-1.745-.574,2.09,2.09,0,0,1-.632-1.632q0-2.267,3.626-2.376l1.271-.041v-.464a1.9,1.9,0,0,0-.379-1.3,1.557,1.557,0,0,0-1.212-.42,4.935,4.935,0,0,0-2.117.573l-.348-.867a5.327,5.327,0,0,1,1.212-.471A5.247,5.247,0,0,1,529.27,171a2.852,2.852,0,0,1,1.984.594,2.481,2.481,0,0,1,.645,1.905v5.108Zm-2.561-.8a2.3,2.3,0,0,0,1.663-.58,2.149,2.149,0,0,0,.6-1.626v-.676l-1.134.048a4.121,4.121,0,0,0-1.949.42,1.267,1.267,0,0,0-.6,1.157,1.166,1.166,0,0,0,.372.935A1.544,1.544,0,0,0,528.5,177.808Z" transform="translate(-515.329 -167.982)" fill="#f9f9f9"/>
      <path id="Path_7834" data-name="Path 7834" d="M555.222,171.541h1.215l1.639,4.268a16.3,16.3,0,0,1,.67,2.11h.055q.089-.349.372-1.192t1.854-5.186h1.216l-3.216,8.522a4.254,4.254,0,0,1-1.117,1.793,2.375,2.375,0,0,1-1.567.529,4.572,4.572,0,0,1-1.025-.116v-.908a3.959,3.959,0,0,0,.84.082,1.732,1.732,0,0,0,1.666-1.311l.416-1.065Z" transform="translate(-537.994 -168.4)" fill="#f9f9f9"/>
    </g>
    <g id="Group_7731" data-name="Group 7731" transform="translate(131.894 108.037)">
      <path id="Path_7835" data-name="Path 7835" d="M382.382,172.685a2.55,2.55,0,0,1-.2,4.336,1.1,1.1,0,0,0-.438.768.858.858,0,0,0,.407.673l.564.437a2.726,2.726,0,0,1,1.314,2.193c0,1.471-1.424,2.958-4.116,2.958-2.27,0-3.365-1.08-3.365-2.239a2.252,2.252,0,0,1,1.205-1.91,6.743,6.743,0,0,1,2.99-.72,1.639,1.639,0,0,1-.47-1.064,1.411,1.411,0,0,1,.157-.611c-.173.016-.345.031-.5.031a2.475,2.475,0,0,1-2.6-2.457,2.816,2.816,0,0,1,1-2.1,4.268,4.268,0,0,1,2.8-.861h3.224l-1,.563Zm-1.112,6.95a2.427,2.427,0,0,0-.36-.016,6.252,6.252,0,0,0-1.644.252,1.758,1.758,0,0,0-1.346,1.612c0,1.111,1.081,1.91,2.756,1.91,1.5,0,2.3-.722,2.3-1.691C382.977,180.9,382.46,180.481,381.27,179.636Zm.454-2.975a1.583,1.583,0,0,0,.39-1.143c0-1.127-.673-2.88-1.971-2.88a1.463,1.463,0,0,0-1.1.517,1.809,1.809,0,0,0-.345,1.159c0,1.048.61,2.786,1.957,2.786A1.6,1.6,0,0,0,381.724,176.661Z" transform="translate(-348.224 -168.012)" fill="#f9f9f9"/>
      <path id="Path_7836" data-name="Path 7836" d="M345.886,178.628a3.688,3.688,0,0,1-3.813-3.689,3.873,3.873,0,0,1,4.048-3.8,3.654,3.654,0,0,1,3.734,3.688A3.819,3.819,0,0,1,345.886,178.628Zm1.953-1.266a2.827,2.827,0,0,0,.469-1.735c0-1.375-.656-4-2.594-4a2.176,2.176,0,0,0-1.406.532,2.365,2.365,0,0,0-.72,1.907c0,1.546.766,4.093,2.657,4.093A2,2,0,0,0,347.839,177.362Z" transform="translate(-321.583 -167.255)" fill="#f9f9f9"/>
      <path id="Path_7837" data-name="Path 7837" d="M308.589,178.628a3.688,3.688,0,0,1-3.813-3.689,3.873,3.873,0,0,1,4.048-3.8,3.654,3.654,0,0,1,3.735,3.688A3.819,3.819,0,0,1,308.589,178.628Zm1.953-1.266a2.83,2.83,0,0,0,.469-1.735c0-1.375-.657-4-2.595-4a2.178,2.178,0,0,0-1.406.532,2.365,2.365,0,0,0-.719,1.907c0,1.546.765,4.093,2.657,4.093A2,2,0,0,0,310.543,177.362Z" transform="translate(-292.757 -167.255)" fill="#f9f9f9"/>
      <path id="Path_7838" data-name="Path 7838" d="M262.681,166.345l-2.247.519a16.627,16.627,0,0,1-2.592.267,5.583,5.583,0,0,1-5.986-5.688c0-3.048,2.341-5.875,6.348-5.875a9.044,9.044,0,0,1,2.4.33,6.123,6.123,0,0,1,2.074.974l-1.3,1.241-.55.125.393-.629a4.491,4.491,0,0,0-3.362-1.476,4.34,4.34,0,0,0-4.353,4.635,5.557,5.557,0,0,0,5.562,5.734,4.679,4.679,0,0,0,2-.393V163.58l-2.372.125,1.256-.676h3.331l-.408.392a.368.368,0,0,0-.158.251c-.016.142-.031.6-.031.755Z" transform="translate(-251.856 -155.217)" fill="#f9f9f9"/>
      <path id="Path_7839" data-name="Path 7839" d="M412.758,164.7c-.519-.047-.627-.141-.627-.755v-8.893c0-.034.005-.069.009-.1.063-.549.22-.644.708-.927H410.6l-1.179.566h1.2v9.7c0,.314-.062.361-.424.832h2.781l.581-.345C413.293,164.749,413.026,164.733,412.758,164.7Z" transform="translate(-373.635 -154.026)" fill="#f9f9f9"/>
      <path id="Path_7840" data-name="Path 7840" d="M432.885,178.093c-.171.094-.343.2-.514.281a3.637,3.637,0,0,1-1.515.3,3.335,3.335,0,0,1-2.076-.609,4.038,4.038,0,0,1-1.591-3.293,3.536,3.536,0,0,1,3.573-3.6,3.033,3.033,0,0,1,1.608.437,2.583,2.583,0,0,1,1.091,1.544l-3.666,1.483-1.2.094c.39,1.981,1.731,3.135,3.214,3.135a4.032,4.032,0,0,0,1.9-.545Zm-1.466-4.65c.3-.109.452-.2.452-.421a1.548,1.548,0,0,0-1.545-1.342,1.922,1.922,0,0,0-1.794,2.169c0,.265.031.546.047.828Z" transform="translate(-387.368 -167.272)" fill="#f9f9f9"/>
      <g id="Group_7730" data-name="Group 7730" transform="translate(46.558 3.893)">
        <path id="Path_7841" data-name="Path 7841" d="M457.312,171.272v1.03h-.125v-1.03h-.341v-.107h.806v.107Z" transform="translate(-456.846 -171.165)" fill="#f9f9f9"/>
        <path id="Path_7842" data-name="Path 7842" d="M462.156,172.3v-1.039h-.006l-.317,1.039h-.1l-.32-1.039h0V172.3H461.3v-1.136h.195l.29.918h0l.285-.918h.2V172.3Z" transform="translate(-460.287 -171.165)" fill="#f9f9f9"/>
      </g>
    </g>
    <g id="Group_7732" data-name="Group 7732" transform="translate(131.921 102.077)">
      <path id="Path_7843" data-name="Path 7843" d="M255.068,131.287h-.781a5.18,5.18,0,0,0-.222-.913h-1.127a4.718,4.718,0,0,0-.229.913h-.734q0-.1.57-1.561a12.256,12.256,0,0,0,.57-1.615h.922a13.475,13.475,0,0,0,.516,1.592A13.925,13.925,0,0,1,255.068,131.287Zm-1.127-1.379a13.8,13.8,0,0,1-.417-1.361h-.039a14.273,14.273,0,0,1-.432,1.361Z" transform="translate(-251.974 -128.037)" fill="#f7f8f8"/>
      <path id="Path_7844" data-name="Path 7844" d="M270.538,131.287h-.6a5.944,5.944,0,0,0-.671-1.057,5.815,5.815,0,0,1-.8-1.378h-.039a8.6,8.6,0,0,1,.061.966q0,.6.034,1.469h-.6q.037-.756.037-1.662,0-.89-.037-1.515h.725a4.584,4.584,0,0,0,.6,1.032,6.077,6.077,0,0,1,.737,1.3h.037a9.258,9.258,0,0,1-.058-.976q0-.661-.034-1.357h.61q-.034.605-.034,1.515T270.538,131.287Z" transform="translate(-264.298 -128.037)" fill="#f7f8f8"/>
      <path id="Path_7845" data-name="Path 7845" d="M285.884,129.539a1.8,1.8,0,0,1-.444,1.21,1.551,1.551,0,0,1-1.244.517q-.361,0-1-.029.032-.737.032-1.662,0-.888-.032-1.515h.427q.1,0,.312-.007t.271-.007a1.644,1.644,0,0,1,1.277.439A1.518,1.518,0,0,1,285.884,129.539Zm-.666.1a1.175,1.175,0,0,0-.273-.789,1.036,1.036,0,0,0-.834-.321,2.6,2.6,0,0,0-.288.022q.024.488.025,1.02,0,.583.024,1.157a1.617,1.617,0,0,0,.317.032.922.922,0,0,0,.777-.326A1.258,1.258,0,0,0,285.218,129.644Z" transform="translate(-276.108 -127.987)" fill="#f7f8f8"/>
      <path id="Path_7846" data-name="Path 7846" d="M300.622,131.237H299.9a4.8,4.8,0,0,0-.434-1.066.569.569,0,0,0-.488-.2l-.271,0q0,.627.022,1.266h-.678q.032-.737.032-1.662,0-.888-.032-1.515h.422q.073,0,.306-.007t.431-.007q1.12,0,1.12.766a.859.859,0,0,1-.639.847v.037a.761.761,0,0,1,.432.384A8.474,8.474,0,0,1,300.622,131.237Zm-.915-2.245q0-.485-.625-.486a2.144,2.144,0,0,0-.405.034q.027.378.027.985.134.005.227.005Q299.708,129.532,299.708,128.993Z" transform="translate(-287.586 -127.987)" fill="#f7f8f8"/>
      <path id="Path_7847" data-name="Path 7847" d="M314.2,129.391a1.752,1.752,0,0,1-.459,1.242,1.488,1.488,0,0,1-1.134.493,1.434,1.434,0,0,1-1.078-.452,1.594,1.594,0,0,1-.434-1.15,1.752,1.752,0,0,1,.459-1.242,1.488,1.488,0,0,1,1.134-.493,1.437,1.437,0,0,1,1.078.451A1.594,1.594,0,0,1,314.2,129.391Zm-.673.071a1.26,1.26,0,0,0-.261-.827.8.8,0,0,0-.644-.317.744.744,0,0,0-.605.32,1.277,1.277,0,0,0-.249.808,1.256,1.256,0,0,0,.262.826.8.8,0,0,0,.643.318.744.744,0,0,0,.605-.321A1.277,1.277,0,0,0,313.529,129.462Z" transform="translate(-297.669 -127.788)" fill="#f7f8f8"/>
      <path id="Path_7848" data-name="Path 7848" d="M328.5,131.287h-.69q.032-.756.032-1.662,0-.89-.032-1.515h.69q-.032.615-.032,1.515Q328.464,130.545,328.5,131.287Z" transform="translate(-310.582 -128.037)" fill="#f7f8f8"/>
      <path id="Path_7849" data-name="Path 7849" d="M337.283,129.539a1.8,1.8,0,0,1-.444,1.21,1.551,1.551,0,0,1-1.244.517q-.361,0-1-.029.032-.737.032-1.662,0-.888-.032-1.515h.427q.1,0,.312-.007t.271-.007a1.644,1.644,0,0,1,1.277.439A1.519,1.519,0,0,1,337.283,129.539Zm-.666.1a1.177,1.177,0,0,0-.273-.789,1.037,1.037,0,0,0-.834-.321,2.6,2.6,0,0,0-.288.022q.025.488.025,1.02,0,.583.024,1.157a1.617,1.617,0,0,0,.317.032.922.922,0,0,0,.777-.326A1.258,1.258,0,0,0,336.617,129.644Z" transform="translate(-315.833 -127.987)" fill="#f7f8f8"/>
      <path id="Path_7850" data-name="Path 7850" d="M356.544,131.287h-.781a5.144,5.144,0,0,0-.222-.913h-1.127a4.706,4.706,0,0,0-.229.913h-.734q0-.1.57-1.561a12.243,12.243,0,0,0,.57-1.615h.922a13.452,13.452,0,0,0,.516,1.592A13.99,13.99,0,0,1,356.544,131.287Zm-1.127-1.379a13.844,13.844,0,0,1-.417-1.361h-.039a14.263,14.263,0,0,1-.432,1.361Z" transform="translate(-330.403 -128.037)" fill="#f7f8f8"/>
      <path id="Path_7851" data-name="Path 7851" d="M371.714,128.892a.951.951,0,0,1-.433.861,1.924,1.924,0,0,1-1.062.278q-.115,0-.164,0,0,.459.027,1.21H369.4q.032-.705.032-1.662,0-.878-.032-1.515h.425q.09,0,.346-.007t.444-.007a1.4,1.4,0,0,1,.783.21A.71.71,0,0,1,371.714,128.892Zm-.63.134q0-.522-.693-.522a1.951,1.951,0,0,0-.366.037q.027.461.027,1.044c.041,0,.088,0,.141,0Q371.084,129.59,371.084,129.027Z" transform="translate(-342.727 -127.987)" fill="#f7f8f8"/>
      <path id="Path_7852" data-name="Path 7852" d="M384.6,128.892a.951.951,0,0,1-.433.861,1.926,1.926,0,0,1-1.063.278c-.077,0-.131,0-.163,0q0,.459.027,1.21h-.686q.032-.705.032-1.662,0-.878-.032-1.515h.424q.09,0,.347-.007t.444-.007a1.4,1.4,0,0,1,.783.21A.709.709,0,0,1,384.6,128.892Zm-.629.134q0-.522-.693-.522a1.951,1.951,0,0,0-.366.037q.027.461.027,1.044.061.005.141,0Q383.968,129.59,383.968,129.027Z" transform="translate(-352.685 -127.987)" fill="#f7f8f8"/>
      <path id="Path_7853" data-name="Path 7853" d="M402.981,129.391a1.752,1.752,0,0,1-.459,1.242,1.488,1.488,0,0,1-1.134.493,1.434,1.434,0,0,1-1.078-.452,1.6,1.6,0,0,1-.434-1.15,1.752,1.752,0,0,1,.459-1.242,1.489,1.489,0,0,1,1.135-.493,1.437,1.437,0,0,1,1.078.451A1.6,1.6,0,0,1,402.981,129.391Zm-.673.071a1.259,1.259,0,0,0-.261-.827.8.8,0,0,0-.644-.317.745.745,0,0,0-.605.32,1.276,1.276,0,0,0-.249.808,1.256,1.256,0,0,0,.262.826.8.8,0,0,0,.643.318.743.743,0,0,0,.605-.321A1.276,1.276,0,0,0,402.307,129.462Z" transform="translate(-366.283 -127.788)" fill="#f7f8f8"/>
      <path id="Path_7854" data-name="Path 7854" d="M419.2,131.287h-.6a5.944,5.944,0,0,0-.671-1.057,5.817,5.817,0,0,1-.8-1.378h-.039a8.641,8.641,0,0,1,.061.966q0,.6.034,1.469h-.6q.036-.756.037-1.662,0-.89-.037-1.515h.725a4.591,4.591,0,0,0,.6,1.032,6.077,6.077,0,0,1,.737,1.3h.037a9.2,9.2,0,0,1-.059-.976q0-.661-.034-1.357h.61q-.034.605-.034,1.515T419.2,131.287Z" transform="translate(-379.197 -128.037)" fill="#f7f8f8"/>
    </g>
  </g>
</svg>
