<svg xmlns="http://www.w3.org/2000/svg" xmlns:xlink="http://www.w3.org/1999/xlink" width="375" height="446" viewBox="0 0 375 446">
  <defs>
    <linearGradient id="linear-gradient" x1="0.194" y1="2.89" x2="0.194" y2="1.651" gradientUnits="objectBoundingBox">
      <stop offset="0" stop-color="#fff"/>
      <stop offset="0.995" stop-color="#3ac1b0" stop-opacity="0"/>
    </linearGradient>
    <linearGradient id="linear-gradient-2" x1="0.978" y1="4.53" x2="0.978" y2="3.29" xlink:href="#linear-gradient"/>
    <clipPath id="clip-Lucky_Spin_2">
      <rect width="375" height="446"/>
    </clipPath>
  </defs>
  <g id="Lucky_Spin_2" data-name="Lucky Spin – 2" clip-path="url(#clip-Lucky_Spin_2)">
    <rect width="375" height="446" fill="#413d5d"/>
    <g id="Group_8091" data-name="Group 8091" transform="translate(19 79)">
      <g id="Group_8059" data-name="Group 8059" transform="translate(27.841 -45.428)">
        <g id="Group_8058" data-name="Group 8058" transform="translate(0 0)">
          <g id="Group_8056" data-name="Group 8056" transform="translate(0 148.771)">
            <path id="Path_8504" data-name="Path 8504" d="M261.94,321.277l6.557,6.557-99.31,121.938L140,420.587Z" transform="translate(-140.002 -321.277)" fill="url(#linear-gradient)"/>
          </g>
          <g id="Group_8057" data-name="Group 8057">
            <path id="Path_8506" data-name="Path 8506" d="M268.5,236.5l-6.557,6.557L140,143.752l29.186-29.186Z" transform="translate(-140.002 -114.566)" fill="url(#linear-gradient-2)"/>
          </g>
        </g>
      </g>
      <g id="Group_8089" data-name="Group 8089" transform="translate(121.857 -55.604)">
        <g id="Group_8087" data-name="Group 8087">
          <g id="Group_8062" data-name="Group 8062" transform="translate(34.592 76.362)">
            <path id="Path_8507" data-name="Path 8507" d="M348.8,210.728s3.465-6.192,7.8-3.538c7.047,4.318,4.8,14.034,4.8,14.034l-1.619-4.318s2.159,6.837-1.259,11.515l.36-4.5s-2.7,6.477-7.557,7.2-5.578.72-6.117,3.6,3.41,4.793,2.159,4.588c-4.408-.72-3.958-6.3-3.958-6.3l-.72,4.048s-5.578-10.8-5.218-15.834a18.606,18.606,0,0,1,2.7-8.457l-2.879,1.08S345.919,200.112,348.8,210.728Z" transform="translate(-323.907 -206.528)" fill="#333"/>
            <path id="Path_8508" data-name="Path 8508" d="M347.841,227.957c2.31-4.173,5.824-8.832-2.393-13.15-1.324-.7-4.456-.158-5.7-.21-.867-.037-.967.879-1.744,1a14.555,14.555,0,0,0-8.876,5.3s5.2,7.949-10.259,18.039c-1.806,1.179,11.093,21.379,12.363,13.9C335.552,227.4,346.453,230.463,347.841,227.957Z" transform="translate(-318.698 -208.748)" fill="#eabfa5"/>
            <g id="Group_8061" data-name="Group 8061" transform="translate(6.586 5.37)">
              <g id="Group_8060" data-name="Group 8060" transform="translate(7.142 3.126)">
                <path id="Path_8509" data-name="Path 8509" d="M339.759,218.385s2.519-.689,5.32,2.984a.647.647,0,0,1-.308,1.029,9.546,9.546,0,0,1-5.492.1C335.628,221.227,339.759,218.385,339.759,218.385Z" transform="translate(-337.772 -218.334)" fill="#d84744"/>
                <path id="Path_8510" data-name="Path 8510" d="M345.914,223.744c.017-.005.026-.019.042-.025a3.086,3.086,0,0,0-1.815-.584,3,3,0,0,0-2.292,1.018A10.838,10.838,0,0,0,345.914,223.744Z" transform="translate(-338.915 -219.679)" fill="#822a2a"/>
                <path id="Path_8511" data-name="Path 8511" d="M344.987,221.968s-2.459-2.4-5.1-2.638c0,0,2.4.689-.12.779,0,0-.72-.36-.36-.959a5.945,5.945,0,0,1,.722-.6.78.78,0,0,1,.558-.16A4.856,4.856,0,0,1,344.987,221.968Z" transform="translate(-338.203 -218.348)" fill="#eef9f9"/>
                <path id="Path_8512" data-name="Path 8512" d="M338.213,223.043c-.006.005-.012.015-.019.021a3.1,3.1,0,0,0,1.2.684,6.638,6.638,0,0,0,1.411.311l.013-.026s.405-.36-.09-.81A2.709,2.709,0,0,0,338.213,223.043Z" transform="translate(-337.89 -219.589)" fill="#eef9f9"/>
                <path id="Path_8513" data-name="Path 8513" d="M339.812,224.031a7.926,7.926,0,0,0,3.4.31,4.847,4.847,0,0,0-2.244-.52,5.371,5.371,0,0,0-1.293.157C339.72,224,339.763,224.015,339.812,224.031Z" transform="translate(-338.305 -219.872)" fill="#ffabab"/>
              </g>
              <path id="Path_8514" data-name="Path 8514" d="M331.361,231.522c.609,5.9-2.719,18.9-3.512,21.876.105.125.21.25.315.371l6.665-3.486c3.036-12.594,7.931-16.26,11.453-17.833-1.34-.614-2.715-1.262-4.086-1.939-8.277-4.079-10.5-7.11-10.5-7.11S333.781,226.6,331.361,231.522Z" transform="translate(-327.849 -216.628)" fill="#d8a98f"/>
              <path id="Path_8515" data-name="Path 8515" d="M357.678,231.514s1.739.42.42,2.219-5.4,1.86-4.378-.42S357.678,231.514,357.678,231.514Z" transform="translate(-335.055 -218.89)" fill="#eabfa5"/>
              <path id="Path_8516" data-name="Path 8516" d="M351.783,219.081s3.419-1.619,4.408,2.7A4.154,4.154,0,0,0,351.783,219.081Z" transform="translate(-334.558 -215.333)" fill="#822a2a"/>
              <path id="Path_8517" data-name="Path 8517" d="M353.783,217.633s4.8-1.259,4.318,3.178A4.177,4.177,0,0,0,353.783,217.633Z" transform="translate(-335.118 -214.965)" fill="#333"/>
              <path id="Path_8518" data-name="Path 8518" d="M347.241,214.409s2.7.119,2.858,1.619C350.1,216.028,350.51,212.879,347.241,214.409Z" transform="translate(-333.284 -213.99)" fill="#333"/>
              <path id="Path_8519" data-name="Path 8519" d="M348.248,217.016s.369-1.962-3.049-.762C345.2,216.254,347.388,215.864,348.248,217.016Z" transform="translate(-332.712 -214.515)" fill="#822a2a"/>
              <path id="Path_8520" data-name="Path 8520" d="M346.374,217.249l-.567-.527s.253-.643,1.782-.058a4.009,4.009,0,0,0,2.564.225l-2.789,2.024Z" transform="translate(-332.883 -214.67)" fill="#f7cab2"/>
              <path id="Path_8521" data-name="Path 8521" d="M344.6,217.532l.872-.751a.631.631,0,0,1,1.018.3l.539,1.886A4.5,4.5,0,0,0,344.6,217.532Z" transform="translate(-332.543 -214.729)" fill="#d8a98f"/>
              <path id="Path_8522" data-name="Path 8522" d="M357.977,232.634s.27,1.665-2.069,1.665c0,0,1.124-.5.9-.945s-.855-.4-.855-.4,1.17-.09,1.259.18a1.7,1.7,0,0,1,.045.63Z" transform="translate(-335.714 -219.216)" fill="#d8a98f"/>
            </g>
            <path id="Path_8523" data-name="Path 8523" d="M354.658,229.152s3.6-.45,3.958-2.969a6.918,6.918,0,0,0,2.548-1.529c1.116-1.06-1.919,5.848-1.919,5.848s-.72-1.259-3.958.18Z" transform="translate(-328.777 -211.578)" fill="#333"/>
          </g>
          <g id="Group_8083" data-name="Group 8083" transform="translate(30.163)">
            <g id="Group_8082" data-name="Group 8082" transform="translate(13.982)">
              <g id="Group_8066" data-name="Group 8066">
                <g id="Group_8063" data-name="Group 8063">
                  <path id="Path_8524" data-name="Path 8524" d="M353.921,110.522c.91,1.776,3.49,1.408,5.225.133A5.089,5.089,0,0,0,361,105.6c-.738-4.527-6.035-6.513-10.973-4.2-6.31,2.962-7.868,9.024-8.043,14.406-.086,2.645,1.06,7.481-2.977,8.7-2.548.773-3.831-1.324-4.382-3.013-.37-1.135-.319-2.844,1.48-3.312,1.735-.45,2.975,1.541.805,1.495l.317,1.878.378-.194c1.408-.723.149-2.394-1.255-1.674l-.378.194a.983.983,0,0,0,.318,1.878c1.692.036,3.934-.41,4.449-2.157.485-1.645-1.134-3.2-2.806-3.532a5.382,5.382,0,0,0-5.262,2.215c-1.347,1.98-.528,4.248.553,5.946a5.018,5.018,0,0,0,5.395,2.472,6.785,6.785,0,0,0,5.2-3.826c1.021-2.356.523-4.944.6-7.314.1-3.216.5-6.833,2.99-9.635,2.294-2.584,6.767-4.844,9.728-2.461a4.265,4.265,0,0,1,1.514,3.306,3.11,3.11,0,0,1-.425,1.758c-.168.248-1.825,1.467-1.961,1.2-.6-1.168-2.954-.4-2.348.787Z" transform="translate(-331.971 -100.427)" fill="#e5a920"/>
                </g>
                <path id="Path_8525" data-name="Path 8525" d="M374.966,137.644l-4.079-12.167-1.3-3.886-4.079-12.167a1.679,1.679,0,0,0-3.13,1.049l.048.145h0a13.854,13.854,0,0,0-7.152,5.277,14.964,14.964,0,0,0-2.387,5.87,9.343,9.343,0,0,1-6.452,7.085l-.225.075a10.051,10.051,0,0,1-6.767-.056l-2.33-.9a4.916,4.916,0,0,0-3.311-.027l1.7,5.08,1.3,3.887,1.7,5.08a4.919,4.919,0,0,0,2.625-2.018l1.314-2.127a10.053,10.053,0,0,1,5.365-4.123l.224-.075a9.343,9.343,0,0,1,9.419,1.764,14.959,14.959,0,0,0,5.443,3.245,13.846,13.846,0,0,0,8.888-.1h0l.049.145a1.679,1.679,0,0,0,3.13-1.049Z" transform="translate(-332.483 -102.702)" fill="#e5a920"/>
                <g id="Group_8064" data-name="Group 8064" transform="translate(1.317 5.842)">
                  <path id="Path_8526" data-name="Path 8526" d="M352.951,127.292c1.19-1.209,3.219-3.976,4.366-5.3a16.546,16.546,0,0,1,6.411-4.3c.314-.122,7.813,21.185,8.135,21.077l-7.181-21.423-.037-.109c-.182-.544.371-1.219,1.235-1.509s1.713-.083,1.895.46l-2.269-6.77a1.679,1.679,0,0,0-3.13,1.049l.048.145h0a13.854,13.854,0,0,0-7.152,5.277,14.964,14.964,0,0,0-2.387,5.87,9.343,9.343,0,0,1-6.452,7.085l-.225.075a10.051,10.051,0,0,1-6.767-.056l-2.33-.9a4.916,4.916,0,0,0-3.311-.027l1.689,5.04a41.838,41.838,0,0,1,5.215-.888S350.981,129.294,352.951,127.292Z" transform="translate(-333.8 -108.543)" fill="#c68d1a"/>
                </g>
                <g id="Group_8065" data-name="Group 8065" transform="translate(6.812 34.369)">
                  <path id="Path_8527" data-name="Path 8527" d="M366.238,152.734c-.344-1.966,1.937-3.226,4.089-3.256a5.09,5.09,0,0,1,4.53,2.919c2.14,4.057-.89,8.835-6.228,9.961-6.821,1.439-11.718-2.459-15.1-6.648-1.663-2.059-3.663-6.608-7.621-5.152-2.5.92-2.259,3.365-1.681,5.046.389,1.128,1.46,2.462,3.178,1.75,1.656-.687,1.445-3.022-.258-1.678l-.879-1.691.418-.073c1.56-.272,1.562,1.821.007,2.092l-.418.073a.984.984,0,0,1-.878-1.691c1.329-1.049,3.386-2.044,4.849-.96,1.379,1.021,1.023,3.237-.11,4.51a5.38,5.38,0,0,1-5.534,1.4c-2.268-.768-2.982-3.072-3.142-5.078a5.018,5.018,0,0,1,2.815-5.224,6.785,6.785,0,0,1,6.459-.084c2.235,1.264,3.4,3.629,4.885,5.476,2.02,2.506,4.52,5.149,8.193,5.886,3.388.68,8.319-.214,9.247-3.9a4.267,4.267,0,0,0-.784-3.551,3.118,3.118,0,0,0-1.4-1.146c-.284-.1-2.34-.071-2.289.225.226,1.293-2.119,2.1-2.348.787Z" transform="translate(-341.435 -148.18)" fill="#e5a920"/>
                </g>
              </g>
              <path id="Path_8528" data-name="Path 8528" d="M371.39,127.938a1.236,1.236,0,0,0,.892-.535,1.267,1.267,0,0,0,.255-.621.563.563,0,0,0-.055-.289.193.193,0,0,0-.016-.026l-.008-.014h0A3.9,3.9,0,0,0,370.188,125a.558.558,0,0,0-.135-.329l-.028-.03a3.158,3.158,0,0,0-2.33-.538.537.537,0,0,0-.163-.189.577.577,0,0,0-.078-.049,2.727,2.727,0,0,0-2.229.352.548.548,0,0,0-.232-.105.335.335,0,0,0-.05-.006h-.024a2.7,2.7,0,0,0-1.907,1.213.57.57,0,0,0-.172-.014.328.328,0,0,0-.061.01.578.578,0,0,0-.09.025l0,.005a3.068,3.068,0,0,0-1.385,2,.5.5,0,0,0-.1.022.353.353,0,0,0-.07.031.5.5,0,0,0-.131.087l.008.009a3.864,3.864,0,0,0-.661,2.769,2.151,2.151,0,0,0,.061.219,1.531,1.531,0,0,0,1.266,1.095,1.648,1.648,0,0,0,.3.151,1.307,1.307,0,0,0,1.43-.188,3.482,3.482,0,0,0,.78-1.41l.014-.042a.549.549,0,0,0,.044-.322c0-.02-.008-.04-.013-.06a3.337,3.337,0,0,0,.826-.773.549.549,0,0,0,.153-.3,2.978,2.978,0,0,0,.957-.357.544.544,0,0,0,.243-.2,3.239,3.239,0,0,0,1.022.048.554.554,0,0,0,.313-.089,4.164,4.164,0,0,0,1.031.472.55.55,0,0,0,.366.033,5.435,5.435,0,0,0,.933.91l.05.04a.551.551,0,0,0,.819-.039A1.631,1.631,0,0,0,371.39,127.938Zm-4.05,10.788a.533.533,0,0,0,.129-.115,2.7,2.7,0,0,0,2.253-.18h0a.178.178,0,0,0,.019-.016.416.416,0,0,0,.036-.034.554.554,0,0,0,.122-.225,2.734,2.734,0,0,0,1.991-1.062.57.57,0,0,0,.049-.336,3.106,3.106,0,0,0,1.535-1.827c0-.012,0-.023,0-.033a.542.542,0,0,0-.091-.358,3.945,3.945,0,0,0,.935-2.524h0V132a.278.278,0,0,0,0-.032.566.566,0,0,0-.137-.276,1.279,1.279,0,0,0-.569-.332,1.232,1.232,0,0,0-1.038.11,1.633,1.633,0,0,0-1.274-.951.551.551,0,0,0-.678.462l-.015.063a5.406,5.406,0,0,0-.2,1.288.553.553,0,0,0-.288.279l0,0a3.96,3.96,0,0,0-.517.969.551.551,0,0,0-.487.381.519.519,0,0,1,.166-.253,3.136,3.136,0,0,0-.77.643.542.542,0,0,0-.348,0c.005,0,.012-.007.017-.008a2.921,2.921,0,0,0-.959.289.551.551,0,0,0-.327-.146v0a3.29,3.29,0,0,0-1.1-.113c-.007-.018-.016-.037-.025-.055a.545.545,0,0,0-.23-.23l-.036-.024a3.475,3.475,0,0,0-1.476-.656,1.309,1.309,0,0,0-1.252.713,1.6,1.6,0,0,0-.143.3,1.53,1.53,0,0,0-.351,1.636,2.161,2.161,0,0,0,.082.209,3.866,3.866,0,0,0,2.2,1.814v.012a.519.519,0,0,0,.157-.009.385.385,0,0,0,.074-.017.465.465,0,0,0,.09-.041,3.065,3.065,0,0,0,2.313.764l0,.006a.569.569,0,0,0,.086-.035A.332.332,0,0,0,367.341,138.726Zm1.753-4.651a.43.43,0,0,1,.009-.063.439.439,0,0,0-.008.063Zm-1.269.6a.589.589,0,0,1,.044-.091.486.486,0,0,0-.041.092Z" transform="translate(-339.913 -106.969)" fill="#c68d1a"/>
              <g id="Group_8081" data-name="Group 8081" transform="translate(20.935 17.346)">
                <g id="Group_8073" data-name="Group 8073">
                  <g id="Group_8067" data-name="Group 8067" transform="translate(4.416)">
                    <path id="Path_8529" data-name="Path 8529" d="M367.422,126.337c.014,0-.488-.768-.046-1.345.458-.615,1.772-.453,1.762-.422A5.357,5.357,0,0,0,367.422,126.337Z" transform="translate(-367.194 -124.528)" fill="#efb135"/>
                    <path id="Path_8530" data-name="Path 8530" d="M368.978,125.852a3.971,3.971,0,0,1-1.467.5,5.357,5.357,0,0,1,1.716-1.767A1.283,1.283,0,0,1,368.978,125.852Z" transform="translate(-367.283 -124.544)" fill="#fcc34f"/>
                    <path id="Path_8531" data-name="Path 8531" d="M367.568,127.216a1.791,1.791,0,0,0,.659,1.17,2.356,2.356,0,0,0,1.256.168A5.871,5.871,0,0,0,367.568,127.216Z" transform="translate(-367.298 -125.281)" fill="#fcc34f"/>
                    <path id="Path_8532" data-name="Path 8532" d="M369.073,127.193a1.562,1.562,0,0,0-1.506-.047,5.871,5.871,0,0,1,1.914,1.338A1.6,1.6,0,0,0,369.073,127.193Z" transform="translate(-367.298 -125.211)" fill="#efb135"/>
                  </g>
                  <g id="Group_8068" data-name="Group 8068" transform="translate(6.507 0.262)">
                    <path id="Path_8533" data-name="Path 8533" d="M370.163,126.231c.014.007-.286-.883.314-1.228.623-.375,1.923.315,1.907.343A4.526,4.526,0,0,0,370.163,126.231Z" transform="translate(-370.1 -124.892)" fill="#efb135"/>
                    <path id="Path_8534" data-name="Path 8534" d="M371.81,126.55a4.815,4.815,0,0,1-1.623-.141,4.527,4.527,0,0,1,2.22-.885C372.421,125.536,372.433,126.392,371.81,126.55Z" transform="translate(-370.124 -125.069)" fill="#fcc34f"/>
                    <path id="Path_8535" data-name="Path 8535" d="M370.192,126.932a1.8,1.8,0,0,0,.35,1.311,3.2,3.2,0,0,0,1.232.664A7.285,7.285,0,0,0,370.192,126.932Z" transform="translate(-370.122 -125.464)" fill="#fcc34f"/>
                    <path id="Path_8536" data-name="Path 8536" d="M371.711,127.578a1.919,1.919,0,0,0-1.514-.649,7.285,7.285,0,0,1,1.583,1.976A1.44,1.44,0,0,0,371.711,127.578Z" transform="translate(-370.128 -125.461)" fill="#efb135"/>
                  </g>
                  <g id="Group_8069" data-name="Group 8069" transform="translate(8.412 1.235)">
                    <path id="Path_8537" data-name="Path 8537" d="M372.985,127.208c.014.014-.055-.913.657-.962.741-.072,1.924,1.164,1.9,1.188A4.8,4.8,0,0,0,372.985,127.208Z" transform="translate(-372.813 -126.244)" fill="#efb135"/>
                    <path id="Path_8538" data-name="Path 8538" d="M374.636,128.41a7.537,7.537,0,0,1-1.651-.858,4.8,4.8,0,0,1,2.559.227A.783.783,0,0,1,374.636,128.41Z" transform="translate(-372.813 -126.587)" fill="#fcc34f"/>
                    <path id="Path_8539" data-name="Path 8539" d="M372.891,127.748a1.576,1.576,0,0,0,.006,1.323,4.763,4.763,0,0,0,1.109,1.163A8.638,8.638,0,0,0,372.891,127.748Z" transform="translate(-372.746 -126.665)" fill="#fcc34f"/>
                    <path id="Path_8540" data-name="Path 8540" d="M374.347,129.01a2.629,2.629,0,0,0-1.4-1.262,8.638,8.638,0,0,1,1.115,2.486A1.129,1.129,0,0,0,374.347,129.01Z" transform="translate(-372.803 -126.665)" fill="#efb135"/>
                  </g>
                  <g id="Group_8070" data-name="Group 8070" transform="translate(0 3.58)">
                    <path id="Path_8541" data-name="Path 8541" d="M362.053,132.655a1.021,1.021,0,0,1-.949-.9,3.616,3.616,0,0,1,.487-2.251A10.645,10.645,0,0,0,362.053,132.655Z" transform="translate(-361.058 -129.503)" fill="#efb135"/>
                    <path id="Path_8542" data-name="Path 8542" d="M362.556,130.641a9.288,9.288,0,0,1-.3,2.014,10.649,10.649,0,0,1-.462-3.151A1.361,1.361,0,0,1,362.556,130.641Z" transform="translate(-361.266 -129.503)" fill="#fcc34f"/>
                    <path id="Path_8543" data-name="Path 8543" d="M362.585,133.461c0,.021.651.451,1.089.053a3.7,3.7,0,0,0,.669-1.28A3.609,3.609,0,0,0,362.585,133.461Z" transform="translate(-361.486 -130.268)" fill="#fcc34f"/>
                    <path id="Path_8544" data-name="Path 8544" d="M363.274,131.586c-.576.271-.718,1.675-.69,1.677a3.609,3.609,0,0,1,1.758-1.228C364.338,132.053,363.817,131.318,363.274,131.586Z" transform="translate(-361.485 -130.07)" fill="#efb135"/>
                  </g>
                  <g id="Group_8071" data-name="Group 8071" transform="translate(0.991 1.539)">
                    <path id="Path_8545" data-name="Path 8545" d="M363.14,129.556a1.264,1.264,0,0,1-.7-1.172,2.638,2.638,0,0,1,1.046-1.716A8.646,8.646,0,0,0,363.14,129.556Z" transform="translate(-362.435 -126.666)" fill="#efb135"/>
                    <path id="Path_8546" data-name="Path 8546" d="M364.208,127.978a5.988,5.988,0,0,1-.8,1.578,8.646,8.646,0,0,1,.341-2.888A1.509,1.509,0,0,1,364.208,127.978Z" transform="translate(-362.705 -126.667)" fill="#fcc34f"/>
                    <path id="Path_8547" data-name="Path 8547" d="M363.542,130.669c0,.017.527.668,1.056.531.508-.132.962-.81.98-.805A3.673,3.673,0,0,0,363.542,130.669Z" transform="translate(-362.745 -127.7)" fill="#fcc34f"/>
                    <path id="Path_8548" data-name="Path 8548" d="M364.642,129.239c-.635,0-1.126,1.11-1.1,1.118a3.673,3.673,0,0,1,2.036-.274C365.57,130.1,365.243,129.237,364.642,129.239Z" transform="translate(-362.745 -127.387)" fill="#efb135"/>
                  </g>
                  <g id="Group_8072" data-name="Group 8072" transform="translate(2.515 0.336)">
                    <path id="Path_8549" data-name="Path 8549" d="M365,127.428a1.375,1.375,0,0,1-.394-1.324c.254-.794,1.475-1.142,1.473-1.108A6.832,6.832,0,0,0,365,127.428Z" transform="translate(-364.553 -124.995)" fill="#efb135"/>
                    <path id="Path_8550" data-name="Path 8550" d="M366.369,126.355a4.347,4.347,0,0,1-1.19,1.075A6.832,6.832,0,0,1,366.258,125,1.478,1.478,0,0,1,366.369,126.355Z" transform="translate(-364.728 -124.996)" fill="#fcc34f"/>
                    <path id="Path_8551" data-name="Path 8551" d="M365.277,128.527c-.009.013.347.806.9.906a2.121,2.121,0,0,0,1.174-.322A4.566,4.566,0,0,0,365.277,128.527Z" transform="translate(-364.756 -125.985)" fill="#fcc34f"/>
                    <path id="Path_8552" data-name="Path 8552" d="M366.646,127.754c-.627-.251-1.394.528-1.37.543a4.566,4.566,0,0,1,2.076.584C367.342,128.89,367.241,127.99,366.646,127.754Z" transform="translate(-364.756 -125.754)" fill="#efb135"/>
                  </g>
                </g>
                <g id="Group_8080" data-name="Group 8080" transform="translate(1.89 6.742)">
                  <g id="Group_8074" data-name="Group 8074" transform="translate(5.929 3.073)">
                    <path id="Path_8553" data-name="Path 8553" d="M372.333,141.425c.01-.01.073.907.774,1.1.736.214,1.687-.707,1.66-.726A5.346,5.346,0,0,1,372.333,141.425Z" transform="translate(-372.038 -139.079)" fill="#efb135"/>
                    <path id="Path_8554" data-name="Path 8554" d="M373.806,140.753a3.96,3.96,0,0,0-1.473.484,5.346,5.346,0,0,0,2.433.375C374.774,141.6,374.453,140.779,373.806,140.753Z" transform="translate(-372.038 -138.89)" fill="#fcc34f"/>
                    <path id="Path_8555" data-name="Path 8555" d="M372.175,140.387a1.793,1.793,0,0,1-.179-1.331,2.36,2.36,0,0,1,.9-.891A5.863,5.863,0,0,1,372.175,140.387Z" transform="translate(-371.923 -138.165)" fill="#fcc34f"/>
                    <path id="Path_8556" data-name="Path 8556" d="M373.446,139.441c-.165.715-1.177.975-1.173.946a5.864,5.864,0,0,0,.721-2.222A1.6,1.6,0,0,1,373.446,139.441Z" transform="translate(-372.021 -138.165)" fill="#efb135"/>
                  </g>
                  <g id="Group_8075" data-name="Group 8075" transform="translate(7.3 1.786)">
                    <path id="Path_8557" data-name="Path 8557" d="M374.642,139.8c.007-.015.3.877.99.79.723-.076,1.345-1.411,1.315-1.424A4.527,4.527,0,0,1,374.642,139.8Z" transform="translate(-374.055 -137.158)" fill="#efb135"/>
                    <path id="Path_8558" data-name="Path 8558" d="M375.852,138.506a4.79,4.79,0,0,0-1.21,1.091,4.527,4.527,0,0,0,2.305-.633C376.95,138.945,376.444,138.255,375.852,138.506Z" transform="translate(-374.055 -136.958)" fill="#fcc34f"/>
                    <path id="Path_8559" data-name="Path 8559" d="M374.342,138.907a1.8,1.8,0,0,1-.51-1.257,3.18,3.18,0,0,1,.583-1.273A7.29,7.29,0,0,1,374.342,138.907Z" transform="translate(-373.827 -136.377)" fill="#fcc34f"/>
                    <path id="Path_8560" data-name="Path 8560" d="M375.36,137.477a1.924,1.924,0,0,1-.817,1.431,7.29,7.29,0,0,0,.073-2.53A1.442,1.442,0,0,1,375.36,137.477Z" transform="translate(-374.028 -136.377)" fill="#efb135"/>
                  </g>
                  <g id="Group_8076" data-name="Group 8076" transform="translate(8.225)">
                    <path id="Path_8561" data-name="Path 8561" d="M376.374,137.022c0-.019.506.762,1.1.371.635-.389.834-2.089.8-2.1A4.8,4.8,0,0,1,376.374,137.022Z" transform="translate(-375.466 -134.288)" fill="#efb135"/>
                    <path id="Path_8562" data-name="Path 8562" d="M377.174,135.257a7.5,7.5,0,0,0-.8,1.68,4.8,4.8,0,0,0,1.905-1.724A.783.783,0,0,0,377.174,135.257Z" transform="translate(-375.466 -134.203)" fill="#fcc34f"/>
                    <path id="Path_8563" data-name="Path 8563" d="M375.927,136.55a1.576,1.576,0,0,1-.792-1.059,4.8,4.8,0,0,1,.184-1.6A8.6,8.6,0,0,1,375.927,136.55Z" transform="translate(-375.112 -133.895)" fill="#fcc34f"/>
                    <path id="Path_8564" data-name="Path 8564" d="M376.364,134.7a2.627,2.627,0,0,1-.356,1.85,8.6,8.6,0,0,0-.609-2.655A1.128,1.128,0,0,1,376.364,134.7Z" transform="translate(-375.192 -133.895)" fill="#efb135"/>
                  </g>
                  <g id="Group_8077" data-name="Group 8077" transform="translate(0 2.894)">
                    <path id="Path_8565" data-name="Path 8565" d="M364.029,139.023a1.021,1.021,0,0,0-.214,1.29,3.612,3.612,0,0,0,1.745,1.5A10.642,10.642,0,0,1,364.029,139.023Z" transform="translate(-363.684 -138.226)" fill="#efb135"/>
                    <path id="Path_8566" data-name="Path 8566" d="M365.613,140.452a9.32,9.32,0,0,0-1.45-1.429,10.642,10.642,0,0,0,1.531,2.792A1.36,1.36,0,0,0,365.613,140.452Z" transform="translate(-363.818 -138.226)" fill="#fcc34f"/>
                    <path id="Path_8567" data-name="Path 8567" d="M364.245,138.618c-.012-.018.248-.754.837-.7a3.691,3.691,0,0,1,1.306.618A3.614,3.614,0,0,1,364.245,138.618Z" transform="translate(-363.841 -137.916)" fill="#fcc34f"/>
                    <path id="Path_8568" data-name="Path 8568" d="M365.806,139.781c-.623.132-1.582-.9-1.561-.921a3.614,3.614,0,0,0,2.143-.081C366.374,138.767,366.4,139.668,365.806,139.781Z" transform="translate(-363.841 -138.158)" fill="#efb135"/>
                  </g>
                  <g id="Group_8078" data-name="Group 8078" transform="translate(2.155 3.852)">
                    <path id="Path_8569" data-name="Path 8569" d="M366.816,140.99a1.265,1.265,0,0,0,.145,1.36,2.637,2.637,0,0,0,1.869.738A8.657,8.657,0,0,1,366.816,140.99Z" transform="translate(-366.679 -139.736)" fill="#efb135"/>
                    <path id="Path_8570" data-name="Path 8570" d="M368.458,141.768a5.951,5.951,0,0,0-1.588-.778,8.657,8.657,0,0,0,2.014,2.1A1.51,1.51,0,0,0,368.458,141.768Z" transform="translate(-366.733 -139.736)" fill="#fcc34f"/>
                    <path id="Path_8571" data-name="Path 8571" d="M366.9,140.382c-.014-.012.018-.85.523-1.06a2.473,2.473,0,0,1,1.267.052A3.67,3.67,0,0,1,366.9,140.382Z" transform="translate(-366.741 -139.247)" fill="#fcc34f"/>
                    <path id="Path_8572" data-name="Path 8572" d="M368.457,140.66c-.5.385-1.568-.207-1.552-.229a3.67,3.67,0,0,0,1.79-1.008C368.68,139.417,368.937,140.3,368.457,140.66Z" transform="translate(-366.742 -139.296)" fill="#efb135"/>
                  </g>
                  <g id="Group_8079" data-name="Group 8079" transform="translate(4.235 3.817)">
                    <path id="Path_8573" data-name="Path 8573" d="M369.663,141.766a1.374,1.374,0,0,0,.483,1.294,2.161,2.161,0,0,0,1.842,0A6.85,6.85,0,0,1,369.663,141.766Z" transform="translate(-369.591 -139.919)" fill="#efb135"/>
                    <path id="Path_8574" data-name="Path 8574" d="M371.265,141.9a4.345,4.345,0,0,0-1.6-.14,6.85,6.85,0,0,0,2.325,1.29A1.475,1.475,0,0,0,371.265,141.9Z" transform="translate(-369.596 -139.911)" fill="#fcc34f"/>
                    <path id="Path_8575" data-name="Path 8575" d="M369.63,140.917a1.574,1.574,0,0,1,.174-1.267,2.124,2.124,0,0,1,1.131-.451A4.561,4.561,0,0,1,369.63,140.917Z" transform="translate(-369.568 -139.199)" fill="#fcc34f"/>
                    <path id="Path_8576" data-name="Path 8576" d="M371.074,140.525c-.348.578-1.43.419-1.42.392a4.561,4.561,0,0,0,1.3-1.718C370.944,139.2,371.406,139.978,371.074,140.525Z" transform="translate(-369.592 -139.199)" fill="#efb135"/>
                  </g>
                </g>
              </g>
            </g>
            <rect id="Rectangle_3739" data-name="Rectangle 3739" width="29.335" height="4.865" transform="translate(13.825 18.07) rotate(71.468)" fill="#846c5d"/>
            <rect id="Rectangle_3740" data-name="Rectangle 3740" width="36.675" height="10.765" transform="translate(11.657 53.607) rotate(-108.532)" fill="#846c5d"/>
            <rect id="Rectangle_3741" data-name="Rectangle 3741" width="24.459" height="5.866" transform="translate(12.459 46.896) rotate(-108.532)" fill="#fcc34f"/>
          </g>
          <path id="Path_8577" data-name="Path 8577" d="M350.85,258.413a9.408,9.408,0,0,1-5.5-3.457l-4.672,6.577L336.357,243.3c-1.285-5.143-6.909-9.218-12.339-12.049-12.161,3.622-11.76-7.435-11.531-9.6-2.36-14.224,8.064-26.322,17.174-37.7l-10.218-3.5c-38.793,35.411-42.378,94.258-42.378,94.258l47.051,6.98c-7.311-8.755.966-13.553-3.224-14.041-.887-.1,1.271-1.831,1.43-2.631.151-.759-.753-1.382-.536-2.058A17.987,17.987,0,0,1,327,254.816c.271,22.748,14.634,27.829,14.634,27.829Z" transform="translate(-272.436 -122.856)" fill="#3ac1b0"/>
          <path id="Path_8578" data-name="Path 8578" d="M327.057,259.547a.865.865,0,0,0-1.128.406c-.117.38.2.814.706.97a.866.866,0,0,0,1.128-.407C327.88,260.137,327.564,259.7,327.057,259.547Zm-2.218,6.007c.117-.38-.2-.814-.706-.969a.865.865,0,0,0-1.129.406c-.117.38.2.814.706.97A.866.866,0,0,0,324.839,265.555Zm-.467,6.286c-.53,0-.96.322-.96.72s.43.72.96.72.959-.322.959-.72S324.9,271.84,324.372,271.84Zm-.7,5.8a1,1,0,1,0,1.023.626A.867.867,0,0,0,323.672,277.636Zm-4.413,4.767a.75.75,0,1,0,.471,1.1A.866.866,0,0,0,319.259,282.4Z" transform="translate(-283.908 -145.012)" fill="#4addc7"/>
          <g id="Group_8084" data-name="Group 8084" transform="translate(34.633 109.842)">
            <path id="Path_8579" data-name="Path 8579" d="M318.93,287.506l-.175-.7c1.527-.381,1.621-3.624,1.528-4.841l-.011-.137,1.938-2.519.081-.037c.043-.02,4.3-1.976,5.348-2.672.237-.274-.427-2.127-.912-3.48-.831-2.318-1.865-5.2-1.767-7.571a8.667,8.667,0,0,1,3.682-6.591l-1.114-2.415.368-.133a13.107,13.107,0,0,0,2.777-1.383.292.292,0,0,0,.137-.248c0-.379-.575-.949-.853-1.166l.442-.568c.115.089,1.126.9,1.131,1.728a1.014,1.014,0,0,1-.407.816,11.881,11.881,0,0,1-2.615,1.357l1.053,2.282-.276.167a8.127,8.127,0,0,0-3.6,6.184c-.093,2.227.915,5.039,1.726,7.3.856,2.388,1.372,3.829.633,4.322-1.021.681-4.749,2.405-5.367,2.69l-1.663,2.162C321.054,282.88,321.154,286.95,318.93,287.506Z" transform="translate(-318.755 -253.047)" fill="#39aa99"/>
          </g>
          <g id="Group_8085" data-name="Group 8085" transform="translate(8.264 64.36)">
            <path id="Path_8580" data-name="Path 8580" d="M365.8,285.364,356.446,303c-9.716-13.135-9.176-25.55-9.176-25.55-4.318,21.051,13.495,31.487,13.495,31.487L368.5,287.7Z" transform="translate(-300.189 -214.404)" fill="#39aa99"/>
            <path id="Path_8581" data-name="Path 8581" d="M282.116,303.471c.24,2.879,3.118-1.2,3.118-1.2s.48-11.756.24-13.2S282.116,303.471,282.116,303.471Z" transform="translate(-282.116 -217.638)" fill="#39aa99"/>
            <path id="Path_8582" data-name="Path 8582" d="M326.276,269.927c-.287-2.577-49.18-26.029,1.08-73.05,0,0-11.6,3.735-11.4.96a16.592,16.592,0,0,1,2.723-7.985c-8.151,8.949-23.933,34.611-19.456,56.025,4.977,23.81,19.492,24.17,19.492,24.17a20.586,20.586,0,0,1-12.835-16.913S310.682,264.65,326.276,269.927Z" transform="translate(-286.692 -189.852)" fill="#39aa99"/>
            <path id="Path_8583" data-name="Path 8583" d="M326.809,251.041c.717.243-2.385-2.474-2.789-3.868a4.264,4.264,0,0,1,.2-2.947,13.254,13.254,0,0,1-.8-5.139c-1.713,1.886-7.133,8.272-7.133,13.574,0,0,3.149-8.906,6.387-9.626C322.67,243.034,321.231,249.152,326.809,251.041Z" transform="translate(-291.693 -203.652)" fill="#39aa99"/>
            <path id="Path_8584" data-name="Path 8584" d="M339.277,275.555c-5.4,7.557-13.494,2.159-13.494,2.159L334.6,288.15s2.339-7.017,5.938-10.256l2.7-7.2S340.408,273.971,339.277,275.555Z" transform="translate(-294.356 -212.512)" fill="#39aa99"/>
            <path id="Path_8585" data-name="Path 8585" d="M357.082,293.286l5.038-2.339-6.837,1.619,1.439,6.657Z" transform="translate(-302.624 -218.188)" fill="#39aa99"/>
          </g>
          <path id="Path_8586" data-name="Path 8586" d="M334.864,249.8l.45-.9,2.429-1.08,3.013,1.124,1.935,2.879s-5.443.135-6.927-.584S334.864,249.8,334.864,249.8Z" transform="translate(-288.605 -141.741)" fill="#39aa99"/>
          <path id="Path_8587" data-name="Path 8587" d="M332.783,250.112l4.078-2.159,1.5,5.7,5.308-1.619-.27-4.138-6.417-.78Z" transform="translate(-288.054 -141.542)" fill="#4addc7"/>
          <path id="Path_8588" data-name="Path 8588" d="M336.7,251.2s11.875,13.944,25.28,5.848c0,0-5.488,7.287-11.875,5.938s-12.955-7.557-13.944-10.976Z" transform="translate(-289 -142.687)" fill="#db7631"/>
          <path id="Path_8589" data-name="Path 8589" d="M334.949,247.591s8.877,26.869,32.627,5.038c0,0,1.669-2.559,1.363-10.144a.532.532,0,0,0-.8-.439l-7.278,4.345s-3.012,16.679-14.634,12.235C338.068,255.508,334.949,247.591,334.949,247.591Z" transform="translate(-288.661 -140.101)" fill="#b64e00"/>
          <path id="Path_8590" data-name="Path 8590" d="M331.033,249.587s2.159-1.679,3.358-.959a7.721,7.721,0,0,1,2.1,2.1l-1.439,1.38A5.4,5.4,0,0,1,331.033,249.587Z" transform="translate(-287.563 -141.916)" fill="#b64e00"/>
          <path id="Path_8591" data-name="Path 8591" d="M329.289,245.28a4.65,4.65,0,0,0,2.4,3.778s1.859,1.02.839,1.2-2.638-1.02-3.358-2.939S329.289,245.28,329.289,245.28Z" transform="translate(-286.959 -141.028)" fill="#db7631"/>
          <path id="Path_8592" data-name="Path 8592" d="M329.565,246.843l2.219-4.079-4.8-5.817-.72.36S325.607,244.923,329.565,246.843Z" transform="translate(-286.216 -138.693)" fill="#4addc7"/>
          <g id="Group_8086" data-name="Group 8086" transform="translate(45.231 37.064)">
            <path id="Path_8593" data-name="Path 8593" d="M335.256,172.452l10.218,3.5,0,0a150.125,150.125,0,0,1,10.557-11.826l4.388-.676,1.679-1.95,1.229.03s.737-.579.57-1.08c-.54-1.619-1.643-1.036-2.069-1.889-.8-1.6-1.678-3.384-1.979-4.108-.468-1.122-.438-2.708-2.039-2.519-9.176,1.08-5.4,7.2-7.656,9.3a97.5,97.5,0,0,0-16.672,12.873Q334.355,173.275,335.256,172.452Z" transform="translate(-333.48 -151.926)" fill="#eabfa5"/>
            <path id="Path_8594" data-name="Path 8594" d="M379.2,263.447h-9.9l-2.519,3.239s.18,1.979,1.8,2.339c.726.161,1.126-.33,1.347-.921.32,2.2,2.772,4.973,3.6,5.851l-3.03,4.266a9.407,9.407,0,0,0,5.5,3.457l2.661-6.995C380.457,270.446,379.2,263.447,379.2,263.447Z" transform="translate(-342.815 -183.184)" fill="#eabfa5"/>
          </g>
          <path id="Path_8595" data-name="Path 8595" d="M275.059,304.63s13.674-13.434,46.733-1.3l-1.392,3.7s31.438,14.427,39.466,39.083l-44.444,18.042,4.205,12.915s-1.775,2.525-5.263-1.208-9.638-17.638-9.638-17.638l33.911-19.482s-17.9-16.085-37.6-11.781c0,0-21.112,31.871-12.619,73.905,0,0,.833,20.505-5.017,19.488s-2.4-19.344-2.4-19.344S262.37,360.378,275.059,304.63Z" transform="translate(-270.633 -155.877)" fill="#333"/>
          <path id="Path_8596" data-name="Path 8596" d="M336.687,174.05s5.518-6.717,10.8,5.278l-4.558,6.718s-5.038-8.4-12.475-6Z" transform="translate(-287.399 -120.537)" fill="#4addc7"/>
          <path id="Path_8597" data-name="Path 8597" d="M368.792,282.613s3.909,4.438,8.251,3.958l-3.691,10.076s-6.3.12-8.9-9Z" transform="translate(-296.929 -151.493)" fill="#4addc7"/>
        </g>
        <path id="Path_8598" data-name="Path 8598" d="M309.361,461.22a178.891,178.891,0,0,1-6.176-18.8c-1.737-6.372-3.124-12.836-4.262-19.344l-.755-4.9-.587-4.921c-.219-1.637-.338-3.286-.459-4.934s-.3-3.292-.311-4.945a121.622,121.622,0,0,1,.768-19.774l-.3,4.937c-.04.823-.133,1.642-.128,2.467l-.007,2.471-.022,2.469c-.009.823-.028,1.646.026,2.469l.214,4.933a180.838,180.838,0,0,0,2.268,19.607c1.075,6.5,2.469,12.937,4.086,19.322.815,3.192,1.681,6.371,2.629,9.527C307.259,454.969,308.281,458.1,309.361,461.22Z" transform="translate(-277.939 -179.799)" fill="#333" opacity="0.2"/>
        <path id="Path_8599" data-name="Path 8599" d="M313.935,461.166c-1.162-2.5-2.145-5.089-3.054-7.7s-1.678-5.263-2.41-7.928c-.684-2.677-1.3-5.373-1.778-8.1a75.788,75.788,0,0,1-1.013-8.22c.273,1.355.441,2.722.741,4.068l.381,2.028.435,2.017c.584,2.687,1.194,5.369,1.93,8.019.671,2.667,1.444,5.306,2.24,7.94q.593,1.978,1.234,3.94C313.048,458.555,313.495,459.858,313.935,461.166Z" transform="translate(-280.457 -192.587)" fill="#333" opacity="0.2"/>
        <ellipse id="Ellipse_3579" data-name="Ellipse 3579" cx="24.612" cy="2.53" rx="24.612" ry="2.53" transform="translate(20.005 290.229)" fill="#333" opacity="0.3"/>
        <g id="Group_8088" data-name="Group 8088" transform="translate(75.554 179.775)" opacity="0.3">
          <path id="Path_8600" data-name="Path 8600" d="M390.961,350.216c1.494,2.376,2.89,4.8,4.274,7.235q2.051,3.662,4.015,7.369l.342.645-.676.3c-1.915.861-3.821,1.742-5.75,2.571-1.919.85-3.853,1.668-5.79,2.479-3.883,1.6-7.779,3.172-11.763,4.549,3.691-2.034,7.468-3.875,11.258-5.683,1.9-.894,3.8-1.781,5.72-2.636,1.909-.877,3.839-1.7,5.761-2.545l-.335.949q-1.872-3.754-3.658-7.552C393.186,355.36,392.024,352.813,390.961,350.216Z" transform="translate(-375.613 -350.216)" fill="#333"/>
        </g>
      </g>
      <g id="Group_8090" data-name="Group 8090" transform="translate(19.44 -67.356)">
        <path id="Path_8601" data-name="Path 8601" d="M240.637,98.643c-1.7-1.7-3.018-3.157-3.088-5.676-.062-2.179.487-4.336.526-6.515a1.08,1.08,0,0,0-2.159,0c-.051,2.818-.969,5.748-.3,8.546.513,2.148,1.977,3.659,3.5,5.173A1.08,1.08,0,0,0,240.637,98.643Z" transform="translate(-158.332 -84.465)" fill="#3ac1b0"/>
        <path id="Path_8602" data-name="Path 8602" d="M249.638,156.176c-.285.738-1.322,1.327-1.941,1.742-.768.515-1.57.972-2.361,1.452a1.081,1.081,0,0,0,1.09,1.865c1.875-1.137,4.454-2.311,5.294-4.484C252.222,155.454,250.135,154.892,249.638,156.176Z" transform="translate(-160.981 -104.097)" fill="#3ac1b0"/>
        <path id="Path_8603" data-name="Path 8603" d="M193.885,142.448c-.813,1.031-1.406,2.336-.73,3.6.728,1.36,1.814,1.188,3.018,1.275-.118,1.117-.939,2.3-1.057,3.375a3.033,3.033,0,0,0,.892,2.632c.956,1.012,2.481-.517,1.527-1.527-.809-.856.307-2.546.563-3.416a4.494,4.494,0,0,0,.144-2.3,1.053,1.053,0,0,0-.754-.754c-.982-.209-2.769.238-2.055-1.349.413-.916,2.472-2.622,3.454-1.694,1.009.954,2.539-.57,1.526-1.526C198.223,138.7,195.457,140.454,193.885,142.448Z" transform="translate(-146.416 -99.721)" fill="#3ac1b0"/>
        <path id="Path_8604" data-name="Path 8604" d="M431.623,105.918l.46.142a1,1,0,0,0,.661-.034c.05.025.1.05.11.058.107.073.12.083.04.03.053.048.1.1.152.149a1.08,1.08,0,0,0,1.527-1.526,2.981,2.981,0,0,0-2.95-.9A1.089,1.089,0,0,0,431.623,105.918Z" transform="translate(-213.125 -89.598)" fill="#3ac1b0"/>
        <path id="Path_8605" data-name="Path 8605" d="M433.258,144.794A29.447,29.447,0,0,1,428.2,146.6a12.162,12.162,0,0,1,4.736-3.122,1.08,1.08,0,0,0-.574-2.081c-1.727.43-2.933,1.613-4.323,2.654a8.525,8.525,0,0,0-2.9,3.046,1.1,1.1,0,0,0,.646,1.586,9.355,9.355,0,0,0,5.448-.774,12.226,12.226,0,0,0-1.609,1.83,8.427,8.427,0,0,0-1.408,4.215c.055,1.385,2.214,1.392,2.159,0-.137-3.476,4.311-4.93,4.253-8.118A1.088,1.088,0,0,0,433.258,144.794Z" transform="translate(-211.486 -100.148)" fill="#3ac1b0"/>
        <path id="Path_8606" data-name="Path 8606" d="M458.286,199.729v-5.278a1.08,1.08,0,0,0-2.159,0v5.278A1.08,1.08,0,0,0,458.286,199.729Z" transform="translate(-220.209 -114.737)" fill="#3ac1b0"/>
        <path id="Path_8607" data-name="Path 8607" d="M468.17,226.691a2.249,2.249,0,0,0-1.723.8,1.111,1.111,0,0,0,0,1.527,1.088,1.088,0,0,0,1.526,0,1.394,1.394,0,0,1,.136-.155l0,0,.015,0,.041,0a1.08,1.08,0,1,0,0-2.159Z" transform="translate(-223.016 -124.065)" fill="#3ac1b0"/>
        <path id="Path_8608" data-name="Path 8608" d="M186.828,248.041a2.363,2.363,0,0,0-1.2-1.173,7.751,7.751,0,0,0-1.891-.425,14.786,14.786,0,0,0-2.513-.418,1.08,1.08,0,0,0,0,2.159,19.889,19.889,0,0,1,2.546.439c.582.089,1.3.058,1.184.821-.138.921,1.043,2,1.8,1.05a10.252,10.252,0,0,0,.675-.926A1.007,1.007,0,0,0,186.828,248.041Z" transform="translate(-142.862 -129.484)" fill="#3ac1b0"/>
        <path id="Path_8609" data-name="Path 8609" d="M241.4,213.676l-.959.96a1.079,1.079,0,1,0,1.527,1.527l.96-.959a1.08,1.08,0,0,0-1.527-1.527Z" transform="translate(-159.668 -120.331)" fill="#3ac1b0"/>
        <path id="Path_8610" data-name="Path 8610" d="M506.233,100.716c-2.345.881-5.067,2.36-5.844,4.957-.759,2.536,1.888,3.859,3.925,4.322,1.353.307,1.931-1.774.574-2.082a5.415,5.415,0,0,1-1.87-.669c-.81-.556-.587-1.087-.076-1.827a7.83,7.83,0,0,1,3.865-2.618C508.1,102.314,507.538,100.226,506.233,100.716Z" transform="translate(-232.578 -88.735)" fill="#3ac1b0"/>
        <path id="Path_8611" data-name="Path 8611" d="M515.57,136.841a1.091,1.091,0,0,0-1.478.387l-.479.96a1.106,1.106,0,0,0,.387,1.477,1.09,1.09,0,0,0,1.477-.387l.48-.96A1.106,1.106,0,0,0,515.57,136.841Z" transform="translate(-236.285 -98.842)" fill="#3ac1b0"/>
        <path id="Path_8612" data-name="Path 8612" d="M503.221,226.691a1.08,1.08,0,0,0,0,2.159A1.08,1.08,0,0,0,503.221,226.691Z" transform="translate(-233.116 -124.065)" fill="#3ac1b0"/>
        <path id="Path_8613" data-name="Path 8613" d="M488.259,288.822c-.16.9-.208,1.814-.336,2.717-.112.786-.19,2-.826,2.564-1.041.925.49,2.448,1.526,1.527,1.637-1.455,1.368-4.274,1.717-6.234C490.582,288.038,488.5,287.454,488.259,288.822Z" transform="translate(-228.792 -141.262)" fill="#3ac1b0"/>
        <path id="Path_8614" data-name="Path 8614" d="M430.838,273.887c.01.007.022.009.032.015a.233.233,0,0,0-.023-.02l-.006,0Z" transform="translate(-213.12 -137.293)" fill="#3ac1b0"/>
        <path id="Path_8615" data-name="Path 8615" d="M431.134,273.02c-.33-.091-.662-.214-.995-.289a.533.533,0,0,1-.166-.078c.168.169-.5.155-.032-.015a1.171,1.171,0,0,0-.188-.109.847.847,0,0,1,.2.1,9.2,9.2,0,0,0,.954-.693,10,10,0,0,1,1.109-.551c1.274-.543.176-2.4-1.09-1.864-1.449.618-4.176,2.185-3,4.133a3.671,3.671,0,0,0,2.315,1.359c.787.222,1.714.214,1.587,1.2-.177,1.374,1.984,1.361,2.159,0C434.233,274.3,432.738,273.462,431.134,273.02Z" transform="translate(-212.223 -136.044)" fill="#3ac1b0"/>
        <path id="Path_8616" data-name="Path 8616" d="M220.482,323.016c-.583.535-1.878.179-2.6.163a1.08,1.08,0,0,0,0,2.159c1.466.033,2.942.289,4.122-.8C223.035,323.6,221.5,322.076,220.482,323.016Z" transform="translate(-153.139 -150.982)" fill="#3ac1b0"/>
        <path id="Path_8617" data-name="Path 8617" d="M292.254,193.393a1.07,1.07,0,0,0,.47,2.086.294.294,0,0,1,.035.016l-.03-.017h0l.083.04a2.1,2.1,0,0,1,.451.307c.312.263.6.555.913.812a1.112,1.112,0,0,0,1.526,0,1.088,1.088,0,0,0,0-1.527C294.674,194.273,293.735,193.089,292.254,193.393Z" transform="translate(-174.055 -114.718)" fill="#3ac1b0"/>
        <path id="Path_8618" data-name="Path 8618" d="M308.576,84.894a1.094,1.094,0,0,0-1.041-.792,4.719,4.719,0,0,0-2.873,1.05,1.113,1.113,0,0,0-.387,1.477,1.088,1.088,0,0,0,1.478.387,4.884,4.884,0,0,1,.977-.576c.051-.022.088-.028.135-.046a1.175,1.175,0,0,0,1.029.251,1.1,1.1,0,0,0,.754-1.328Z" transform="translate(-177.605 -84.097)" fill="#3ac1b0"/>
        <path id="Path_8619" data-name="Path 8619" d="M138.379,101.252c-1.352-.047-2.59.516-3.953.5-1.539-.019-3.052.1-4.452-.643-1.046-.556-2.242.831-1.308,1.7l.315.291a1.027,1.027,0,0,0,.835.288,10.039,10.039,0,0,0,3.422.506,18.207,18.207,0,0,0,2.688-.039,14.075,14.075,0,0,1,2.454-.439C139.769,103.46,139.767,101.3,138.379,101.252Z" transform="translate(-128.328 -88.829)" fill="#3ac1b0"/>
        <path id="Path_8620" data-name="Path 8620" d="M134.305,200.156c-1.709,1.162-3.968,1.965-4.815,4a1.087,1.087,0,0,0,.754,1.328,1.106,1.106,0,0,0,1.328-.754c.261-.63,1.188-1.105,1.729-1.444.692-.433,1.419-.81,2.094-1.27C136.537,201.243,135.458,199.372,134.305,200.156Z" transform="translate(-128.638 -116.575)" fill="#3ac1b0"/>
        <path id="Path_8621" data-name="Path 8621" d="M152,307.681c-1.418-.193-2.645-1.175-4.125-1a1.114,1.114,0,0,0-1.08,1.08,1.085,1.085,0,0,0,1.08,1.08c1.234-.148,2.347.757,3.552.921a1.119,1.119,0,0,0,1.328-.754A1.086,1.086,0,0,0,152,307.681Z" transform="translate(-133.504 -146.481)" fill="#3ac1b0"/>
        <path id="Path_8622" data-name="Path 8622" d="M459.158,349.354c-1.578.212-2.4,1.415-3.432,2.492a9.759,9.759,0,0,0-2.288,3.349c-1.156.381-.576,2.279.728,2.037l.39-.072a1.069,1.069,0,0,0,.754-.754,6.322,6.322,0,0,1,1.74-2.829c.492-.507,1.369-1.965,2.107-2.063C460.514,351.331,460.532,349.169,459.158,349.354Z" transform="translate(-219.281 -158.444)" fill="#3ac1b0"/>
        <path id="Path_8623" data-name="Path 8623" d="M467.673,398.471l-1.919-.959a1.107,1.107,0,0,0-1.478.387,1.09,1.09,0,0,0,.387,1.477l1.919.96a1.106,1.106,0,0,0,1.477-.388A1.09,1.09,0,0,0,467.673,398.471Z" transform="translate(-222.453 -171.908)" fill="#3ac1b0"/>
        <path id="Path_8624" data-name="Path 8624" d="M504.984,340.566a31.735,31.735,0,0,1-3.19,4.1c-.887,1.058.633,2.593,1.527,1.527a35.173,35.173,0,0,0,3.527-4.536A1.081,1.081,0,0,0,504.984,340.566Z" transform="translate(-232.934 -155.839)" fill="#3ac1b0"/>
        <path id="Path_8625" data-name="Path 8625" d="M539.569,211.008c-1.134,1.125-.807,2.69-.8,4.122a1.08,1.08,0,0,0,2.159,0c-.005-.693-.384-2.053.164-2.6A1.08,1.08,0,0,0,539.569,211.008Z" transform="translate(-243.359 -119.581)" fill="#3ac1b0"/>
        <path id="Path_8626" data-name="Path 8626" d="M149.539,392.691h-4.318a1.08,1.08,0,0,0,0,2.159h4.318A1.08,1.08,0,0,0,149.539,392.691Z" transform="translate(-132.771 -170.594)" fill="#3ac1b0"/>
        <path id="Path_8627" data-name="Path 8627" d="M195.561,387.785c.017,3.717.716,7.617-1.293,10.97a1.081,1.081,0,0,0,1.865,1.09c2.235-3.732,1.6-7.908,1.587-12.06A1.08,1.08,0,0,0,195.561,387.785Z" transform="translate(-146.766 -168.927)" fill="#3ac1b0"/>
        <path id="Path_8628" data-name="Path 8628" d="M191.221,438.691a1.08,1.08,0,0,0,0,2.159A1.08,1.08,0,0,0,191.221,438.691Z" transform="translate(-145.664 -183.488)" fill="#3ac1b0"/>
      </g>
    </g>
  </g>
</svg>
